<svg width="1440" height="293" viewBox="0 0 1440 293" fill="none" xmlns="http://www.w3.org/2000/svg">
<path d="M1 201.545L121.433 183.843L180.454 241.491C181.201 242.22 182.262 242.529 183.284 242.315L300.405 217.697C300.915 217.59 301.444 217.611 301.944 217.761L360.5 235.235L480.212 183.016C480.685 182.809 481.202 182.723 481.716 182.765L600.466 192.409L659.95 175.129C660.431 174.99 660.872 174.736 661.235 174.391L719.916 118.54C720.543 117.944 721.389 117.633 722.253 117.683L840.433 124.458L958.065 83.9982C959.223 83.5998 960.507 83.9139 961.351 84.8019L1019.02 145.5C1019.74 146.266 1020.81 146.613 1021.85 146.423L1079.5 135.878L1138.33 124.721C1139.21 124.553 1140.12 124.773 1140.83 125.325L1198.64 170.279C1199.45 170.907 1200.51 171.1 1201.49 170.797L1319.47 134.165L1439.9 124.458" stroke="#00C1AD" stroke-width="4.8255" stroke-linecap="round" stroke-linejoin="round"/>
</svg>
