<svg id="svg-arrow-right-bordered" viewBox="0 0 17 17" fill="none" xmlns="http://www.w3.org/2000/svg">
<path fill-rule="evenodd" clip-rule="evenodd" d="M15.9375 8.5C15.9375 6.52745 15.1539 4.6357 13.7591 3.2409C12.3643 1.8461 10.4725 1.0625 8.5 1.0625C6.52745 1.0625 4.6357 1.8461 3.2409 3.2409C1.8461 4.6357 1.0625 6.52745 1.0625 8.5C1.0625 10.4725 1.8461 12.3643 3.2409 13.7591C4.6357 15.1539 6.52745 15.9375 8.5 15.9375C10.4725 15.9375 12.3643 15.1539 13.7591 13.7591C15.1539 12.3643 15.9375 10.4725 15.9375 8.5ZM3.8147e-06 8.5C3.8147e-06 6.24566 0.895536 4.08365 2.4896 2.4896C4.08365 0.895536 6.24566 3.8147e-06 8.5 3.8147e-06C10.7543 3.8147e-06 12.9163 0.895536 14.5104 2.4896C16.1045 4.08365 17 6.24566 17 8.5C17 10.7543 16.1045 12.9163 14.5104 14.5104C12.9163 16.1045 10.7543 17 8.5 17C6.24566 17 4.08365 16.1045 2.4896 14.5104C0.895536 12.9163 3.8147e-06 10.7543 3.8147e-06 8.5ZM4.78125 9.03125C4.64036 9.03125 4.50523 8.97528 4.4056 8.87565C4.30597 8.77602 4.25 8.6409 4.25 8.5C4.25 8.35911 4.30597 8.22398 4.4056 8.12435C4.50523 8.02472 4.64036 7.96875 4.78125 7.96875H10.9363L8.65513 5.68863C8.60573 5.63923 8.56655 5.5806 8.53982 5.51606C8.51309 5.45152 8.49933 5.38236 8.49933 5.3125C8.49933 5.24265 8.51309 5.17348 8.53982 5.10894C8.56655 5.04441 8.60573 4.98577 8.65513 4.93638C8.70452 4.88698 8.76316 4.8478 8.82769 4.82107C8.89223 4.79434 8.9614 4.78058 9.03125 4.78058C9.1011 4.78058 9.17027 4.79434 9.23481 4.82107C9.29935 4.8478 9.35798 4.88698 9.40738 4.93638L12.5949 8.12388C12.6443 8.17323 12.6836 8.23185 12.7104 8.29639C12.7372 8.36093 12.751 8.43012 12.751 8.5C12.751 8.56988 12.7372 8.63907 12.7104 8.70361C12.6836 8.76815 12.6443 8.82678 12.5949 8.87613L9.40738 12.0636C9.30762 12.1634 9.17233 12.2194 9.03125 12.2194C8.89018 12.2194 8.75488 12.1634 8.65513 12.0636C8.55537 11.9639 8.49933 11.8286 8.49933 11.6875C8.49933 11.5464 8.55537 11.4111 8.65513 11.3114L10.9363 9.03125H4.78125Z" fill="currentColor"/>
</svg>
