<svg id="svg-calendar" viewBox="0 0 32 32" fill="none" xmlns="http://www.w3.org/2000/svg">
<path fill-rule="evenodd" clip-rule="evenodd" d="M6.98615 3.65509H9.00199V2.7927C9.00234 2.58257 9.08553 2.38115 9.23334 2.23256C9.38115 2.08398 9.58153 2.00035 9.79056 2H10.5891C10.7981 2.00036 10.9985 2.084 11.1463 2.23258C11.2941 2.38116 11.3773 2.58258 11.3777 2.7927V3.65509H13.3934V2.7927C13.3938 2.58258 13.477 2.38116 13.6248 2.23258C13.7726 2.084 13.973 2.00036 14.182 2H14.9805C15.1895 2.00036 15.3899 2.084 15.5377 2.23258C15.6855 2.38116 15.7687 2.58258 15.7691 2.7927V3.65509H17.7848V2.7927C17.7852 2.58257 17.8684 2.38115 18.0162 2.23256C18.164 2.08398 18.3644 2.00035 18.5734 2H19.3715C19.5806 2.00036 19.7809 2.084 19.9287 2.23258C20.0766 2.38116 20.1598 2.58258 20.1601 2.7927V3.65509H22.1759V2.7927C22.1763 2.58258 22.2595 2.38116 22.4073 2.23258C22.5551 2.084 22.7554 2.00036 22.9645 2H23.763C23.972 2.00036 24.1724 2.084 24.3202 2.23258C24.468 2.38116 24.5512 2.58258 24.5516 2.7927V3.65509H25.4649C25.9147 3.65613 26.3458 3.83621 26.6639 4.15593C26.9819 4.47565 27.1611 4.90898 27.1621 5.36112V16.0804C30.713 19.0341 30.9725 24.4177 27.7097 27.6976C24.4837 30.9407 19.1988 30.7282 16.2364 27.2466H3.69715C3.24736 27.2456 2.81629 27.0655 2.49824 26.7458C2.18018 26.426 2.00104 25.9927 2 25.5406V5.36101C2.00104 4.90886 2.18018 4.47553 2.49824 4.15582C2.81629 3.8361 3.24736 3.65602 3.69715 3.65497H4.61059V2.7927C4.61095 2.58258 4.69415 2.38116 4.84196 2.23258C4.98977 2.084 5.19013 2.00036 5.39916 2H6.19763C6.40666 2.00036 6.60703 2.084 6.75483 2.23258C6.90264 2.38116 6.98584 2.58258 6.9862 2.7927L6.98615 3.65509ZM24.7487 21.7663H22.1805C22.1187 21.7663 22.0578 21.7818 22.0034 21.8115C21.9491 21.8411 21.9029 21.884 21.8693 21.9362L19.2207 26.0471C19.1691 26.1301 19.1519 26.2302 19.173 26.3258C19.194 26.4214 19.2516 26.5049 19.3333 26.5582C19.415 26.6116 19.5142 26.6305 19.6097 26.611C19.7051 26.5915 19.7891 26.535 19.8436 26.4538L22.383 22.5126H24.7487C24.8448 22.509 24.9357 22.4681 25.0024 22.3985C25.0691 22.3289 25.1063 22.2361 25.1063 22.1394C25.1063 22.0428 25.0691 21.95 25.0024 21.8804C24.9357 21.8108 24.8448 21.7699 24.7487 21.7663ZM29.2451 22.5139H28.4188C28.3699 22.5139 28.3214 22.5042 28.2762 22.4854C28.231 22.4666 28.1899 22.439 28.1553 22.4042C28.1207 22.3694 28.0933 22.3281 28.0745 22.2827C28.0558 22.2372 28.0462 22.1885 28.0462 22.1393C28.0462 22.0902 28.0558 22.0415 28.0745 21.996C28.0933 21.9506 28.1207 21.9093 28.1553 21.8745C28.1899 21.8397 28.231 21.8121 28.2762 21.7933C28.3214 21.7745 28.3699 21.7648 28.4188 21.7648H29.2451C29.153 20.0107 28.4184 18.3529 27.1828 17.1109C25.9472 15.8689 24.2981 15.1304 22.5532 15.0379V15.8685C22.5532 15.9679 22.5139 16.0632 22.444 16.1334C22.3741 16.2037 22.2794 16.2431 22.1805 16.2431C22.0817 16.2431 21.9869 16.2037 21.917 16.1334C21.8472 16.0632 21.8079 15.9679 21.8079 15.8685V15.0379C20.0629 15.1305 18.4138 15.8689 17.1782 17.111C15.9427 18.353 15.2081 20.0108 15.116 21.7649H15.9423C15.9913 21.7649 16.0397 21.7746 16.0849 21.7934C16.1301 21.8122 16.1712 21.8398 16.2058 21.8746C16.2404 21.9094 16.2679 21.9507 16.2866 21.9961C16.3053 22.0416 16.3149 22.0903 16.3149 22.1395C16.3149 22.1887 16.3053 22.2374 16.2866 22.2828C16.2679 22.3283 16.2404 22.3696 16.2058 22.4043C16.1712 22.4391 16.1301 22.4667 16.0849 22.4855C16.0397 22.5044 15.9913 22.514 15.9423 22.514H15.116C15.2081 24.2681 15.9427 25.9259 17.1782 27.1679C18.4138 28.41 20.063 29.1484 21.8079 29.241V28.4103C21.8079 28.311 21.8472 28.2157 21.917 28.1455C21.9869 28.0752 22.0817 28.0357 22.1805 28.0357C22.2794 28.0357 22.3741 28.0752 22.444 28.1455C22.5139 28.2157 22.5532 28.311 22.5532 28.4103V29.241C24.2981 29.1484 25.9473 28.41 27.1829 27.1679C28.4185 25.9258 29.1531 24.268 29.2451 22.5139ZM26.4169 15.5315V8.24174H2.74538V25.5406C2.74635 25.7941 2.84694 26.0369 3.02522 26.2161C3.2035 26.3953 3.44502 26.4964 3.69715 26.4974H15.672C14.676 24.9939 14.2256 23.1914 14.3964 21.3931C14.5672 19.5949 15.3488 17.9106 16.6099 16.6237C17.8709 15.3367 19.5344 14.5256 21.3204 14.3267C23.1065 14.1278 24.9063 14.5532 26.4169 15.5315ZM10.5402 20.6215C10.4414 20.6215 10.3466 20.661 10.2767 20.7313C10.2069 20.8015 10.1676 20.8968 10.1676 20.9961V23.6858C10.1676 23.7349 10.1772 23.7837 10.1959 23.8291C10.2147 23.8746 10.2421 23.9159 10.2767 23.9506C10.3113 23.9854 10.3524 24.013 10.3976 24.0318C10.4428 24.0507 10.4913 24.0603 10.5402 24.0603H13.2158C13.2647 24.0604 13.3132 24.0507 13.3585 24.0319C13.4037 24.0131 13.4448 23.9855 13.4794 23.9507C13.5141 23.9159 13.5415 23.8746 13.5603 23.8292C13.579 23.7837 13.5886 23.735 13.5886 23.6858V20.9961C13.5886 20.8968 13.5494 20.8015 13.4795 20.7313C13.4096 20.661 13.3148 20.6216 13.216 20.6215H10.5402ZM12.8431 21.3707H10.9128V23.3111H12.8431V21.3707ZM5.13391 20.6215C5.03508 20.6216 4.94031 20.661 4.87043 20.7313C4.80055 20.8015 4.76129 20.8968 4.76127 20.9961V23.6858C4.76127 23.7851 4.80053 23.8804 4.87042 23.9506C4.9403 24.0209 5.03508 24.0603 5.13391 24.0603H7.80947C7.90829 24.0603 8.00307 24.0209 8.07296 23.9506C8.14284 23.8804 8.1821 23.7851 8.1821 23.6858V20.9961C8.18208 20.8968 8.14282 20.8015 8.07294 20.7313C8.00306 20.661 7.90829 20.6216 7.80947 20.6215H5.13391ZM7.43678 21.3707H5.50654V23.3111H7.43684L7.43678 21.3707ZM10.5402 15.5085C10.4912 15.5085 10.4428 15.5182 10.3976 15.537C10.3523 15.5559 10.3113 15.5835 10.2767 15.6182C10.2421 15.653 10.2146 15.6943 10.1959 15.7398C10.1772 15.7852 10.1675 15.8339 10.1675 15.8831V18.5726C10.1675 18.6218 10.1772 18.6705 10.1959 18.716C10.2146 18.7614 10.2421 18.8027 10.2767 18.8375C10.3113 18.8723 10.3523 18.8999 10.3976 18.9187C10.4428 18.9375 10.4912 18.9472 10.5402 18.9472H13.2157C13.3146 18.9472 13.4093 18.9078 13.4792 18.8375C13.5491 18.7673 13.5884 18.672 13.5884 18.5726V15.8831C13.5884 15.7838 13.5491 15.6885 13.4792 15.6183C13.4093 15.548 13.3146 15.5085 13.2157 15.5085H10.5402ZM12.843 16.2577H10.9127V18.1981H12.843V16.2577ZM5.13391 15.5085C5.03508 15.5085 4.9403 15.548 4.87042 15.6183C4.80053 15.6885 4.76127 15.7838 4.76127 15.8831V18.5726C4.76127 18.672 4.80053 18.7673 4.87042 18.8375C4.9403 18.9078 5.03508 18.9472 5.13391 18.9472H7.80947C7.90829 18.9472 8.00307 18.9078 8.07296 18.8375C8.14284 18.7673 8.1821 18.672 8.1821 18.5726V15.8831C8.1821 15.7838 8.14284 15.6885 8.07296 15.6183C8.00307 15.548 7.90829 15.5085 7.80947 15.5085H5.13391ZM7.43678 16.2577H5.50654V18.1981H7.43684L7.43678 16.2577ZM21.3528 10.3955C21.254 10.3955 21.1592 10.435 21.0893 10.5052C21.0194 10.5754 20.9802 10.6707 20.9802 10.7701V13.4596C20.9802 13.559 21.0195 13.6542 21.0893 13.7245C21.1592 13.7947 21.254 13.8342 21.3528 13.8342H24.0284C24.1272 13.8342 24.222 13.7947 24.2918 13.7245C24.3617 13.6542 24.401 13.559 24.401 13.4596V10.7701C24.401 10.6707 24.3617 10.5754 24.2919 10.5052C24.222 10.435 24.1272 10.3955 24.0284 10.3955H21.3528ZM23.6557 11.1447H21.7254V13.0851H23.6557V11.1447ZM15.9465 10.3955C15.8477 10.3955 15.7529 10.435 15.683 10.5052C15.6131 10.5754 15.5739 10.6707 15.5739 10.7701V13.4596C15.5739 13.559 15.6131 13.6542 15.683 13.7245C15.7529 13.7947 15.8477 13.8342 15.9465 13.8342H18.622C18.7209 13.8342 18.8156 13.7947 18.8855 13.7245C18.9554 13.6542 18.9947 13.559 18.9947 13.4596V10.7701C18.9947 10.6707 18.9554 10.5754 18.8855 10.5052C18.8157 10.435 18.7209 10.3955 18.622 10.3955H15.9465ZM18.2494 11.1447H16.3191V13.0851H18.2494V11.1447ZM10.5402 10.3955C10.4912 10.3955 10.4428 10.4052 10.3976 10.424C10.3523 10.4428 10.3113 10.4704 10.2767 10.5052C10.2421 10.54 10.2146 10.5813 10.1959 10.6267C10.1772 10.6722 10.1675 10.7209 10.1675 10.7701V13.4596C10.1675 13.559 10.2068 13.6543 10.2767 13.7245C10.3466 13.7948 10.4413 13.8342 10.5402 13.8342H13.2157C13.3146 13.8342 13.4093 13.7947 13.4792 13.7245C13.5491 13.6542 13.5883 13.559 13.5884 13.4596V10.7701C13.5884 10.6707 13.5491 10.5754 13.4792 10.5052C13.4093 10.435 13.3146 10.3955 13.2157 10.3955H10.5402ZM12.843 11.1447H10.9127V13.0851H12.843V11.1447ZM5.13391 10.3955C5.03508 10.3955 4.9403 10.435 4.87042 10.5052C4.80053 10.5754 4.76127 10.6707 4.76127 10.7701V13.4596C4.76129 13.559 4.80055 13.6542 4.87043 13.7245C4.94031 13.7947 5.03508 13.8342 5.13391 13.8342H7.80947C7.90829 13.8342 8.00306 13.7947 8.07294 13.7245C8.14282 13.6542 8.18208 13.559 8.1821 13.4596V10.7701C8.1821 10.6707 8.14284 10.5754 8.07296 10.5052C8.00307 10.435 7.90829 10.3955 7.80947 10.3955H5.13391ZM7.43678 11.1447H5.50654V13.0851H7.43684L7.43678 11.1447ZM22.1761 4.40425H20.1601V5.26663C20.1598 5.47676 20.0766 5.67819 19.9288 5.82677C19.781 5.97536 19.5806 6.05899 19.3715 6.05934H18.5732C18.3642 6.05897 18.1638 5.97534 18.016 5.82676C17.8682 5.67817 17.785 5.47676 17.7847 5.26663V4.40425H15.7689V5.26663C15.7686 5.47676 15.6854 5.67817 15.5376 5.82676C15.3898 5.97534 15.1894 6.05897 14.9804 6.05934H14.1819C13.9729 6.05897 13.7725 5.97534 13.6247 5.82676C13.4769 5.67817 13.3937 5.47676 13.3933 5.26663V4.40425H11.3775V5.26663C11.3772 5.47676 11.294 5.67819 11.1462 5.82677C10.9984 5.97536 10.798 6.05899 10.589 6.05934H9.79051C9.58147 6.05899 9.3811 5.97536 9.23328 5.82677C9.08547 5.67819 9.00228 5.47676 9.00193 5.26663V4.40425H6.98615V5.26663C6.9858 5.47676 6.90261 5.67819 6.75479 5.82677C6.60698 5.97536 6.40661 6.05899 6.19757 6.05934H5.39911C5.19008 6.05897 4.98971 5.97534 4.8419 5.82676C4.69409 5.67817 4.61089 5.47676 4.61053 5.26663V4.40425H3.69715C3.44503 4.40525 3.20352 4.50637 3.02524 4.68558C2.84696 4.86479 2.74637 5.10757 2.74538 5.36101V7.49275H26.4169V5.36101C26.4159 5.10756 26.3153 4.86477 26.137 4.68556C25.9587 4.50635 25.7172 4.40523 25.4651 4.40425H24.5517V5.26663C24.5513 5.47676 24.4681 5.67817 24.3203 5.82676C24.1725 5.97534 23.9721 6.05897 23.7631 6.05934H22.9646C22.7556 6.05897 22.5552 5.97534 22.4074 5.82676C22.2596 5.67817 22.1764 5.47676 22.1761 5.26663V4.40425ZM23.7632 2.74916H22.9646C22.9533 2.74945 22.9424 2.75413 22.9343 2.76224C22.9263 2.77034 22.9216 2.78125 22.9213 2.7927V5.26663C22.9216 5.27809 22.9263 5.28899 22.9343 5.2971C22.9424 5.3052 22.9533 5.30988 22.9646 5.31017H23.7632C23.7746 5.30987 23.7854 5.30518 23.7934 5.29708C23.8015 5.28898 23.8061 5.27808 23.8064 5.26663V2.7927C23.8061 2.78126 23.8015 2.77036 23.7934 2.76226C23.7854 2.75416 23.7746 2.74947 23.7632 2.74916ZM19.3715 2.74916H18.5732C18.5619 2.74947 18.551 2.75416 18.543 2.76226C18.5349 2.77036 18.5303 2.78126 18.53 2.7927V5.26663C18.5303 5.27808 18.5349 5.28898 18.543 5.29708C18.551 5.30518 18.5619 5.30987 18.5732 5.31017H19.3715C19.3829 5.30987 19.3938 5.30518 19.4018 5.29708C19.4099 5.28898 19.4145 5.27808 19.4148 5.26663V2.7927C19.4145 2.78126 19.4099 2.77036 19.4018 2.76226C19.3938 2.75416 19.3829 2.74947 19.3715 2.74916ZM14.9801 2.74916H14.1819C14.1705 2.74945 14.1597 2.75413 14.1516 2.76224C14.1435 2.77034 14.1389 2.78125 14.1386 2.7927V5.26663C14.1389 5.27809 14.1435 5.28899 14.1516 5.2971C14.1597 5.3052 14.1705 5.30988 14.1819 5.31017H14.9804C14.9918 5.30988 15.0026 5.3052 15.0107 5.2971C15.0187 5.28899 15.0234 5.27809 15.0237 5.26663V2.7927C15.0234 2.78125 15.0187 2.77034 15.0107 2.76224C15.0026 2.75413 14.9915 2.74945 14.9801 2.74916ZM10.5888 2.74916H9.79051C9.77912 2.74947 9.76829 2.75416 9.76024 2.76226C9.75219 2.77036 9.74754 2.78126 9.74725 2.7927V5.26663C9.74754 5.27808 9.75219 5.28898 9.76024 5.29708C9.76829 5.30518 9.77912 5.30987 9.79051 5.31017H10.589C10.6004 5.30988 10.6113 5.3052 10.6193 5.29709C10.6274 5.28899 10.632 5.27808 10.6323 5.26663V2.7927C10.632 2.78125 10.6274 2.77035 10.6193 2.76224C10.6113 2.75414 10.6002 2.74945 10.5888 2.74916ZM6.1974 2.74916H5.39911C5.38772 2.74945 5.37687 2.75414 5.36882 2.76224C5.36077 2.77035 5.35612 2.78125 5.35585 2.7927V5.26663C5.35612 5.27808 5.36077 5.28899 5.36882 5.29709C5.37687 5.3052 5.38772 5.30988 5.39911 5.31017H6.19763C6.20901 5.30987 6.21985 5.30518 6.2279 5.29708C6.23595 5.28898 6.2406 5.27808 6.24088 5.26663V2.7927C6.2406 2.78126 6.23595 2.77036 6.2279 2.76226C6.21985 2.75416 6.20879 2.74947 6.1974 2.74916Z" fill="currentColor" stroke="currentColor" stroke-width="0.3"/>
</svg>
