<svg id="svg-close-rounded" viewBox="0 0 26 26" fill="currentColor" xmlns="http://www.w3.org/2000/svg">
<path d="M13.0001 14.3159L3.25751 24.0585C3.08417 24.2318 2.87122 24.3247 2.61865 24.3371C2.36608 24.3494 2.14075 24.2566 1.94265 24.0585C1.74456 23.8604 1.64551 23.6412 1.64551 23.4011C1.64551 23.1609 1.74456 22.9417 1.94265 22.7436L11.6852 13.0011L1.94265 3.25848C1.76932 3.08515 1.67646 2.8722 1.66408 2.61963C1.6517 2.36706 1.74456 2.14172 1.94265 1.94363C2.14075 1.74553 2.35989 1.64648 2.60008 1.64648C2.84027 1.64648 3.05941 1.74553 3.25751 1.94363L13.0001 11.6862L22.7427 1.94363C22.916 1.77029 23.1296 1.67744 23.3834 1.66506C23.6347 1.65267 23.8594 1.74553 24.0575 1.94363C24.2556 2.14172 24.3547 2.36087 24.3547 2.60106C24.3547 2.84125 24.2556 3.06039 24.0575 3.25848L14.3149 13.0011L24.0575 22.7436C24.2308 22.917 24.3237 23.1305 24.3361 23.3843C24.3485 23.6357 24.2556 23.8604 24.0575 24.0585C23.8594 24.2566 23.6403 24.3556 23.4001 24.3556C23.1599 24.3556 22.9407 24.2566 22.7427 24.0585L13.0001 14.3159Z"/>
</svg>
