<svg id="svg-edit" viewBox="0 0 35 35" fill="none" xmlns="http://www.w3.org/2000/svg">
<path d="M15.875 5.27604H5.08333C4.26558 5.27604 3.48132 5.60089 2.90309 6.17913C2.32485 6.75737 2 7.54162 2 8.35938V29.9427C2 30.7605 2.32485 31.5447 2.90309 32.123C3.48132 32.7012 4.26558 33.026 5.08333 33.026H26.6667C27.4844 33.026 28.2687 32.7012 28.8469 32.123C29.4251 31.5447 29.75 30.7605 29.75 29.9427V19.151M27.4375 2.95787C28.0508 2.34456 28.8826 2 29.75 2C30.6174 2 31.4492 2.34456 32.0625 2.95787C32.6758 3.57118 33.0204 4.40301 33.0204 5.27037C33.0204 6.13772 32.6758 6.96956 32.0625 7.58287L17.4167 22.2287L11.25 23.7704L12.7917 17.6037L27.4375 2.95787Z" stroke="currentColor" stroke-width="3" stroke-linecap="round" stroke-linejoin="round"/>
</svg>
