<svg id="svg-email" viewBox="0 0 12 13" fill="currentColor" xmlns="http://www.w3.org/2000/svg">
<path d="M1.125 1.75391C0.503906 1.75391 0 2.25781 0 2.87891C0 3.23281 0.166406 3.56562 0.45 3.77891L5.55 7.60391C5.81719 7.80313 6.18281 7.80313 6.45 7.60391L11.55 3.77891C11.8336 3.56562 12 3.23281 12 2.87891C12 2.25781 11.4961 1.75391 10.875 1.75391H1.125ZM0 4.37891V9.25391C0 10.0812 0.672656 10.7539 1.5 10.7539H10.5C11.3273 10.7539 12 10.0812 12 9.25391V4.37891L6.9 8.20391C6.36562 8.60469 5.63438 8.60469 5.1 8.20391L0 4.37891Z" />
</svg>
