<svg id="svg-fast" viewBox="0 0 46 46" fill="none" xmlns="http://www.w3.org/2000/svg">
<path d="M16.7013 35.8127H2.71015C2.28118 35.8263 1.8552 35.7359 1.46775 35.5491C1.0803 35.3622 0.742627 35.0843 0.482895 34.7385C0.233524 34.3688 0.0751262 33.944 0.0209146 33.4997C-0.0332969 33.0554 0.0182494 32.6044 0.171253 32.1844L2.80822 24.1293C2.89896 23.8515 3.09505 23.6215 3.35335 23.4899C3.61165 23.3584 3.911 23.3361 4.18554 23.4279C4.46009 23.5198 4.68734 23.7182 4.81731 23.9797C4.94727 24.2411 4.96931 24.544 4.87856 24.8219L2.2416 32.8769C2.20011 32.9655 2.17859 33.0623 2.17859 33.1604C2.17859 33.2584 2.20011 33.3552 2.2416 33.4438C2.30166 33.5042 2.37434 33.5502 2.4543 33.5785C2.53425 33.6067 2.61945 33.6165 2.70361 33.607H16.7013C16.9903 33.607 17.2675 33.7232 17.4718 33.93C17.6762 34.1368 17.791 34.4173 17.791 34.7098C17.791 35.0023 17.6762 35.2828 17.4718 35.4897C17.2675 35.6965 16.9903 35.8127 16.7013 35.8127Z" fill="currentColor"/>
<path d="M39.1918 23.5933C39.0756 23.5932 38.9602 23.5746 38.8497 23.5382C38.5754 23.446 38.3486 23.2474 38.219 22.986C38.0895 22.7246 38.0678 22.4218 38.1588 22.1442L43.7575 4.96219C43.9253 4.44607 43.7422 4.22771 43.2889 4.22771L13.0161 4.20565C12.6013 4.23873 12.2042 4.39014 11.8709 4.64233C11.5377 4.89452 11.2819 5.23715 11.1332 5.6305L8.97568 12.2695C8.93238 12.4088 8.86221 12.5379 8.76921 12.6495C8.67622 12.7611 8.56225 12.8529 8.43394 12.9196C8.30562 12.9863 8.1655 13.0265 8.0217 13.0379C7.87791 13.0494 7.7333 13.0318 7.59626 12.9863C7.45922 12.9407 7.33248 12.8681 7.22339 12.7726C7.1143 12.6771 7.02503 12.5606 6.96075 12.4299C6.89648 12.2992 6.85849 12.1569 6.84897 12.0113C6.83946 11.8656 6.85861 11.7195 6.90533 11.5814L9.06285 4.94234C9.35821 4.10933 9.89234 3.38442 10.5969 2.86028C11.3015 2.33615 12.1446 2.03662 13.0183 2L43.2911 2.02206C43.7197 2.00912 44.1451 2.09982 44.5321 2.28664C44.919 2.47345 45.2564 2.75099 45.5162 3.09621C45.7656 3.46638 45.924 3.89149 45.9782 4.33615C46.0324 4.78081 45.9808 5.23214 45.8278 5.65256L40.227 22.8368C40.155 23.0571 40.0162 23.2488 39.8304 23.3846C39.6445 23.5204 39.4211 23.5935 39.1918 23.5933Z" fill="currentColor"/>
<path d="M5.28174 21.1671C5.10943 21.1669 4.93963 21.1253 4.78629 21.0457C4.63295 20.9662 4.50043 20.851 4.39961 20.7095C4.29879 20.5681 4.23255 20.4045 4.20633 20.2321C4.1801 20.0598 4.19464 19.8836 4.24875 19.718L5.46916 15.9904C5.51099 15.8492 5.58038 15.7179 5.67323 15.6042C5.76608 15.4906 5.8805 15.397 6.00973 15.3289C6.13896 15.2608 6.28037 15.2196 6.42559 15.2078C6.57082 15.196 6.71691 15.2137 6.85523 15.2601C6.99355 15.3064 7.12129 15.3803 7.23089 15.4775C7.34049 15.5746 7.42972 15.693 7.49332 15.8257C7.55691 15.9584 7.59357 16.1026 7.60113 16.2498C7.60869 16.3971 7.587 16.5444 7.53733 16.683L6.31691 20.4106C6.24493 20.6309 6.10614 20.8225 5.92028 20.9584C5.73443 21.0942 5.51098 21.1672 5.28174 21.1671Z" fill="currentColor"/>
<path d="M43.2846 11.0123L8.59865 10.9947C8.30966 10.9947 8.0325 10.8785 7.82815 10.6717C7.6238 10.4648 7.509 10.1843 7.509 9.89184C7.509 9.59935 7.6238 9.31884 7.82815 9.11202C8.0325 8.9052 8.30966 8.78901 8.59865 8.78901L43.2824 8.80666C43.5714 8.80666 43.8485 8.92285 44.0529 9.12967C44.2572 9.33649 44.372 9.617 44.372 9.90948C44.372 10.202 44.2572 10.4825 44.0529 10.6893C43.8485 10.8961 43.5714 11.0123 43.2824 11.0123H43.2846Z" fill="currentColor"/>
<path d="M34.3332 7.27861C34.888 6.83775 35.0828 6.15183 34.7683 5.74657C34.4539 5.34131 33.7493 5.37017 33.1946 5.81103C32.6399 6.2519 32.4451 6.93782 32.7595 7.34308C33.0739 7.74834 33.7785 7.71948 34.3332 7.27861Z" fill="currentColor"/>
<path d="M34.3332 7.27861C34.888 6.83775 35.0828 6.15183 34.7683 5.74657C34.4539 5.34131 33.7493 5.37017 33.1946 5.81103C32.6399 6.2519 32.4451 6.93782 32.7595 7.34308C33.0739 7.74834 33.7785 7.71948 34.3332 7.27861Z" fill="currentColor"/>
<path d="M37.7161 7.27919C38.2708 6.83832 38.4656 6.1524 38.1511 5.74714C37.8367 5.34188 37.1321 5.37075 36.5774 5.81161C36.0227 6.25247 35.8279 6.9384 36.1423 7.34366C36.4568 7.74892 37.1614 7.72005 37.7161 7.27919Z" fill="currentColor"/>
<path d="M41.0954 7.27803C41.6501 6.83717 41.8449 6.15125 41.5305 5.74599C41.216 5.34072 40.5114 5.36959 39.9567 5.81045C39.402 6.25132 39.2072 6.93724 39.5216 7.3425C39.8361 7.74776 40.5407 7.7189 41.0954 7.27803Z" fill="currentColor"/>
<path d="M44.0647 39.8644H17.5142C17.2914 39.8644 17.074 39.7952 16.8912 39.6662C16.7085 39.5373 16.5692 39.3547 16.4921 39.1432C15.8895 37.4818 15.584 35.7252 15.5899 33.9555C15.5899 29.8741 17.1918 25.9599 20.0433 23.0739C22.8948 20.188 26.7623 18.5666 30.7949 18.5666C34.8276 18.5666 38.695 20.188 41.5465 23.0739C44.398 25.9599 46 29.8741 46 33.9555C46.0032 35.7253 45.6962 37.4818 45.0934 39.1432C45.0159 39.3558 44.8756 39.5391 44.6916 39.6681C44.5075 39.7972 44.2886 39.8657 44.0647 39.8644ZM18.2966 37.6588H43.2802C43.6364 36.4575 43.8163 35.2097 43.8141 33.9555C43.8141 30.4591 42.4418 27.1059 39.999 24.6336C37.5562 22.1612 34.243 20.7723 30.7884 20.7723C27.3337 20.7723 24.0206 22.1612 21.5778 24.6336C19.135 27.1059 17.7626 30.4591 17.7626 33.9555C17.7614 35.2096 17.9413 36.4573 18.2966 37.6588Z" fill="currentColor"/>
<path d="M30.7884 22.528C30.4994 22.528 30.2222 22.4118 30.0179 22.205C29.8135 21.9981 29.6987 21.7176 29.6987 21.4252V19.6606C29.6987 19.3681 29.8135 19.0876 30.0179 18.8808C30.2222 18.674 30.4994 18.5578 30.7884 18.5578C31.0774 18.5578 31.3545 18.674 31.5589 18.8808C31.7632 19.0876 31.878 19.3681 31.878 19.6606V21.4252C31.878 21.7176 31.7632 21.9981 31.5589 22.205C31.3545 22.4118 31.0774 22.528 30.7884 22.528Z" fill="currentColor"/>
<path d="M39.5383 26.196C39.323 26.196 39.1125 26.1313 38.9334 26.0103C38.7543 25.8892 38.6147 25.7172 38.5321 25.5159C38.4496 25.3146 38.4278 25.0931 38.4696 24.8792C38.5114 24.6654 38.6148 24.4689 38.7668 24.3146L39.996 23.0728C40.2015 22.8719 40.4767 22.7608 40.7624 22.7633C41.0481 22.7658 41.3214 22.8818 41.5235 23.0862C41.7255 23.2907 41.8401 23.5673 41.8426 23.8565C41.8451 24.1456 41.7352 24.4242 41.5367 24.6322L40.3076 25.874C40.1034 26.0801 39.8268 26.1959 39.5383 26.196Z" fill="currentColor"/>
<path d="M44.8994 35.0539H43.156C42.867 35.0539 42.5898 34.9377 42.3855 34.7309C42.1811 34.524 42.0663 34.2435 42.0663 33.9511C42.0663 33.6586 42.1811 33.3781 42.3855 33.1712C42.5898 32.9644 42.867 32.8482 43.156 32.8482H44.8994C45.1884 32.8482 45.4656 32.9644 45.6699 33.1712C45.8743 33.3781 45.9891 33.6586 45.9891 33.9511C45.9891 34.2435 45.8743 34.524 45.6699 34.7309C45.4656 34.9377 45.1884 35.0539 44.8994 35.0539Z" fill="currentColor"/>
<path d="M18.423 35.0539H16.6795C16.3905 35.0539 16.1134 34.9377 15.909 34.7309C15.7047 34.524 15.5899 34.2435 15.5899 33.9511C15.5899 33.6586 15.7047 33.3781 15.909 33.1712C16.1134 32.9644 16.3905 32.8482 16.6795 32.8482H18.423C18.712 32.8482 18.9891 32.9644 19.1935 33.1712C19.3978 33.3781 19.5126 33.6586 19.5126 33.9511C19.5126 34.2435 19.3978 34.524 19.1935 34.7309C18.9891 34.9377 18.712 35.0539 18.423 35.0539Z" fill="currentColor"/>
<path d="M22.0363 26.196C21.7478 26.1959 21.4712 26.0801 21.267 25.874L20.04 24.6322C19.8415 24.4242 19.7317 24.1456 19.7342 23.8565C19.7367 23.5673 19.8513 23.2907 20.0533 23.0862C20.2553 22.8818 20.5286 22.7658 20.8143 22.7633C21.1 22.7608 21.3753 22.8719 21.5808 23.0728L22.8078 24.3146C22.9598 24.4689 23.0632 24.6654 23.105 24.8792C23.1468 25.0931 23.125 25.3146 23.0425 25.5159C22.9599 25.7172 22.8203 25.8892 22.6412 26.0103C22.4621 26.1313 22.2516 26.196 22.0363 26.196Z" fill="currentColor"/>
<path d="M30.7884 36.8096C30.2281 36.8096 29.6803 36.6414 29.2144 36.3263C28.7485 36.0113 28.3854 35.5635 28.1709 35.0395C27.9565 34.5156 27.9004 33.9391 28.0097 33.3828C28.119 32.8266 28.3889 32.3157 28.7851 31.9147C29.1813 31.5137 29.6861 31.2406 30.2357 31.13C30.7852 31.0194 31.3549 31.0761 31.8726 31.2932C32.3903 31.5102 32.8327 31.8777 33.144 32.3492C33.4553 32.8208 33.6215 33.3751 33.6215 33.9422C33.6215 34.7027 33.323 35.432 32.7917 35.9698C32.2604 36.5075 31.5398 36.8096 30.7884 36.8096ZM30.7884 33.296C30.6591 33.296 30.5327 33.3348 30.4252 33.4075C30.3176 33.4802 30.2338 33.5835 30.1844 33.7045C30.1349 33.8254 30.1219 33.9584 30.1472 34.0868C30.1724 34.2151 30.2347 34.333 30.3261 34.4256C30.4175 34.5181 30.534 34.5811 30.6608 34.6067C30.7877 34.6322 30.9191 34.6191 31.0386 34.569C31.1581 34.5189 31.2602 34.4341 31.332 34.3253C31.4038 34.2165 31.4422 34.0885 31.4422 33.9577C31.4422 33.8708 31.4253 33.7847 31.3924 33.7045C31.3596 33.6242 31.3114 33.5512 31.2507 33.4898C31.19 33.4283 31.1179 33.3796 31.0386 33.3464C30.9593 33.3131 30.8742 33.296 30.7884 33.296Z" fill="currentColor"/>
<path d="M32.2463 34.1297C32.0095 34.1302 31.779 34.0526 31.5897 33.9087C31.4004 33.7648 31.2625 33.5623 31.197 33.332C31.1315 33.1017 31.1419 32.8561 31.2266 32.6323C31.3114 32.4085 31.4658 32.2187 31.6666 32.0917L37.9866 28.0774C38.108 28.0004 38.2431 27.9483 38.3844 27.9241C38.5256 27.8999 38.6702 27.9041 38.8098 27.9365C38.9494 27.9689 39.0814 28.0287 39.1982 28.1127C39.315 28.1967 39.4142 28.3031 39.4904 28.4259C39.5665 28.5487 39.618 28.6855 39.6419 28.8285C39.6658 28.9714 39.6616 29.1177 39.6296 29.2591C39.5977 29.4004 39.5385 29.5339 39.4555 29.6521C39.3725 29.7703 39.2674 29.8708 39.146 29.9478L32.8151 33.9621C32.6441 34.0694 32.4475 34.1273 32.2463 34.1297Z" fill="currentColor"/>
<path d="M11.763 25.574H1.20642C0.917425 25.574 0.640267 25.4578 0.435917 25.251C0.231567 25.0442 0.116764 24.7637 0.116764 24.4712C0.116764 24.1787 0.231567 23.8982 0.435917 23.6914C0.640267 23.4845 0.917425 23.3683 1.20642 23.3683H11.763C12.052 23.3683 12.3292 23.4845 12.5335 23.6914C12.7379 23.8982 12.8527 24.1787 12.8527 24.4712C12.8527 24.7637 12.7379 25.0442 12.5335 25.251C12.3292 25.4578 12.052 25.574 11.763 25.574Z" fill="currentColor"/>
<path d="M21.4217 17.4395H1.09528C0.806285 17.4395 0.529127 17.3234 0.324777 17.1165C0.120427 16.9097 0.00562454 16.6292 0.00562454 16.3367C0.00562454 16.0442 0.120427 15.7637 0.324777 15.5569C0.529127 15.3501 0.806285 15.2339 1.09528 15.2339H21.4217C21.7107 15.2339 21.9879 15.3501 22.1922 15.5569C22.3966 15.7637 22.5114 16.0442 22.5114 16.3367C22.5114 16.6292 22.3966 16.9097 22.1922 17.1165C21.9879 17.3234 21.7107 17.4395 21.4217 17.4395Z" fill="currentColor"/>
<path d="M11.763 39.8644H3.38573C3.09673 39.8644 2.81958 39.7482 2.61523 39.5414C2.41088 39.3346 2.29607 39.0541 2.29607 38.7616C2.29607 38.4691 2.41088 38.1886 2.61523 37.9818C2.81958 37.775 3.09673 37.6588 3.38573 37.6588H11.763C12.052 37.6588 12.3292 37.775 12.5335 37.9818C12.7379 38.1886 12.8527 38.4691 12.8527 38.7616C12.8527 39.0541 12.7379 39.3346 12.5335 39.5414C12.3292 39.7482 12.052 39.8644 11.763 39.8644Z" fill="currentColor"/>
<path d="M29.0515 44H27.3799C27.091 44 26.8138 43.8838 26.6094 43.677C26.4051 43.4702 26.2903 43.1897 26.2903 42.8972C26.2903 42.6047 26.4051 42.3242 26.6094 42.1174C26.8138 41.9105 27.091 41.7943 27.3799 41.7943H29.0515C29.3405 41.7943 29.6176 41.9105 29.822 42.1174C30.0263 42.3242 30.1411 42.6047 30.1411 42.8972C30.1411 43.1897 30.0263 43.4702 29.822 43.677C29.6176 43.8838 29.3405 44 29.0515 44Z" fill="currentColor"/>
<path d="M23.5378 44H14.8445C14.5555 44 14.2784 43.8838 14.074 43.677C13.8697 43.4702 13.7549 43.1897 13.7549 42.8972C13.7549 42.6047 13.8697 42.3242 14.074 42.1174C14.2784 41.9105 14.5555 41.7943 14.8445 41.7943H23.5378C23.8268 41.7943 24.104 41.9105 24.3083 42.1174C24.5127 42.3242 24.6275 42.6047 24.6275 42.8972C24.6275 43.1897 24.5127 43.4702 24.3083 43.677C24.104 43.8838 23.8268 44 23.5378 44Z" fill="currentColor"/>
</svg>
