<svg id="svg-food" viewBox="0 0 46 46" fill="none" xmlns="http://www.w3.org/2000/svg">
<path d="M22.6281 20.2835C22.3447 20.1239 21.9958 20.1216 21.7091 20.2807L20.6703 20.858L20.3248 20.4739C20.033 20.1474 19.552 20.069 19.1689 20.2812L18.325 20.7494C18.246 20.5568 18.11 20.3893 17.9224 20.2835C17.6385 20.1239 17.2896 20.1216 17.0034 20.2807L15.9652 20.858L15.6197 20.4739C15.3273 20.1474 14.8463 20.069 14.4632 20.2812L13.2256 20.9689L11.9886 20.2812C11.7058 20.1233 11.358 20.1233 11.0752 20.2812L9.83821 20.9689L8.60117 20.2812C8.31781 20.1233 7.97061 20.1233 7.68781 20.2812L6.64845 20.8586L6.30293 20.4744C6.00893 20.148 5.53013 20.0696 5.14709 20.2818L3.91005 20.9695L2.67301 20.2818C2.38797 20.1228 2.03909 20.125 1.75405 20.2846C1.46845 20.4453 1.28701 20.7432 1.27581 21.0703L0.427409 44.597C0.417889 44.8524 0.513089 45.1004 0.690609 45.2847C0.867569 45.4684 1.11229 45.5725 1.36765 45.5725H6.07277H18.3077H23.0133C23.2693 45.5725 23.5134 45.4689 23.6909 45.2847C23.8685 45.101 23.9631 44.8524 23.9536 44.597L23.1063 21.0692C23.0951 20.7421 22.9137 20.4442 22.6281 20.2835ZM2.34373 43.6898L3.09973 22.6719L3.45197 22.8668C3.73477 23.0247 4.08253 23.0247 4.36533 22.8668L5.40469 22.2894L5.75021 22.6736C5.80957 22.7391 5.87733 22.7917 5.94901 22.8371C6.22957 23.014 6.58741 23.0348 6.88869 22.8746C6.89429 22.8718 6.90045 22.8701 6.90661 22.8668L8.14365 22.1791L9.38069 22.8668C9.52237 22.9457 9.68029 22.9855 9.83765 22.9855C9.99501 22.9855 10.1529 22.9457 10.2946 22.8668L11.5316 22.1791L12.7687 22.8668C12.9098 22.9457 13.0677 22.9855 13.2256 22.9855C13.383 22.9855 13.5409 22.9457 13.6826 22.8668L14.722 22.2894L15.0675 22.6736C15.2489 22.8768 15.5043 22.9838 15.7636 22.9855H15.772C15.9265 22.9844 16.0822 22.9463 16.2239 22.8668L16.5761 22.6719L16.5873 22.9855L17.3321 43.6898H7.05053H6.10917H5.16781H2.34373ZM18.4633 22.8248L19.4265 22.29L19.7721 22.6741C20.0655 23.0012 20.5471 23.0801 20.9285 22.8673L21.2807 22.6724L22.0373 43.6904H19.2149L18.4633 22.8248ZM9.83765 35.2198C11.3945 35.2198 12.6606 33.9531 12.6606 32.3963C12.6606 30.8395 11.3945 29.5728 9.83765 29.5728C8.88733 29.5728 8.04677 30.0465 7.53493 30.7684C7.20845 31.2287 7.01413 31.7898 7.01413 32.3963C7.01413 32.9266 7.16365 33.4216 7.41901 33.8461C7.91349 34.6676 8.81117 35.2198 9.83765 35.2198ZM9.83765 31.4555C10.3568 31.4555 10.7785 31.8772 10.7785 32.3963C10.7785 32.9154 10.3568 33.3376 9.83765 33.3376C9.31853 33.3376 8.89629 32.916 8.89629 32.3963C8.89629 31.8772 9.31853 31.4555 9.83765 31.4555ZM6.28501 38.9847H6.07333C5.78437 38.9847 5.52901 38.852 5.35653 38.647C5.21877 38.4829 5.13253 38.2746 5.13253 38.0433C5.13253 37.7857 5.23613 37.5528 5.40413 37.3825C5.57437 37.2095 5.81125 37.102 6.07333 37.102H6.35557H7.29749H13.602C14.1222 37.102 14.5428 37.5225 14.5428 38.0428C14.5428 38.563 14.1222 38.9841 13.602 38.9841H7.22637L6.28501 38.9847ZM25.3799 6.17988C25.8257 6.447 25.9701 7.02548 25.7025 7.47124L20.0554 16.882C19.879 17.176 19.5677 17.339 19.2473 17.339C19.0827 17.339 18.9158 17.2959 18.7641 17.2052C18.3183 16.9375 18.1738 16.3596 18.4415 15.9138L24.0885 6.50244C24.3557 6.05668 24.933 5.9122 25.3799 6.17988ZM17.3663 11.692C18.9231 11.692 20.1898 10.4252 20.1898 8.86844C20.1898 7.31164 18.9231 6.04548 17.3663 6.04548C15.8095 6.04548 14.5428 7.31164 14.5428 8.86844C14.5433 10.4258 15.8095 11.692 17.3663 11.692ZM17.3663 7.92764C17.8854 7.92764 18.3077 8.34932 18.3077 8.86844C18.3077 9.38756 17.886 9.8098 17.3663 9.8098C16.8472 9.8098 16.4255 9.38812 16.4255 8.86844C16.4255 8.34932 16.8472 7.92764 17.3663 7.92764ZM29.6006 14.5155C29.6006 12.9587 28.3345 11.692 26.7777 11.692C25.2209 11.692 23.9541 12.9587 23.9541 14.5155C23.9541 16.0723 25.2209 17.3384 26.7777 17.3384C28.3345 17.339 29.6006 16.0723 29.6006 14.5155ZM25.8363 14.5155C25.8363 13.9964 26.258 13.5741 26.7777 13.5741C27.2973 13.5741 27.7185 13.9964 27.7185 14.5155C27.7185 15.0346 27.2968 15.4563 26.7777 15.4563C26.2585 15.4563 25.8363 15.0346 25.8363 14.5155ZM36.1885 22.9855C30.9995 22.9855 26.7777 27.2073 26.7777 32.3963C26.7777 37.5852 30.9995 41.8076 36.1885 41.8076C41.3774 41.8076 45.5998 37.5852 45.5998 32.3963C45.5998 27.2079 41.378 22.9855 36.1885 22.9855ZM36.1885 39.9255C32.0372 39.9255 28.6598 36.5476 28.6598 32.3963C28.6598 28.245 32.0372 24.8676 36.1885 24.8676C40.3397 24.8676 43.7177 28.245 43.7177 32.3963C43.7177 36.5476 40.3403 39.9255 36.1885 39.9255ZM41.1159 32.2753C41.1159 32.7956 40.6953 33.2167 40.1751 33.2167H38.5959L34.7644 37.0482C34.5807 37.2319 34.3399 37.3237 34.0991 37.3237C33.8583 37.3237 33.6175 37.2319 33.4338 37.0482C33.0665 36.6803 33.0665 36.085 33.4338 35.7171L35.9348 33.2167H33.1992C32.9494 33.2167 32.7103 33.1176 32.5339 32.9412L31.5377 31.9449C31.1697 31.577 31.1697 30.9817 31.5377 30.6144C31.905 30.247 32.5009 30.247 32.8682 30.6144L33.5889 31.3351H35.6917L33.4333 29.0766C33.0659 28.7092 33.0659 28.1134 33.4333 27.7455C33.8012 27.3781 34.3965 27.3781 34.7638 27.7455L38.3529 31.3345H40.1745C40.6948 31.3345 41.1159 31.7551 41.1159 32.2753ZM6.06381 10.026C6.00669 9.78124 6.04421 9.52812 6.18589 9.3198C7.19221 7.7014 8.42533 6.26108 9.85557 5.02012C10.2235 4.69924 10.8434 4.73676 11.1828 5.11364C11.3424 5.31132 11.4275 5.55548 11.409 5.80132C11.39 6.055 11.278 6.28068 11.0792 6.44084C9.79061 7.56028 8.67957 8.869 7.77629 10.3183C7.60717 10.591 7.30589 10.7601 6.97661 10.7601C6.80749 10.7601 6.62829 10.7041 6.48661 10.6095C6.27101 10.4779 6.12037 10.2712 6.06381 10.026ZM12.7261 4.04124C12.482 3.58876 12.6416 3.01532 13.094 2.76108C13.5454 2.51636 14.1289 2.695 14.3731 3.12788C14.6279 3.58876 14.4588 4.16332 14.0069 4.40804C13.8663 4.48364 13.7157 4.53012 13.5555 4.53012C13.2072 4.53012 12.8964 4.3414 12.7261 4.04124ZM16.1147 2.40324C16.0391 2.15852 16.0576 1.90428 16.1808 1.67804C16.3029 1.46188 16.5005 1.30172 16.7357 1.22668C18.5333 0.671718 20.4054 0.398438 22.2876 0.398438C25.8363 0.398438 29.3083 1.3958 32.3396 3.28692C36.8672 6.12108 39.9556 10.7024 40.9289 15.8791L42.0113 14.1487C42.2863 13.7074 42.8659 13.5724 43.3077 13.8496C43.7479 14.1252 43.8823 14.7064 43.6068 15.1466L41.1114 19.136C40.9854 19.3382 40.7861 19.4782 40.5587 19.5398C40.5369 19.5454 40.5156 19.5527 40.4932 19.5566C40.4781 19.56 40.4641 19.5656 40.4484 19.5678C40.4215 19.5723 40.3941 19.5723 40.3666 19.574C40.3565 19.5745 40.3476 19.5779 40.3381 19.5779H40.3129H40.2899C40.2574 19.5779 40.2266 19.5706 40.1953 19.5672C40.1757 19.565 40.1561 19.5644 40.137 19.5605C39.9214 19.5236 39.7299 19.4144 39.591 19.2542L36.1173 16.1826C35.7276 15.8393 35.6906 15.2435 36.0356 14.8548C36.3794 14.4656 36.9741 14.4304 37.3639 14.7731L39.0842 16.2935C38.2185 11.6018 35.4403 7.44492 31.3422 4.8874C28.6133 3.18444 25.488 2.28116 22.2881 2.28116C20.5947 2.28116 18.9097 2.52588 17.2823 3.02484C16.8013 3.17548 16.2552 2.88316 16.1147 2.40324Z" fill="currentColor" stroke="currentColor" stroke-width="0.5"/>
</svg>
