<svg id="svg-lock" viewBox="0 0 46 46" fill="none" xmlns="http://www.w3.org/2000/svg">
<path d="M16.5186 35.7382V31.7959C15.6026 31.2042 14.9955 30.1752 14.9955 29.0034C14.9955 27.1686 16.4832 25.6809 18.3179 25.6809C20.1531 25.6809 21.6404 27.1686 21.6404 29.0034C21.6404 30.178 21.0305 31.2091 20.1106 31.8001V35.7382C20.1106 36.7296 19.3066 37.534 18.3148 37.534C17.3226 37.534 16.5186 36.7299 16.5186 35.7382ZM46 30.53L43.4602 27.9902L36.9953 34.4554L30.53 27.9902L27.9902 30.53L34.4554 36.9953L27.9902 43.4602L30.53 46L36.9953 39.5348L43.4602 46L46 43.4602L39.5348 36.9953L46 30.53ZM21.8331 42.3827L25.4247 45.9744H5.38747C2.41701 45.9744 0 43.5577 0 40.5869V22.269C0 19.2982 2.41701 16.8811 5.38747 16.8811H8.61693V9.49747C8.61693 4.26056 12.9673 0 18.3148 0C23.6619 0 28.0123 4.26056 28.0123 9.49747V16.8811H31.2484C34.2189 16.8811 36.6359 19.2982 36.6359 22.269V29.0167L33.0443 25.4247V22.269C33.0443 21.2786 32.2385 20.4731 31.2484 20.4731H5.38747C4.39743 20.4731 3.59164 21.2786 3.59164 22.269V40.5869C3.59164 41.577 4.39743 42.3827 5.38747 42.3827H21.8331ZM12.2086 16.8811H24.4207V9.49747C24.4207 6.24098 21.6815 3.59164 18.3148 3.59164C14.9478 3.59164 12.2086 6.24098 12.2086 9.49747V16.8811Z" fill="currentColor"/>
</svg>
