<svg id="svg-phone" viewBox="0 0 15 14" fill="currentColor" xmlns="http://www.w3.org/2000/svg">
<path d="M5.08223 0.673273C4.87168 0.164679 4.3166 -0.106024 3.78613 0.0388978L1.37988 0.695148C0.904102 0.826398 0.573242 1.25843 0.573242 1.75062C0.573242 8.51546 6.0584 14.0006 12.8232 14.0006C13.3154 14.0006 13.7475 13.6698 13.8787 13.194L14.535 10.7877C14.6799 10.2573 14.4092 9.70218 13.9006 9.49163L11.2756 8.39788C10.8299 8.21194 10.3131 8.34046 10.0096 8.71507L8.90488 10.0631C6.97988 9.15257 5.42129 7.59398 4.51074 5.66898L5.85879 4.56702C6.2334 4.26077 6.36191 3.74671 6.17598 3.30101L5.08223 0.676007V0.673273Z" />
</svg>
