<svg id="svg-rows" viewBox="0 0 23 23" fill="none" xmlns="http://www.w3.org/2000/svg">
<path d="M0 2.83333C0 1.26853 1.26853 0 2.83333 0H20.1667C21.7315 0 23 1.26853 23 2.83333V2.83333C23 4.39814 21.7315 5.66667 20.1667 5.66667H2.83333C1.26853 5.66667 0 4.39814 0 2.83333V2.83333Z" fill="currentColor"/>
<path d="M2.83301 0.303711H20.167C21.5638 0.303887 22.6961 1.43621 22.6963 2.83301C22.6963 4.22996 21.5639 5.36311 20.167 5.36328H2.83301C1.4361 5.3631 0.303711 4.22996 0.303711 2.83301C0.303887 1.43621 1.43621 0.303887 2.83301 0.303711Z" stroke="url(#paint0_linear_4063_1996)" stroke-opacity="0.6" stroke-width="0.607469"/>
<path d="M0 11.5003C0 9.93552 1.26853 8.66699 2.83333 8.66699H20.1667C21.7315 8.66699 23 9.93552 23 11.5003C23 13.0651 21.7315 14.3337 20.1667 14.3337H2.83333C1.26853 14.3337 0 13.0651 0 11.5003Z" fill="currentColor"/>
<path d="M2.83301 8.9707H20.167C21.5638 8.97088 22.6961 10.1032 22.6963 11.5C22.6963 12.897 21.5639 14.0301 20.167 14.0303H2.83301C1.4361 14.0301 0.303711 12.897 0.303711 11.5C0.303887 10.1032 1.43621 8.97088 2.83301 8.9707Z" stroke="url(#paint1_linear_4063_1996)" stroke-opacity="0.6" stroke-width="0.607469"/>
<path d="M0 20.1663C0 18.6015 1.26853 17.333 2.83333 17.333H20.1667C21.7315 17.333 23 18.6015 23 20.1663C23 21.7311 21.7315 22.9997 20.1667 22.9997H2.83333C1.26853 22.9997 0 21.7311 0 20.1663Z" fill="currentColor"/>
<path d="M2.83301 17.6367H20.167C21.5638 17.6369 22.6961 18.7692 22.6963 20.166C22.6963 21.563 21.5639 22.6961 20.167 22.6963H2.83301C1.4361 22.6961 0.303711 21.563 0.303711 20.166C0.303887 18.7692 1.43621 17.6369 2.83301 17.6367Z" stroke="url(#paint2_linear_4063_1996)" stroke-opacity="0.6" stroke-width="0.607469"/>
<defs>
<linearGradient id="paint0_linear_4063_1996" x1="-7.02254e-08" y1="2.83334" x2="22.9999" y2="2.88352" gradientUnits="userSpaceOnUse">
<stop stop-color="#8C94AB" stop-opacity="0.5"/>
<stop offset="0.115531" stop-color="white"/>
<stop offset="0.878072" stop-color="white"/>
<stop offset="1" stop-color="#8C94AB" stop-opacity="0.5"/>
</linearGradient>
<linearGradient id="paint1_linear_4063_1996" x1="-7.02254e-08" y1="11.5003" x2="22.9999" y2="11.5505" gradientUnits="userSpaceOnUse">
<stop stop-color="#8C94AB" stop-opacity="0.5"/>
<stop offset="0.115531" stop-color="white"/>
<stop offset="0.878072" stop-color="white"/>
<stop offset="1" stop-color="#8C94AB" stop-opacity="0.5"/>
</linearGradient>
<linearGradient id="paint2_linear_4063_1996" x1="-7.02254e-08" y1="20.1663" x2="22.9999" y2="20.2165" gradientUnits="userSpaceOnUse">
<stop stop-color="#8C94AB" stop-opacity="0.5"/>
<stop offset="0.115531" stop-color="white"/>
<stop offset="0.878072" stop-color="white"/>
<stop offset="1" stop-color="#8C94AB" stop-opacity="0.5"/>
</linearGradient>
</defs>
</svg>
