<svg id="svg-sale" viewBox="0 0 40 40" fill="none" xmlns="http://www.w3.org/2000/svg">
<path d="M24.707 13.6271L32.4444 5.88972L34.1079 7.55325L26.3706 15.2906L24.707 13.6271Z" fill="currentColor"/>
<path d="M24.7059 5.88236H27.0588V8.2353H24.7059V5.88236Z" fill="currentColor"/>
<path d="M31.7647 12.9412H34.1176V15.2941H31.7647V12.9412Z" fill="currentColor"/>
<path d="M0 0V21.1765H40V0H0ZM37.6471 18.8235H2.35294V2.35294H37.6471V18.8235Z" fill="currentColor"/>
<path d="M8.23529 7.80589V14.1177H5.88235V16.4706H12.9412V14.1177H10.5882V4.70589H8.27992L5.12917 7.33153L6.63553 9.13906L8.23529 7.80589Z" fill="currentColor"/>
<path d="M18.8235 16.4706C20.7697 16.4706 22.3529 14.8874 22.3529 12.9412V8.2353C22.3529 6.28918 20.7697 4.70589 18.8235 4.70589C16.8773 4.70589 15.2941 6.28918 15.2941 8.2353V12.9412C15.2941 14.8874 16.8773 16.4706 18.8235 16.4706ZM17.6471 8.2353C17.6471 7.58659 18.1748 7.05883 18.8235 7.05883C19.4722 7.05883 20 7.58659 20 8.2353V12.9412C20 13.5899 19.4722 14.1177 18.8235 14.1177C18.1748 14.1177 17.6471 13.5899 17.6471 12.9412V8.2353Z" fill="currentColor"/>
<path d="M31.1122 24.4987L31.0649 24.5302L23.3798 30.8013C22.9691 29.3453 21.6256 28.2353 19.9835 28.2353H16.7483L14.3954 27.0588H7.05882V24.7059H0V40H24.8627C24.8749 39.9898 39.8515 27.4855 39.8602 27.4782L39.4351 26.6537C37.8651 23.609 33.9824 22.5852 31.1122 24.4987ZM4.70588 37.6471H2.35294V27.0588H4.70588V37.6471ZM24.0633 37.6471H7.05882V29.4118H13.8399L16.1929 30.5882H19.9835C20.6369 30.5882 21.1645 31.1194 21.1598 31.7729C21.1554 32.4171 20.6276 32.9412 19.9835 32.9412C19.3208 32.9412 14.7008 32.9412 14.1176 32.9412V35.2941H21.5956L32.4613 26.4277C33.8632 25.5242 35.7043 25.7687 36.8248 26.9887C36.816 26.996 24.0754 37.6369 24.0633 37.6471Z" fill="currentColor"/>
</svg>
