<svg id="svg-telegram-2" viewBox="0 0 16 14" fill="currentColor" xmlns="http://www.w3.org/2000/svg">
<path d="M1.09992 6.0833C5.39487 4.21205 8.25885 2.97841 9.69185 2.38238C13.7834 0.68058 14.6335 0.38496 15.1877 0.375095C15.3095 0.373052 15.582 0.403256 15.7586 0.546489C15.9076 0.667432 15.9486 0.830809 15.9683 0.945476C15.9879 1.06014 16.0123 1.32136 15.9929 1.52546C15.7712 3.85509 14.8118 9.50849 14.3237 12.1177C14.1172 13.2218 13.7105 13.592 13.3168 13.6282C12.4613 13.7069 11.8116 13.0628 10.9829 12.5196C9.68624 11.6696 8.95369 11.1404 7.69503 10.311C6.24042 9.35244 7.18338 8.8256 8.01236 7.96459C8.22931 7.73926 11.999 4.31046 12.0719 3.99941C12.0811 3.96051 12.0895 3.81551 12.0034 3.73894C11.9172 3.66237 11.7901 3.68855 11.6983 3.70938C11.5683 3.73889 9.4968 5.10807 5.48389 7.8169C4.89591 8.22065 4.36333 8.41737 3.88616 8.40707C3.36012 8.3957 2.34822 8.10963 1.59598 7.86511C0.673328 7.56519 -0.0599784 7.40662 0.00387615 6.89727C0.0371355 6.63197 0.402482 6.36064 1.09992 6.0833Z" />
</svg>
