<svg id="svg-whatsapp-2" viewBox="0 0 20 20" fill="currentColor" xmlns="http://www.w3.org/2000/svg">
<path d="M16.6479 3.26094C14.8709 1.47969 12.5044 0.5 9.98941 0.5C4.79834 0.5 0.574233 4.72411 0.574233 9.91518C0.574233 11.5734 1.00682 13.1935 1.82959 14.6228L0.493652 19.5L5.48539 18.1895C6.8595 18.9402 8.40749 19.3346 9.98517 19.3346H9.98941C15.1762 19.3346 19.4937 15.1105 19.4937 9.91942C19.4937 7.40446 18.4249 5.04219 16.6479 3.26094ZM9.98941 17.7484C8.58137 17.7484 7.20303 17.371 6.0028 16.6585L5.71865 16.4888L2.75838 17.265L3.54722 14.3768L3.36062 14.0799C2.57602 12.833 2.16463 11.3953 2.16463 9.91518C2.16463 5.60201 5.67624 2.0904 9.99365 2.0904C12.0845 2.0904 14.0481 2.90469 15.524 4.38482C16.9999 5.86496 17.9075 7.82857 17.9032 9.91942C17.9032 14.2368 14.3026 17.7484 9.98941 17.7484ZM14.2814 11.8873C14.0481 11.7685 12.8903 11.2002 12.674 11.1239C12.4577 11.0433 12.3008 11.0051 12.1439 11.2426C11.987 11.4801 11.5374 12.006 11.3974 12.1672C11.2617 12.3241 11.1218 12.3453 10.8885 12.2266C9.50593 11.5353 8.59834 10.9924 7.68651 9.42746C7.44477 9.01183 7.92825 9.04152 8.3778 8.14241C8.45414 7.98549 8.41597 7.84978 8.3566 7.73103C8.29722 7.61228 7.82646 6.45446 7.63138 5.98371C7.44053 5.52567 7.24544 5.58929 7.10124 5.5808C6.96553 5.57232 6.80861 5.57232 6.65169 5.57232C6.49477 5.57232 6.2403 5.6317 6.02401 5.86496C5.80771 6.10246 5.20124 6.67076 5.20124 7.82857C5.20124 8.98638 6.04521 10.106 6.15972 10.2629C6.27847 10.4199 7.81798 12.7949 10.1803 13.817C11.6731 14.4616 12.2584 14.5167 13.0048 14.4065C13.4586 14.3386 14.3959 13.8382 14.591 13.2868C14.7861 12.7355 14.7861 12.2647 14.7267 12.1672C14.6716 12.0612 14.5146 12.0018 14.2814 11.8873Z" />
</svg>
