<svg id="svg-calendar" viewBox="0 0 42 42" fill="none" xmlns="http://www.w3.org/2000/svg">
<path fill-rule="evenodd" clip-rule="evenodd" d="M8.12307 3.36441H11.0028V2.13244C11.0033 1.83225 11.1222 1.5445 11.3333 1.33223C11.5445 1.11997 11.8308 1.0005 12.1294 1H13.2701C13.5687 1.00052 13.855 1.12 14.0661 1.33226C14.2773 1.54452 14.3961 1.83225 14.3967 2.13244V3.36441H17.2764V2.13244C17.2769 1.83225 17.3957 1.54452 17.6069 1.33226C17.818 1.12 18.1043 1.00052 18.4029 1H19.5435C19.8422 1.00052 20.1284 1.12 20.3396 1.33226C20.5507 1.54452 20.6696 1.83225 20.6701 2.13244V3.36441H23.5498V2.13244C23.5503 1.83225 23.6691 1.5445 23.8803 1.33223C24.0914 1.11997 24.3777 1.0005 24.6763 1H25.8165C26.1151 1.00052 26.4013 1.12 26.6125 1.33226C26.8237 1.54452 26.9425 1.83225 26.943 2.13244V3.36441H29.8227V2.13244C29.8232 1.83225 29.9421 1.54452 30.1532 1.33226C30.3644 1.12 30.6506 1.00052 30.9493 1H32.09C32.3886 1.00052 32.6749 1.12 32.886 1.33226C33.0972 1.54452 33.216 1.83225 33.2165 2.13244V3.36441H34.5214C35.1639 3.36591 35.7797 3.62316 36.2341 4.0799C36.6885 4.53664 36.9444 5.15568 36.9459 5.80161V21.1148C42.0186 25.3345 42.3892 33.0253 37.7282 37.7108C33.1196 42.3439 25.5697 42.0403 21.3378 37.0666H3.42451C2.78194 37.0651 2.16613 36.8078 1.71176 36.3511C1.2574 35.8944 1.00149 35.2753 1 34.6294V5.80144C1.00149 5.15552 1.2574 4.53648 1.71176 4.07974C2.16613 3.623 2.78194 3.36574 3.42451 3.36425H4.72941V2.13244C4.72993 1.83225 4.84878 1.54452 5.05994 1.33226C5.27109 1.12 5.55733 1.00052 5.85595 1H6.99661C7.29523 1.00052 7.58147 1.12 7.79262 1.33226C8.00378 1.54452 8.12263 1.83225 8.12315 2.13244L8.12307 3.36441ZM33.4982 29.2376H29.8293C29.741 29.2375 29.654 29.2597 29.5763 29.3021C29.4986 29.3445 29.4328 29.4057 29.3847 29.4803L25.6011 35.353C25.5273 35.4716 25.5028 35.6146 25.5328 35.7512C25.5629 35.8877 25.6451 36.007 25.7618 36.0832C25.8785 36.1594 26.0203 36.1865 26.1567 36.1586C26.2931 36.1307 26.4131 36.05 26.4909 35.9341L30.1186 30.3036H33.4982C33.6354 30.2985 33.7653 30.2401 33.8605 30.1407C33.9558 30.0413 34.009 29.9086 34.009 29.7706C34.009 29.6326 33.9558 29.4999 33.8605 29.4005C33.7653 29.3011 33.6354 29.2427 33.4982 29.2376ZM39.9216 30.3056H38.7411C38.6712 30.3056 38.602 30.2918 38.5374 30.2649C38.4728 30.238 38.4142 30.1986 38.3647 30.1489C38.3153 30.0992 38.2761 30.0402 38.2493 29.9753C38.2226 29.9104 38.2088 29.8408 38.2088 29.7705C38.2088 29.7002 38.2226 29.6306 38.2493 29.5657C38.2761 29.5008 38.3153 29.4418 38.3647 29.3921C38.4142 29.3424 38.4728 29.303 38.5374 29.2761C38.602 29.2492 38.6712 29.2354 38.7411 29.2354H39.9216C39.79 26.7296 38.7406 24.3613 36.9755 22.587C35.2103 20.8127 32.8544 19.7578 30.3617 19.6255V20.8122C30.3617 20.9541 30.3056 21.0902 30.2057 21.1906C30.1059 21.2909 29.9705 21.3473 29.8293 21.3473C29.6881 21.3473 29.5527 21.2909 29.4529 21.1906C29.3531 21.0902 29.297 20.9541 29.297 20.8122V19.6255C26.8042 19.7578 24.4483 20.8127 22.6832 22.5871C20.9181 24.3615 19.8687 26.7297 19.7371 29.2355H20.9176C20.9875 29.2355 21.0567 29.2494 21.1213 29.2763C21.1859 29.3032 21.2446 29.3426 21.294 29.3923C21.3434 29.442 21.3827 29.501 21.4094 29.5659C21.4362 29.6308 21.4499 29.7004 21.4499 29.7707C21.4499 29.8409 21.4362 29.9105 21.4094 29.9754C21.3827 30.0404 21.3434 30.0994 21.294 30.149C21.2446 30.1987 21.1859 30.2382 21.1213 30.265C21.0567 30.2919 20.9875 30.3058 20.9176 30.3058H19.7371C19.8687 32.8116 20.9181 35.1798 22.6832 36.9542C24.4483 38.7285 26.8042 39.7835 29.297 39.9157V38.729C29.297 38.5871 29.3531 38.451 29.4529 38.3507C29.5527 38.2503 29.6881 38.1939 29.8293 38.1939C29.9705 38.1939 30.1059 38.2503 30.2057 38.3507C30.3056 38.451 30.3617 38.5871 30.3617 38.729V39.9157C32.8545 39.7835 35.2104 38.7285 36.9756 36.9542C38.7407 35.1798 39.7901 32.8115 39.9216 30.3056ZM35.8813 20.3307V9.91678H2.06482V34.6295C2.06622 34.9915 2.20992 35.3384 2.4646 35.5944C2.71929 35.8505 3.06432 35.9949 3.42451 35.9963H20.5315C19.1086 33.8484 18.4651 31.2734 18.7091 28.7044C18.9531 26.1355 20.0697 23.7295 21.8712 21.891C23.6727 20.0525 26.0491 18.8937 28.6006 18.6096C31.1522 18.3255 33.7232 18.9331 35.8813 20.3307ZM13.2003 27.6022C13.0591 27.6022 12.9237 27.6586 12.8239 27.7589C12.7241 27.8593 12.668 27.9954 12.668 28.1373V31.9796C12.668 32.0499 12.6817 32.1195 12.7085 32.1844C12.7352 32.2494 12.7745 32.3084 12.8239 32.3581C12.8733 32.4078 12.932 32.4472 12.9966 32.4741C13.0612 32.5009 13.1304 32.5148 13.2003 32.5148H17.0226C17.0925 32.5148 17.1617 32.501 17.2264 32.4741C17.291 32.4473 17.3497 32.4078 17.3992 32.3581C17.4486 32.3085 17.4879 32.2495 17.5147 32.1845C17.5414 32.1196 17.5552 32.0499 17.5552 31.9796V28.1373C17.5552 27.9954 17.4991 27.8593 17.3993 27.759C17.2994 27.6586 17.1641 27.6022 17.0229 27.6022H13.2003ZM16.4901 28.6724H13.7326V31.4445H16.4901V28.6724ZM5.47701 27.6022C5.33583 27.6022 5.20044 27.6586 5.10062 27.759C5.00079 27.8593 4.9447 27.9954 4.94468 28.1373V31.9796C4.94468 32.1216 5.00076 32.2577 5.10059 32.358C5.20043 32.4584 5.33583 32.5148 5.47701 32.5148H9.29924C9.44042 32.5148 9.57582 32.4584 9.67565 32.358C9.77548 32.2577 9.83157 32.1216 9.83157 31.9796V28.1373C9.83154 27.9954 9.77545 27.8593 9.67563 27.759C9.5758 27.6586 9.44041 27.6022 9.29924 27.6022H5.47701ZM8.76683 28.6724H6.00934V31.4445H8.76691L8.76683 28.6724ZM13.2002 20.2979C13.1303 20.2979 13.0611 20.3117 12.9965 20.3386C12.9319 20.3655 12.8732 20.4049 12.8238 20.4546C12.7744 20.5043 12.7352 20.5633 12.7084 20.6282C12.6817 20.6932 12.6679 20.7628 12.6679 20.833V24.6752C12.6679 24.7455 12.6817 24.8151 12.7084 24.88C12.7352 24.9449 12.7744 25.0039 12.8238 25.0536C12.8732 25.1033 12.9319 25.1427 12.9965 25.1696C13.0611 25.1965 13.1303 25.2103 13.2002 25.2103H17.0225C17.1637 25.2103 17.2991 25.1539 17.3989 25.0536C17.4987 24.9532 17.5548 24.8171 17.5548 24.6752V20.833C17.5548 20.6911 17.4987 20.555 17.3989 20.4547C17.2991 20.3543 17.1637 20.2979 17.0225 20.2979H13.2002ZM16.4901 21.3682H13.7325V24.1401H16.4901V21.3682ZM5.47701 20.2979C5.33583 20.2979 5.20043 20.3543 5.10059 20.4547C5.00076 20.555 4.94468 20.6911 4.94468 20.833V24.6752C4.94468 24.8171 5.00076 24.9532 5.10059 25.0536C5.20043 25.1539 5.33583 25.2103 5.47701 25.2103H9.29924C9.44042 25.2103 9.57582 25.1539 9.67565 25.0536C9.77548 24.9532 9.83157 24.8171 9.83157 24.6752V20.833C9.83157 20.6911 9.77548 20.555 9.67565 20.4547C9.57582 20.3543 9.44042 20.2979 9.29924 20.2979H5.47701ZM8.76683 21.3682H6.00934V24.1401H8.76691L8.76683 21.3682ZM28.6469 12.9936C28.5057 12.9936 28.3703 13.0499 28.2705 13.1503C28.1706 13.2506 28.1145 13.3867 28.1145 13.5287V17.3709C28.1146 17.5128 28.1707 17.6489 28.2705 17.7493C28.3703 17.8496 28.5057 17.906 28.6469 17.906H32.4691C32.6103 17.906 32.7457 17.8496 32.8455 17.7493C32.9453 17.6489 33.0014 17.5128 33.0014 17.3709V13.5287C33.0014 13.3867 32.9453 13.2506 32.8455 13.1503C32.7457 13.0499 32.6103 12.9936 32.4691 12.9936H28.6469ZM31.9367 14.0638H29.1791V16.8358H31.9367V14.0638ZM20.9236 12.9936C20.7824 12.9936 20.647 13.0499 20.5471 13.1503C20.4473 13.2506 20.3912 13.3867 20.3912 13.5287V17.3709C20.3912 17.5128 20.4473 17.6489 20.5472 17.7493C20.647 17.8496 20.7824 17.906 20.9236 17.906H24.7458C24.887 17.906 25.0223 17.8496 25.1222 17.7493C25.222 17.6489 25.2781 17.5128 25.2781 17.3709V13.5287C25.2781 13.3867 25.222 13.2506 25.1222 13.1503C25.0224 13.0499 24.887 12.9936 24.7458 12.9936H20.9236ZM24.2134 14.0638H21.4558V16.8358H24.2134V14.0638ZM13.2002 12.9936C13.1303 12.9935 13.0611 13.0074 12.9965 13.0343C12.9319 13.0612 12.8732 13.1006 12.8238 13.1503C12.7744 13.2 12.7352 13.2589 12.7084 13.3239C12.6817 13.3888 12.6679 13.4584 12.6679 13.5287V17.3709C12.6679 17.5128 12.724 17.6489 12.8238 17.7493C12.9237 17.8496 13.0591 17.906 13.2002 17.906H17.0225C17.1636 17.906 17.299 17.8496 17.3989 17.7493C17.4987 17.6489 17.5548 17.5128 17.5548 17.3709V13.5287C17.5548 13.3867 17.4987 13.2506 17.3989 13.1503C17.2991 13.0499 17.1637 12.9936 17.0225 12.9936H13.2002ZM16.4901 14.0638H13.7325V16.8358H16.4901V14.0638ZM5.47701 12.9936C5.33583 12.9936 5.20043 13.0499 5.10059 13.1503C5.00076 13.2506 4.94468 13.3867 4.94468 13.5287V17.3709C4.9447 17.5128 5.00079 17.6489 5.10062 17.7493C5.20044 17.8496 5.33583 17.906 5.47701 17.906H9.29924C9.44041 17.906 9.5758 17.8496 9.67563 17.7493C9.77545 17.6489 9.83154 17.5128 9.83157 17.3709V13.5287C9.83157 13.3867 9.77548 13.2506 9.67565 13.1503C9.57582 13.0499 9.44042 12.9936 9.29924 12.9936H5.47701ZM8.76683 14.0638H6.00934V16.8358H8.76691L8.76683 14.0638ZM29.823 4.43464H26.943V5.66662C26.9425 5.9668 26.8237 6.25455 26.6125 6.46682C26.4014 6.67908 26.1151 6.79855 25.8165 6.79905H24.6761C24.3775 6.79853 24.0912 6.67905 23.8801 6.46679C23.6689 6.25453 23.5501 5.9668 23.5495 5.66662V4.43464H20.6699V5.66662C20.6694 5.9668 20.5505 6.25453 20.3394 6.46679C20.1282 6.67905 19.842 6.79853 19.5434 6.79905H18.4027C18.1041 6.79853 17.8179 6.67905 17.6067 6.46679C17.3956 6.25453 17.2767 5.9668 17.2762 5.66662V4.43464H14.3965V5.66662C14.396 5.9668 14.2771 6.25455 14.066 6.46682C13.8548 6.67908 13.5686 6.79855 13.27 6.79905H12.1293C11.8307 6.79855 11.5444 6.67908 11.3333 6.46682C11.1221 6.25455 11.0033 5.9668 11.0028 5.66662V4.43464H8.12307V5.66662C8.12257 5.9668 8.00372 6.25455 7.79256 6.46682C7.5814 6.67908 7.29515 6.79855 6.99653 6.79905H5.85587C5.55725 6.79853 5.27101 6.67905 5.05986 6.46679C4.8487 6.25453 4.72985 5.9668 4.72933 5.66662V4.43464H3.42451C3.06433 4.43607 2.71932 4.58053 2.46463 4.83654C2.20995 5.09256 2.06624 5.43938 2.06482 5.80144V8.84679H35.8813V5.80144C35.8799 5.43937 35.7361 5.09253 35.4814 4.83652C35.2267 4.5805 34.8817 4.43605 34.5215 4.43464H33.2167V5.66662C33.2162 5.9668 33.0973 6.25453 32.8862 6.46679C32.675 6.67905 32.3888 6.79853 32.0902 6.79905H30.9495C30.6509 6.79853 30.3646 6.67905 30.1535 6.46679C29.9423 6.25453 29.8235 5.9668 29.823 5.66662V4.43464ZM32.0902 2.07023H30.9495C30.9332 2.07065 30.9177 2.07734 30.9062 2.08891C30.8947 2.10049 30.888 2.11607 30.8876 2.13244V5.66662C30.888 5.68298 30.8947 5.69856 30.9062 5.71014C30.9177 5.72172 30.9332 5.7284 30.9495 5.72882H32.0902C32.1065 5.72838 32.122 5.72169 32.1335 5.71011C32.145 5.69854 32.1516 5.68297 32.152 5.66662V2.13244C32.1516 2.11608 32.145 2.10051 32.1335 2.08894C32.122 2.07737 32.1065 2.07067 32.0902 2.07023ZM25.8165 2.07023H24.6761C24.6598 2.07067 24.6443 2.07737 24.6328 2.08894C24.6213 2.10051 24.6147 2.11608 24.6143 2.13244V5.66662C24.6147 5.68297 24.6213 5.69854 24.6328 5.71011C24.6443 5.72169 24.6598 5.72838 24.6761 5.72882H25.8165C25.8328 5.72838 25.8482 5.72169 25.8597 5.71011C25.8712 5.69854 25.8779 5.68297 25.8783 5.66662V2.13244C25.8779 2.11608 25.8712 2.10051 25.8597 2.08894C25.8482 2.07737 25.8328 2.07067 25.8165 2.07023ZM19.5431 2.07023H18.4027C18.3864 2.07065 18.3709 2.07734 18.3594 2.08891C18.3479 2.10049 18.3413 2.11607 18.3408 2.13244V5.66662C18.3413 5.68298 18.3479 5.69856 18.3594 5.71014C18.3709 5.72172 18.3864 5.7284 18.4027 5.72882H19.5434C19.5597 5.7284 19.5752 5.72172 19.5867 5.71014C19.5982 5.69856 19.6048 5.68298 19.6053 5.66662V2.13244C19.6048 2.11607 19.5982 2.10049 19.5867 2.08891C19.5752 2.07734 19.5593 2.07065 19.5431 2.07023ZM13.2697 2.07023H12.1293C12.113 2.07067 12.0976 2.07737 12.0861 2.08894C12.0746 2.10051 12.0679 2.11608 12.0675 2.13244V5.66662C12.0679 5.68297 12.0746 5.69854 12.0861 5.71011C12.0976 5.72169 12.113 5.72838 12.1293 5.72882H13.27C13.2863 5.7284 13.3018 5.72171 13.3133 5.71013C13.3248 5.69856 13.3314 5.68298 13.3318 5.66662V2.13244C13.3314 2.11608 13.3248 2.1005 13.3133 2.08892C13.3018 2.07734 13.286 2.07065 13.2697 2.07023ZM6.99628 2.07023H5.85587C5.8396 2.07065 5.8241 2.07734 5.8126 2.08892C5.8011 2.1005 5.79446 2.11608 5.79407 2.13244V5.66662C5.79446 5.68298 5.8011 5.69856 5.8126 5.71013C5.8241 5.72171 5.8396 5.7284 5.85587 5.72882H6.99661C7.01288 5.72838 7.02836 5.72169 7.03985 5.71011C7.05135 5.69854 7.05799 5.68297 7.05841 5.66662V2.13244C7.05799 2.11608 7.05135 2.10051 7.03985 2.08894C7.02836 2.07737 7.01255 2.07067 6.99628 2.07023Z" fill="currentColor" stroke="currentColor" stroke-width="0.6"/>
</svg>
