<svg id="svg-download" viewBox="0 0 8 8" fill="none" xmlns="http://www.w3.org/2000/svg">
<path d="M3.99159 0.304884C3.80958 0.304884 3.66197 0.452806 3.66197 0.635219V5.60018L2.35037 4.36149C2.22798 4.23054 1.99163 4.22663 1.8697 4.35812C1.74593 4.49152 1.79015 4.72048 1.89714 4.83983L3.76488 6.60155C3.82213 6.65554 3.91295 6.68795 3.9915 6.69102C4.07918 6.69102 4.15421 6.66184 4.21813 6.60155L6.08587 4.83983C6.19723 4.72531 6.23662 4.48822 6.11331 4.35812C5.99 4.22801 5.74529 4.24882 5.63263 4.36149L4.3212 5.60018V0.635023C4.3212 0.452616 4.17367 0.304688 3.99157 0.304688L3.99159 0.304884ZM1.79422 7.13141C1.61221 7.13141 1.4646 7.27925 1.4646 7.46174C1.4646 7.64415 1.6122 7.79208 1.79422 7.79208H6.18896C6.37098 7.79208 6.51859 7.64416 6.51859 7.46174C6.51859 7.27934 6.37098 7.13141 6.18896 7.13141H1.79422Z" fill="currentColor"/>
</svg>
