<svg id="svg-eco" viewBox="0 0 56 56" fill="none" xmlns="http://www.w3.org/2000/svg">
<path d="M33.5137 34.8883L42.5502 15.0254L44.1941 15.7733L35.1575 35.6362L33.5137 34.8883Z" fill="currentColor"/>
<path d="M40.6377 28.0102C40.6377 29.5042 41.8534 30.7199 43.3474 30.7199C44.8413 30.7199 46.0571 29.5042 46.0571 28.0102C46.0571 26.5163 44.8413 25.3005 43.3474 25.3005C41.8534 25.3005 40.6377 26.5163 40.6377 28.0102ZM44.2506 28.0102C44.2506 28.5079 43.8451 28.9134 43.3474 28.9134C42.8497 28.9134 42.4441 28.5079 42.4441 28.0102C42.4441 27.5125 42.8497 27.107 43.3474 27.107C43.8451 27.107 44.2506 27.5125 44.2506 28.0102Z" fill="currentColor"/>
<path d="M34.3288 25.2744C35.8228 25.2744 37.0385 24.0587 37.0385 22.5647C37.0385 21.0708 35.8228 19.855 34.3288 19.855C32.8349 19.855 31.6191 21.0708 31.6191 22.5647C31.6191 24.0587 32.8349 25.2744 34.3288 25.2744ZM34.3288 21.6615C34.8265 21.6615 35.232 22.067 35.232 22.5647C35.232 23.0624 34.8265 23.4679 34.3288 23.4679C33.8311 23.4679 33.4256 23.0624 33.4256 22.5647C33.4256 22.067 33.8311 21.6615 34.3288 21.6615Z" fill="currentColor"/>
<path d="M56 4.51613C56 2.02594 53.9741 0 51.4839 0H26.1935C23.7034 0 21.6774 2.02594 21.6774 4.51613C21.6774 6.01006 22.8932 7.22581 24.3871 7.22581H25.8341L25.3517 7.70542C24.164 8.88323 23.4839 10.519 23.4839 12.1917V27.0986H13.5484C12.0545 27.0986 10.8387 28.3143 10.8387 29.8083V31.6147C10.8387 32.3111 11.1106 32.9406 11.5432 33.4212C11.1097 33.9017 10.8387 34.5312 10.8387 35.2276V37.0341C10.8387 37.352 10.9037 37.6528 11.0049 37.9364H2.70968C1.21574 37.9364 0 39.1521 0 40.6461V42.4525C0 43.1489 0.271871 43.7785 0.704516 44.259C0.271871 44.7386 0 45.3681 0 46.0645V47.871C0 48.5674 0.271871 49.1969 0.704516 49.6774C0.271871 50.1579 0 50.7875 0 51.4839V53.2903C0 54.7843 1.21574 56 2.70968 56H13.5484H28H42.4516C43.9456 56 45.1613 54.7843 45.1613 53.2903V51.4839C45.1613 50.7875 44.8894 50.1579 44.4568 49.6774C44.8903 49.1969 45.1613 48.5674 45.1613 47.871V46.0645C45.1613 45.7466 45.0963 45.4449 44.9951 45.1613H47.871C51.3574 45.1613 54.1936 42.3243 54.1936 38.8387V12.1917C54.1936 10.519 53.5134 8.88413 52.3266 7.70542L51.8434 7.22581H53.2903C54.7843 7.22581 56 6.01006 56 4.51613ZM23.4839 4.51613C23.4839 3.02219 24.6996 1.80645 26.1935 1.80645H51.4839C52.9778 1.80645 54.1936 3.02219 54.1936 4.51613C54.1936 5.01381 53.788 5.41936 53.2903 5.41936H24.3871C23.8894 5.41936 23.4839 5.01381 23.4839 4.51613ZM12.6452 29.8074C12.6452 29.3097 13.0507 28.905 13.5484 28.905H14.4516V30.7106H16.2581V28.905H18.0645V30.7106H19.871V28.905H21.6774V30.7106H23.4839V28.905H28C28.4977 28.905 28.9032 29.3097 28.9032 29.8074V31.6138C28.9032 32.1124 28.4977 32.517 28 32.517H13.5484C13.0507 32.517 12.6452 32.1124 12.6452 31.6138V29.8074ZM28.9032 46.0645V47.871C28.9032 48.3696 28.4977 48.7742 28 48.7742H13.5484C13.0507 48.7742 12.6452 48.3696 12.6452 47.871V46.0645C12.6452 45.5659 13.0507 45.1613 13.5484 45.1613H14.4516V46.9677H16.2581V45.1613H18.0645V46.9677H19.871V45.1613H21.6774V46.9677H23.4839V45.1613H25.2903V46.9677H27.0968V45.1613H28C28.4977 45.1613 28.9032 45.5659 28.9032 46.0645ZM2.70968 48.7742C2.212 48.7742 1.80645 48.3696 1.80645 47.871V46.0645C1.80645 45.5659 2.212 45.1613 2.70968 45.1613H3.6129V46.9677H5.41936V45.1613H7.22581V46.9677H9.03226V45.1613H11.0049C10.9037 45.4449 10.8387 45.7466 10.8387 46.0645V47.871C10.8387 48.1889 10.9037 48.4906 11.0049 48.7742H2.70968ZM13.5484 43.3548C13.0507 43.3548 12.6452 42.9502 12.6452 42.4516V40.6452C12.6452 40.1475 13.0489 39.7446 13.5457 39.7428H13.5484H14.4516V41.5484H16.2581V39.7428H18.0645V41.5484H19.871V39.7428H21.6774V41.5484H23.4839V39.7428H25.2903V41.5484H27.0968V39.7428H28H28.0027C28.4995 39.7446 28.9032 40.1475 28.9032 40.6452V42.4516C28.9032 42.9502 28.4977 43.3548 28 43.3548H13.5484ZM12.6452 37.0332V35.2267C12.6452 34.7281 13.0507 34.3235 13.5484 34.3235H14.4516V36.1299H16.2581V34.3235H18.0645V36.1299H19.871V34.3235H21.6774V36.1299H23.4839V34.3235H28C28.4977 34.3235 28.9032 34.7281 28.9032 35.2267V37.0332C28.9032 37.5308 28.4995 37.9337 28.0027 37.9355C28.0018 37.9355 28.0009 37.9355 28 37.9355H13.5484H13.5439C13.048 37.9328 12.6452 37.5299 12.6452 37.0332ZM1.80645 40.6452C1.80645 40.1466 2.212 39.7419 2.70968 39.7419H3.6129V41.5484H5.41936V39.7419H7.22581V41.5484H9.03226V39.7419H11.0049C10.9037 40.0256 10.8387 40.3272 10.8387 40.6452V42.4516C10.8387 42.7696 10.9037 43.0712 11.0049 43.3548H2.70968C2.212 43.3548 1.80645 42.9502 1.80645 42.4516V40.6452ZM1.80645 53.2903V51.4839C1.80645 50.9853 2.212 50.5806 2.70968 50.5806H3.6129V52.3871H5.41936V50.5806H7.22581V52.3871H9.03226V50.5806H11.0049C10.9037 50.8643 10.8387 51.1659 10.8387 51.4839V53.2903C10.8387 53.6083 10.9037 53.9099 11.0049 54.1936H2.70968C2.212 54.1936 1.80645 53.7889 1.80645 53.2903ZM13.5484 54.1936C13.0507 54.1936 12.6452 53.7889 12.6452 53.2903V51.4839C12.6452 50.9853 13.0507 50.5806 13.5484 50.5806H14.4516V52.3871H16.2581V50.5806H18.0645V52.3871H19.871V50.5806H21.6774V52.3871H23.4839V50.5806H25.2903V52.3871H27.0968V50.5806H28C28.4977 50.5806 28.9032 50.9853 28.9032 51.4839V53.2903C28.9032 53.7889 28.4977 54.1936 28 54.1936H13.5484ZM43.3548 53.2903C43.3548 53.7889 42.9493 54.1936 42.4516 54.1936H30.5435C30.6446 53.9099 30.7097 53.6083 30.7097 53.2903V51.4839C30.7097 51.1659 30.6446 50.8643 30.5435 50.5806H32.5161V52.3871H34.3226V50.5806H36.129V52.3871H37.9355V50.5806H39.7419V52.3871H41.5484V50.5806H42.4516C42.9493 50.5806 43.3548 50.9853 43.3548 51.4839V53.2903ZM43.3548 46.0645V47.871C43.3548 48.3696 42.9493 48.7742 42.4516 48.7742H30.5435C30.6446 48.4906 30.7097 48.1889 30.7097 47.871V46.0645C30.7097 45.7466 30.6446 45.4449 30.5435 45.1613H32.5161V46.9677H34.3226V45.1613H36.129V46.9677H37.9355V45.1613H39.7419V46.9677H41.5484V45.1613H42.4516C42.9493 45.1613 43.3548 45.5659 43.3548 46.0645ZM51.053 8.9871C51.9012 9.8289 52.3871 10.9968 52.3871 12.1917V38.8387C52.3871 41.3289 50.3612 43.3548 47.871 43.3548H42.4516H40.6452H30.5435C30.6446 43.0712 30.7097 42.7696 30.7097 42.4516V40.6452C30.7097 39.9488 30.4387 39.3192 30.0052 38.8387C30.4378 38.3582 30.7097 37.7286 30.7097 37.0323V35.2258C30.7097 34.5294 30.4378 33.8999 30.0052 33.4194C30.4387 32.9388 30.7097 32.3093 30.7097 31.6129V29.8065C30.7097 28.3125 29.4939 27.0968 28 27.0968H25.2903V12.1917C25.2903 10.9968 25.7763 9.8289 26.6244 8.9871L28.3974 7.22581H49.28L51.053 8.9871Z" fill="currentColor"/>
<path d="M46.042 41.5562H47.8484C49.3424 41.5562 50.5581 40.3404 50.5581 38.8465V32.5239H48.7517V38.8465C48.7517 39.3451 48.3461 39.7497 47.8484 39.7497H46.042V41.5562Z" fill="currentColor"/>
<path d="M48.7793 28.9122H50.5857V30.7187H48.7793V28.9122Z" fill="currentColor"/>
</svg>
