<svg id="svg-equip" viewBox="0 0 32 32" fill="none" xmlns="http://www.w3.org/2000/svg">
<path fill-rule="evenodd" clip-rule="evenodd" d="M5.59957 0.535083C5.53896 0.552624 5.42208 0.609634 5.33983 0.657872C5.25758 0.706111 5.12771 0.824515 5.04978 0.916608C4.97619 1.01309 4.88095 1.17534 4.84199 1.28498C4.7987 1.399 4.75974 1.65773 4.75108 1.89892L4.73377 2.31553C4.48268 2.42517 4.31818 2.55234 4.20996 2.67075C4.10173 2.78915 3.97619 2.98649 3.92857 3.10489C3.85065 3.31539 3.84632 3.47765 3.84632 7.66565V12.0071C4.01515 12.4325 4.13203 12.6079 4.25325 12.7307C4.37879 12.8579 4.54762 12.9675 4.69913 13.0289L4.95022 13.1254C4.82035 13.3754 4.79437 13.5332 4.78571 13.8841L4.77706 14.3533C4.49134 14.4805 4.33117 14.5945 4.24026 14.6866C4.14502 14.7787 4.01948 14.9672 3.95887 15.0988L3.84632 15.34C3.82035 23.3827 3.829 23.8783 3.88961 24.1107C3.92857 24.2554 4.02814 24.4659 4.11039 24.5843C4.18831 24.6983 4.33983 24.8518 4.43939 24.9264C4.54329 24.9965 4.72078 25.0886 4.84199 25.1237C5.02814 25.1763 5.6948 25.1851 9.32251 25.1763C13.0801 25.1632 13.6082 25.1544 13.7597 25.093C13.9156 25.0316 13.9502 25.0316 14.1061 25.093C14.2576 25.1544 14.7771 25.1632 18.4134 25.1763C21.487 25.1851 22.6082 25.1763 22.7857 25.1369C22.9156 25.1106 23.1277 25.0185 23.2489 24.9395C23.3745 24.8562 23.5346 24.7071 23.6039 24.6062C23.6732 24.501 23.7597 24.308 23.7987 24.1765C23.8636 23.9616 23.868 23.4924 23.8593 19.6157L23.8463 15.2962C23.6948 14.9716 23.5606 14.7787 23.4437 14.6559C23.3312 14.5375 23.1797 14.4103 23.1017 14.384L22.9632 14.3314C22.9416 13.4938 22.9156 13.3271 22.8636 13.2219C22.79 13.0903 22.79 13.0816 22.8636 13.0552C22.9026 13.0377 23.0152 12.9895 23.1104 12.9456C23.2056 12.9018 23.3571 12.7921 23.4481 12.7C23.539 12.6079 23.6645 12.4238 23.7294 12.2922L23.8463 12.051V3.23645C23.6948 2.91194 23.5563 2.72776 23.4437 2.61374C23.3312 2.49533 23.1797 2.37693 23.1104 2.34623C22.9805 2.29361 22.9805 2.28922 22.9545 1.84192C22.9329 1.49109 22.9026 1.34637 22.8203 1.17534C22.7597 1.05255 22.6169 0.872754 22.5 0.767506C22.3831 0.662258 22.2186 0.561395 22.1364 0.535083C22.0455 0.513156 20.5216 0.5 18.3268 0.508771L14.6688 0.517541C14.4004 0.692955 14.2576 0.82013 14.1797 0.916608C14.1017 1.0087 14.0108 1.1885 13.9762 1.3069C13.9372 1.42969 13.9113 1.6972 13.9113 1.91208C13.9113 2.1752 13.8939 2.30238 13.8593 2.31992C13.829 2.33746 13.7597 2.33746 13.7078 2.31992C13.6169 2.29799 13.6082 2.26729 13.6082 1.98663C13.6082 1.81999 13.5866 1.57441 13.5606 1.44723C13.5346 1.32444 13.4654 1.14026 13.4048 1.04378C13.3442 0.947305 13.2143 0.802589 13.1147 0.728038C13.0195 0.649102 12.8593 0.56578 12.7641 0.539468C12.6602 0.513156 11.2532 0.5 9.14935 0.5C7.25758 0.5 5.66017 0.517542 5.59957 0.535083ZM5.79004 1.23674C5.83766 1.2192 7.3961 1.20604 12.6212 1.2192L12.7468 1.35953C12.8636 1.49547 12.8723 1.52617 12.8723 2.24975H5.44805L5.4697 1.88138C5.48701 1.57441 5.50866 1.49109 5.59524 1.39023C5.64719 1.32444 5.73809 1.25428 5.79004 1.23674ZM14.8506 1.26305C14.9545 1.21043 15.461 1.20166 21.9719 1.2192L22.0758 1.3376C22.171 1.44723 22.1797 1.49986 22.1797 2.24975H14.6472V1.877C14.6472 1.67089 14.6645 1.46478 14.6905 1.41654C14.7121 1.3683 14.7857 1.29813 14.8506 1.26305ZM27.2749 2.3857C27.1407 2.40762 26.9069 2.48218 26.7554 2.54796C26.6082 2.61374 26.3701 2.75845 26.2273 2.86809C26.0844 2.97772 25.9069 3.14436 25.8333 3.24084C25.7554 3.33293 25.6385 3.50835 25.5693 3.63114C25.5 3.74954 25.3961 3.97758 25.3355 4.13545L25.2316 4.4205L25.21 25.8429H3.82468C3.51732 26.1236 3.5 26.1674 3.5 26.3472C3.5 26.5226 3.52164 26.5709 3.63853 26.6805L3.78139 26.8077H6.42208C6.08009 27.2681 5.94589 27.4699 5.9026 27.5532C5.85931 27.6365 5.78139 27.8558 5.72944 28.0356C5.64719 28.3162 5.63853 28.439 5.65151 28.8469C5.6645 29.1758 5.70346 29.4213 5.76407 29.6143C5.81602 29.7722 5.92857 30.0265 6.01948 30.18C6.11039 30.3335 6.29654 30.5703 6.43074 30.7063C6.56493 30.8422 6.7987 31.0264 6.95022 31.1185C7.10173 31.2106 7.37879 31.3334 7.56926 31.3904C7.84632 31.4781 8.01082 31.5 8.37879 31.5C8.81602 31.5 8.87229 31.4912 9.26191 31.3334C9.51299 31.2369 9.79004 31.0878 9.9632 30.9518C10.1234 30.829 10.3442 30.6142 10.4567 30.4694C10.5736 30.3247 10.7165 30.0967 10.7814 29.9651C10.842 29.8336 10.9286 29.588 10.9762 29.417C11.0195 29.2459 11.0541 28.9784 11.0541 28.8118C11.0541 28.6495 11.0238 28.3732 10.9805 28.1978C10.9416 28.0268 10.868 27.7812 10.816 27.6628C10.7641 27.54 10.6212 27.312 10.4957 27.1454C10.3745 26.9831 10.2749 26.8428 10.2749 26.8296C10.2749 26.8165 12.6602 26.8077 15.5779 26.8077C18.4957 26.8077 20.881 26.8165 20.881 26.8296C20.881 26.8428 20.816 26.9349 20.7338 27.0357C20.6515 27.141 20.5303 27.3339 20.4567 27.4655C20.3874 27.597 20.2922 27.8163 20.2489 27.9479C20.184 28.1408 20.1667 28.3075 20.171 28.7811C20.1753 29.2679 20.1926 29.4213 20.2706 29.6582C20.3225 29.816 20.4004 30.0046 20.4394 30.0748C20.4784 30.1449 20.6039 30.3247 20.7121 30.4694C20.8247 30.6142 21.0195 30.8159 21.145 30.9167C21.2749 31.0176 21.5043 31.1579 21.6602 31.2325C21.816 31.307 22.0584 31.3948 22.2013 31.4342C22.3442 31.4693 22.6342 31.5 22.8506 31.5C23.1234 31.5 23.3312 31.4737 23.5433 31.4079C23.7121 31.3597 23.9632 31.2544 24.1061 31.1799C24.2619 31.0966 24.5043 30.8992 24.7121 30.6887C24.9848 30.4168 25.0974 30.2589 25.2273 29.9871C25.3312 29.7722 25.4177 29.5003 25.4524 29.2854C25.487 29.0924 25.513 28.8556 25.513 28.7592C25.513 28.6627 25.4827 28.4303 25.4481 28.2417C25.4134 28.0575 25.3225 27.7725 25.2446 27.6058C25.1667 27.4436 25.0238 27.2067 24.9199 27.0796C24.816 26.9568 24.7338 26.8428 24.7338 26.8296C24.7338 26.8165 24.9935 26.8077 25.3052 26.8077C25.6905 26.8033 25.9026 26.7858 25.9459 26.7507C25.9848 26.72 26.0498 26.6498 26.0887 26.5884C26.158 26.4832 26.1623 25.8648 26.1364 15.7785C26.1104 7.08679 26.1147 5.02129 26.1623 4.77133C26.1926 4.60468 26.2662 4.36349 26.3268 4.24508C26.3874 4.12229 26.526 3.93811 26.6342 3.82848C26.7424 3.71884 26.9199 3.5829 27.0281 3.53027C27.1364 3.47765 27.3312 3.41625 27.461 3.38994C27.5909 3.36363 27.803 3.34609 27.9242 3.34609C28.0714 3.34609 28.197 3.31978 28.2662 3.26715C28.3312 3.22768 28.4091 3.13998 28.4394 3.06981C28.474 3.00403 28.5 2.8944 28.5 2.81985C28.5 2.73214 28.4524 2.63566 28.3528 2.52164C28.2056 2.36377 28.197 2.35939 27.8636 2.35062C27.6775 2.34623 27.4134 2.36377 27.2749 2.3857ZM14.4307 3.08297C14.3831 2.99526 14.3874 2.99526 22.8203 3.01719L22.9372 3.12682C23.0022 3.18822 23.0844 3.30224 23.1147 3.37679C23.1667 3.49519 23.1753 4.25824 23.1753 7.68758C23.1753 11.7659 23.1753 11.858 23.0887 12.0291C23.0411 12.1255 22.9372 12.2483 22.7208 12.4018L18.5866 12.4106C16.3139 12.4194 14.4351 12.4106 14.4177 12.3887C14.3961 12.3711 14.4394 12.2878 14.5043 12.2045C14.5736 12.1212 14.6645 12.0028 14.7035 11.9414C14.7468 11.88 14.7771 11.7835 14.7771 11.7221C14.7771 11.6607 14.7381 11.5511 14.6905 11.4809C14.6126 11.3625 14.6039 11.2704 14.5996 9.5075L14.7381 9.77062C14.8117 9.91533 14.9502 10.139 15.21 10.4942L15.0152 10.7003C14.9069 10.8187 14.8074 10.9503 14.7944 10.9985C14.7814 11.0468 14.7987 11.152 14.8377 11.2266C14.881 11.3186 14.9502 11.38 15.0238 11.3976C15.0931 11.4107 15.184 11.4064 15.2316 11.38C15.2792 11.3581 15.4091 11.2572 15.7294 10.9766L15.9762 11.1783C16.1147 11.2879 16.3831 11.4546 16.5736 11.5467C16.7641 11.6388 17.1147 11.7703 17.3528 11.8361C17.7424 11.9457 17.855 11.9589 18.5 11.9589C19.1017 11.9589 19.2706 11.9457 19.5693 11.8624C19.7684 11.8098 20.0714 11.7002 20.2403 11.6168C20.4134 11.5335 20.6818 11.3713 20.8377 11.2529C20.9935 11.1345 21.145 11.0248 21.171 11.0073C21.2056 10.9897 21.3225 11.0643 21.4654 11.1959C21.5952 11.3143 21.7424 11.4151 21.79 11.4151C21.8377 11.4151 21.9329 11.3669 22.0065 11.3055C22.0974 11.2266 22.1364 11.1564 22.1364 11.0643C22.1364 10.9634 22.0801 10.8713 21.6818 10.4503L21.7944 10.3276C21.855 10.2618 21.9545 10.139 22.0152 10.0557C22.0758 9.97234 22.1926 9.76185 22.2749 9.5952C22.3615 9.42856 22.4784 9.13036 22.539 8.9374C22.5952 8.74445 22.6688 8.38046 22.6948 8.12611C22.7338 7.77529 22.7338 7.5604 22.6948 7.22712C22.6688 6.98592 22.5952 6.63071 22.539 6.43776C22.4784 6.2448 22.3528 5.93344 22.2619 5.74487C22.1667 5.56069 22.0065 5.29757 21.7035 4.92481L21.8983 4.72747C22.0065 4.61784 22.1061 4.48628 22.119 4.42927C22.132 4.37664 22.119 4.28017 22.0974 4.21C22.0714 4.14422 22.0065 4.06967 21.9502 4.04336C21.8983 4.01705 21.7987 4.00828 21.7251 4.02582C21.6515 4.04336 21.5216 4.13107 21.4307 4.22754C21.3355 4.33279 21.2489 4.38542 21.2143 4.36787C21.1883 4.35033 21.0541 4.25385 20.9242 4.15299C20.7944 4.05213 20.5606 3.90303 20.4048 3.81971C20.2489 3.73638 20.0065 3.62675 19.8636 3.57413C19.7208 3.5215 19.4784 3.44695 19.3225 3.41187C19.1494 3.3724 18.816 3.34609 18.4567 3.34609C17.9719 3.34609 17.7987 3.36363 17.4394 3.45572C17.2013 3.51712 16.8593 3.63991 16.6818 3.72761C16.5043 3.81532 16.197 4.01266 15.6429 4.44242L15.539 4.29771C15.4827 4.22316 15.3658 4.12229 15.2792 4.07844C15.158 4.02143 15.0931 4.01266 14.9935 4.04774C14.9199 4.06967 14.842 4.13107 14.8203 4.1793C14.7944 4.22754 14.7771 4.31525 14.7771 4.37664C14.7771 4.44681 14.8506 4.5696 15.1667 4.92481L14.9589 5.24056C14.8463 5.41597 14.7251 5.62647 14.6905 5.7054C14.6558 5.77995 14.6169 5.84573 14.6039 5.84573C14.5909 5.84573 14.5866 5.44667 14.5952 4.95551C14.6082 4.13545 14.6169 4.0609 14.7035 3.93811C14.7554 3.86356 14.7944 3.74516 14.7987 3.6706C14.7987 3.57413 14.7511 3.48203 14.6342 3.35047C14.5476 3.254 14.4524 3.13121 14.4307 3.08297ZM17.6991 4.08721C17.8896 4.04336 18.2143 4.00828 18.4221 4.00828C18.6342 4.00389 18.9632 4.03459 19.158 4.07406C19.3571 4.11352 19.6818 4.22316 19.8853 4.31963C20.0887 4.41611 20.3788 4.58276 20.816 4.88973L20.5996 5.10461L20.3182 4.90727C20.1623 4.80202 19.9199 4.66169 19.7771 4.59591C19.6342 4.53013 19.3615 4.44242 19.171 4.39419C18.9719 4.34595 18.6688 4.31086 18.4567 4.31086C18.2532 4.31086 17.9632 4.34156 17.8074 4.37664C17.6515 4.41611 17.4394 4.47751 17.3312 4.51698C17.2229 4.55644 17.0108 4.66608 16.855 4.75817C16.6991 4.85465 16.5216 4.97305 16.3398 5.12215L16.2489 5.03445C16.2013 4.98621 16.158 4.92043 16.1623 4.88973C16.1623 4.86342 16.2446 4.77571 16.3442 4.70116C16.4481 4.62661 16.7164 4.47751 16.9416 4.36349C17.1753 4.24947 17.5 4.12668 17.6991 4.08721ZM18.0238 5.0169C18.1537 4.99498 18.3528 4.97744 18.4654 4.97305C18.5823 4.97305 18.8247 4.99936 19.0065 5.03445C19.1926 5.07391 19.4784 5.17039 19.6472 5.24933C19.8117 5.33265 19.9848 5.43351 20.0238 5.48175C20.0887 5.5563 20.0887 5.56946 19.8853 5.80188L19.7857 5.70979C19.7338 5.66155 19.5736 5.56507 19.4307 5.49491C19.2879 5.42913 19.0671 5.35019 18.9416 5.32388C18.8203 5.29757 18.6039 5.27564 18.4654 5.27564C18.3312 5.27564 18.0974 5.30634 17.9459 5.34142C17.7987 5.3765 17.5952 5.45105 17.4913 5.49929C17.3918 5.55192 17.2446 5.63962 17.0281 5.80188L16.9199 5.70102C16.8636 5.64839 16.8247 5.59138 16.8333 5.56946C16.8463 5.55192 16.9589 5.47298 17.0801 5.39404C17.2056 5.31511 17.4177 5.20547 17.5476 5.15285C17.6775 5.10023 17.8939 5.03883 18.0238 5.0169ZM15.5433 5.54753C15.6039 5.47298 15.6645 5.4072 15.6818 5.4072C15.6948 5.40282 15.7424 5.4379 15.7857 5.48175C15.8593 5.5563 15.8593 5.56946 15.7511 5.7361C15.6861 5.83258 15.5823 6.02115 15.513 6.15271C15.4481 6.28427 15.3571 6.51231 15.3095 6.65702C15.2619 6.80174 15.2013 7.10871 15.1753 7.33675C15.1407 7.62618 15.1407 7.85861 15.171 8.10419C15.1926 8.29714 15.2532 8.58219 15.3052 8.74006C15.3528 8.89793 15.461 9.14351 15.5433 9.28823C15.6255 9.43295 15.7468 9.60397 15.9242 9.79254L15.7078 10.0206L15.5519 9.8057C15.4654 9.69168 15.3225 9.46803 15.2403 9.31016C15.158 9.15228 15.0455 8.88478 14.9892 8.71813C14.8983 8.44624 14.8853 8.33222 14.8853 7.68758C14.8853 7.04293 14.8983 6.92891 14.9892 6.65702C15.0455 6.49038 15.1667 6.20095 15.2619 6.02115C15.3571 5.84135 15.4827 5.62647 15.5433 5.54753ZM21.1147 5.49491C21.158 5.44667 21.2143 5.4072 21.2316 5.4072C21.2532 5.4072 21.3312 5.49052 21.4048 5.59138C21.4784 5.69663 21.6082 5.92029 21.6905 6.08693C21.7771 6.25357 21.881 6.51231 21.9286 6.65702C21.9848 6.84121 22.0195 7.10433 22.0325 7.53409C22.0541 8.00332 22.0411 8.22698 21.9892 8.47694C21.9502 8.6699 21.8333 8.98564 21.7078 9.24438C21.5866 9.48557 21.4264 9.75746 21.2056 10.0162L21.0152 9.81447L21.2013 9.55135C21.3052 9.40663 21.4221 9.21806 21.4654 9.13474C21.5087 9.05142 21.5779 8.86285 21.6255 8.71813C21.6688 8.57342 21.7251 8.27521 21.7554 8.06033C21.79 7.76213 21.79 7.57356 21.7511 7.2929C21.7251 7.08679 21.6602 6.79297 21.6082 6.6351C21.5563 6.47722 21.4654 6.26234 21.4004 6.15271C21.3355 6.04307 21.2273 5.87205 21.158 5.7668C21.0325 5.58261 21.0325 5.58261 21.1147 5.49491ZM17.9156 6.00799C18.0801 5.95098 18.2316 5.93344 18.5433 5.9466C18.8853 5.95975 18.9935 5.98168 19.1797 6.07816C19.3052 6.14394 19.4177 6.2141 19.4307 6.24042C19.4437 6.26673 19.4091 6.33689 19.2576 6.50792L19.0195 6.38513C18.8203 6.28427 18.7338 6.26234 18.4567 6.26234C18.197 6.26234 18.0801 6.28427 17.9113 6.36759C17.7944 6.4246 17.6645 6.45968 17.6212 6.44214C17.5823 6.42899 17.526 6.37636 17.5043 6.32812C17.4697 6.25357 17.4827 6.22726 17.5779 6.16148C17.6429 6.12201 17.7944 6.05185 17.9156 6.00799ZM16.2013 6.24919C16.2792 6.1264 16.3571 6.02115 16.3701 6.02115C16.3874 6.02115 16.4437 6.065 16.5909 6.21849L16.4437 6.43776C16.3615 6.55616 16.2576 6.77543 16.21 6.92014C16.1623 7.06486 16.1104 7.30167 16.0974 7.44638C16.0758 7.59987 16.0887 7.84545 16.119 8.03841C16.1494 8.21821 16.21 8.46378 16.2532 8.58657C16.2965 8.70498 16.3918 8.88916 16.5952 9.1786L16.3701 9.37594L16.2835 9.2663C16.2316 9.20491 16.1364 9.03826 16.0714 8.89355C16.0022 8.74883 15.9156 8.50325 15.8766 8.34538C15.8203 8.12611 15.8117 7.94193 15.829 7.55602C15.842 7.17449 15.8766 6.98154 15.9502 6.76666C16.0108 6.60878 16.119 6.37636 16.2013 6.24919ZM20.4524 6.12201C20.5 6.06939 20.5606 6.0343 20.5823 6.04308C20.6039 6.05623 20.6861 6.18779 20.7684 6.33689C20.8463 6.49038 20.9589 6.7535 21.0152 6.92014C21.0931 7.16572 21.1104 7.31921 21.1104 7.70951C21.1104 8.09103 21.0887 8.25329 21.0108 8.47694C20.9589 8.63481 20.8723 8.8497 20.816 8.95933C20.7641 9.06896 20.6775 9.20491 20.539 9.37594L20.3398 9.1786L20.4394 9.01634C20.4913 8.92425 20.5866 8.74006 20.6472 8.6085C20.7078 8.47694 20.7771 8.2489 20.803 8.10419C20.8247 7.95947 20.8377 7.68319 20.8247 7.49024C20.8117 7.28413 20.7597 7.03855 20.7078 6.89822C20.6558 6.76666 20.5563 6.55616 20.3571 6.21849L20.4524 6.12201ZM16.8723 6.99908C16.9416 6.84559 17.0238 6.7228 17.0541 6.7228C17.0887 6.7228 17.145 6.76666 17.1797 6.82367C17.2359 6.91137 17.2316 6.93769 17.145 7.09556C17.0671 7.24466 17.0498 7.34114 17.0498 7.68758C17.0498 8.05156 17.0671 8.12611 17.2662 8.47694L17.158 8.58657C17.1017 8.64358 17.0325 8.67867 17.0108 8.66113C16.9892 8.64358 16.9199 8.52079 16.8636 8.38923C16.7727 8.18751 16.7554 8.07788 16.7554 7.70951C16.7511 7.31921 16.7641 7.24027 16.8723 6.99908ZM19.7641 6.83244C19.816 6.77104 19.881 6.72719 19.9069 6.73596C19.9329 6.74473 19.9978 6.87191 20.0541 7.01224C20.1104 7.15695 20.1667 7.39815 20.1797 7.55602C20.1926 7.71389 20.1797 7.92877 20.1537 8.03841C20.1277 8.14804 20.0671 8.33661 19.9286 8.67428L19.6775 8.41116L19.7727 8.25767C19.8506 8.1305 19.8636 8.03841 19.8636 7.68758C19.8636 7.33237 19.8506 7.24904 19.6688 6.94207L19.7641 6.83244ZM18.1797 6.94207C18.1926 6.92014 18.3182 6.89822 18.461 6.89822C18.6039 6.89822 18.7294 6.92014 18.7381 6.94207C18.7511 6.96838 18.7035 7.04732 18.6299 7.11748C18.5606 7.19204 18.4913 7.24904 18.4784 7.24904C18.4697 7.24904 18.3918 7.19204 18.3052 7.11748C18.2229 7.04732 18.1667 6.96838 18.1797 6.94207ZM17.6515 7.5034C17.6688 7.43762 17.6948 7.38061 17.7121 7.38061C17.7294 7.38499 17.8117 7.45516 18.0455 7.69196L17.8853 7.85422C17.7987 7.94632 17.7164 8.00771 17.7035 7.99455C17.6905 7.98578 17.6645 7.89369 17.6515 7.79721C17.6385 7.70074 17.6385 7.56918 17.6515 7.5034ZM19.0628 7.52971C19.1407 7.45077 19.2229 7.39815 19.2489 7.40692C19.2706 7.42007 19.2879 7.52971 19.2835 7.64811C19.2835 7.76652 19.2706 7.89369 19.2576 7.92877C19.2403 7.9814 19.21 7.97263 19.0844 7.87615C18.9978 7.81037 18.9286 7.73582 18.9242 7.71389C18.9199 7.69196 18.9805 7.60864 19.0628 7.52971ZM18.2922 8.30153C18.3658 8.20505 18.4394 8.12611 18.4524 8.12611C18.4697 8.12611 18.5519 8.20066 18.6429 8.29276C18.7338 8.38046 18.7944 8.47256 18.7771 8.4901C18.7597 8.50764 18.6299 8.52518 18.4827 8.52518C18.3398 8.52518 18.2056 8.51641 18.1883 8.50325C18.171 8.4901 18.2186 8.398 18.2922 8.30153ZM17.6818 8.92425L17.9069 9.02949C18.0844 9.11282 18.2056 9.13474 18.4697 9.13474C18.7424 9.13474 18.8463 9.1172 19.2576 8.91109L19.474 9.13036L19.3225 9.22245C19.2403 9.27069 19.0758 9.34085 18.9545 9.38032C18.8377 9.4154 18.6082 9.4461 18.4481 9.44172C18.2576 9.44172 18.0758 9.41102 17.9286 9.35401C17.803 9.30577 17.6558 9.23561 17.5043 9.13474L17.5952 9.02949L17.6818 8.92425ZM17.0368 9.57766L17.1753 9.68291C17.2489 9.73992 17.4221 9.84078 17.5606 9.90218C17.6948 9.96357 17.9502 10.0337 18.1234 10.0601C18.2965 10.0864 18.5519 10.0951 18.6948 10.0776C18.8377 10.0644 19.0541 10.0206 19.171 9.9855C19.2922 9.94603 19.5043 9.84517 19.8939 9.59959L20.0801 9.80132L19.9719 9.88902C19.9156 9.94165 19.7597 10.0337 19.6255 10.0995C19.4957 10.1653 19.2619 10.253 19.1061 10.2925C18.9545 10.3319 18.6515 10.3626 18.4351 10.3626C18.184 10.3626 17.9459 10.3363 17.7641 10.2837C17.6126 10.2398 17.3874 10.1521 17.2662 10.0864C17.1494 10.025 17.0022 9.93288 16.8333 9.79254L16.9372 9.6873L17.0368 9.57766ZM20.3615 10.4328C20.4697 10.3495 20.5736 10.2793 20.5996 10.2749C20.6212 10.2749 20.6645 10.3232 20.6948 10.3846C20.7468 10.4898 20.7424 10.503 20.5043 10.6784C20.3658 10.7792 20.119 10.924 19.9502 11.0029C19.7857 11.0862 19.4827 11.1915 19.2792 11.2441C18.9675 11.323 18.829 11.3318 18.3485 11.3143C17.9589 11.2967 17.6948 11.2616 17.4827 11.2002C17.3182 11.1476 17.0541 11.0468 16.8983 10.9678C16.7424 10.8889 16.526 10.7617 16.4134 10.6828C16.2965 10.6038 16.2056 10.5117 16.2056 10.481C16.2056 10.4503 16.2273 10.4021 16.2576 10.3714C16.2879 10.3407 16.3398 10.3188 16.3788 10.3144C16.4134 10.3144 16.474 10.3451 16.5087 10.3846C16.5433 10.4284 16.6991 10.5293 16.855 10.617C17.0108 10.7047 17.2749 10.8231 17.4394 10.8801C17.6818 10.9634 17.8636 10.9897 18.3268 11.0073C18.829 11.0248 18.9632 11.0161 19.2792 10.9371C19.4827 10.8845 19.7641 10.7836 19.9069 10.7135C20.0498 10.6433 20.2532 10.5161 20.3615 10.4328ZM13.6948 13.0947C13.803 13.0684 13.9242 13.0465 13.9675 13.0421C14.0065 13.0377 14.0498 13.0552 14.0628 13.0816C14.0758 13.1035 14.0498 13.2 14.0108 13.2877C13.9675 13.3885 13.9286 13.621 13.8896 14.3314H13.6299L13.6039 13.8709C13.5909 13.6166 13.5519 13.3534 13.5216 13.2833C13.4913 13.2131 13.474 13.1517 13.4827 13.1473C13.4913 13.1429 13.5866 13.1166 13.6948 13.0947ZM5.75108 13.2789C5.85931 13.2219 6.39178 13.2131 9.18398 13.2131C12.0195 13.2131 12.5043 13.2219 12.6342 13.2789C12.7164 13.314 12.8074 13.3841 12.829 13.4324C12.855 13.4806 12.8723 13.6955 12.8723 14.3094L5.49134 14.2875L5.50433 13.9148C5.50866 13.7087 5.53896 13.4938 5.56926 13.4412C5.59957 13.3841 5.68182 13.314 5.75108 13.2789ZM14.8983 13.2789C14.9978 13.2219 15.5043 13.2175 21.9719 13.235L22.0758 13.3534C22.171 13.4631 22.1797 13.5157 22.1797 14.3094H14.6472V13.9586C14.6472 13.735 14.6688 13.5596 14.7121 13.4762C14.7468 13.4017 14.829 13.314 14.8983 13.2789ZM4.97186 15.0418C5.01948 15.0286 6.92424 15.0199 9.20563 15.0155C13.0671 15.0111 13.3571 15.0155 13.5043 15.0857C13.5909 15.1295 13.6991 15.2216 13.7424 15.2962C13.8203 15.4189 13.8203 15.6163 13.8247 19.7341C13.8247 23.9704 13.8247 24.0449 13.7381 24.1765C13.6905 24.2466 13.5952 24.3343 13.5216 24.3738C13.4091 24.4308 12.8377 24.4396 9.19264 24.4396C5.47403 24.4396 4.98052 24.4308 4.87662 24.3694C4.80736 24.3343 4.71212 24.2379 4.56061 24.023V19.756C4.56061 16.1776 4.56926 15.4716 4.62121 15.3707C4.65584 15.3049 4.72944 15.2084 4.78571 15.1558C4.84199 15.1032 4.92424 15.055 4.97186 15.0418ZM14.3874 15.033C14.3874 15.0199 16.2749 15.0155 18.5823 15.0199C22.7511 15.033 22.7814 15.033 22.9026 15.1207C22.9675 15.1734 23.0584 15.283 23.1017 15.3619C23.171 15.5023 23.1753 15.8049 23.1753 19.7253C23.1753 23.7423 23.171 23.9397 23.0974 24.0888C23.0498 24.1721 22.9502 24.2861 22.7208 24.4396H18.5563C16.2619 24.4396 14.3874 24.4264 14.3874 24.4177C14.3874 24.4045 14.4654 24.2993 14.5606 24.1852C14.6645 24.0625 14.7468 23.9177 14.7597 23.8256C14.7771 23.7029 14.7597 23.6371 14.5606 23.3652V21.4356L14.6861 21.6988C14.7511 21.8435 14.8983 22.0847 15.21 22.51L15.0108 22.7381C14.9026 22.8653 14.803 23.0187 14.79 23.0801C14.7771 23.1503 14.7987 23.2292 14.8506 23.2994C14.9113 23.374 14.9848 23.4134 15.0974 23.4178C15.2316 23.4266 15.2835 23.4003 15.7078 23.0012L15.881 23.1503C15.9762 23.2336 16.1797 23.3783 16.3355 23.466C16.4913 23.5581 16.7251 23.6722 16.855 23.7248C16.9848 23.7774 17.2489 23.8651 17.4394 23.9177C17.7294 23.9967 17.8983 24.0142 18.5 24.0142C19.1104 24.0142 19.2662 24.0011 19.5823 23.9134C19.7857 23.8563 20.0887 23.7423 20.2532 23.659C20.4221 23.5757 20.6429 23.4441 20.7511 23.374C20.8593 23.2994 21.0108 23.1854 21.2273 22.9924L21.4437 23.2117C21.5996 23.3696 21.6948 23.431 21.7814 23.431C21.8506 23.4266 21.9459 23.3783 22.0195 23.3082C22.0974 23.2292 22.1364 23.1459 22.1364 23.0582C22.1364 22.9573 22.0844 22.874 21.7035 22.51L21.8463 22.3259C21.9199 22.2206 22.0325 22.0671 22.0887 21.9838C22.145 21.9005 22.2446 21.7207 22.3095 21.5891C22.3745 21.4532 22.4784 21.1901 22.539 20.9971C22.5996 20.8041 22.6688 20.4358 22.6991 20.1858C22.7338 19.835 22.7338 19.6201 22.6948 19.2868C22.6688 19.0456 22.5996 18.6992 22.5476 18.5194C22.4957 18.3352 22.3831 18.0414 22.3009 17.8616C22.2186 17.6774 22.0498 17.3923 21.6948 16.9187L21.855 16.7872C21.9459 16.7126 22.0455 16.5986 22.0758 16.5328C22.1104 16.467 22.1234 16.3706 22.1104 16.3136C22.0931 16.2609 22.0498 16.182 22.0108 16.1381C21.9719 16.0943 21.8853 16.0592 21.8117 16.0592C21.7424 16.0592 21.6255 16.1031 21.5519 16.1601C21.4827 16.2127 21.3961 16.2916 21.3701 16.3355C21.3398 16.3793 21.2835 16.4013 21.2489 16.3925C21.2143 16.3793 21.0801 16.2916 20.9589 16.1995C20.8333 16.1074 20.6039 15.9627 20.4481 15.8794C20.2922 15.7961 20.0584 15.6864 19.9286 15.6382C19.7987 15.5856 19.5563 15.5066 19.3874 15.4628C19.1667 15.4058 18.9242 15.3839 18.4784 15.3839C17.9892 15.3839 17.803 15.4058 17.5043 15.4847C17.3009 15.5373 16.9416 15.6821 16.7035 15.8005C16.4654 15.9189 16.1407 16.1162 15.6861 16.4583L15.513 16.2829C15.4177 16.1864 15.2879 16.0943 15.2229 16.0811C15.1537 16.0636 15.0584 16.0636 15.0065 16.0811C14.9502 16.0943 14.8766 16.1513 14.8377 16.2039C14.7944 16.2741 14.7814 16.3442 14.7987 16.4363C14.816 16.5065 14.9156 16.6512 15.21 16.9407L15.0411 17.1687C14.9459 17.2959 14.7987 17.5371 14.5519 18.0151L14.5693 17.0634C14.5823 16.1513 14.5866 16.1074 14.6775 16.011C14.7424 15.9408 14.7771 15.8531 14.7771 15.7347C14.7814 15.6207 14.7554 15.533 14.7078 15.4935C14.6688 15.454 14.5779 15.3444 14.513 15.2391C14.4437 15.1383 14.3874 15.0418 14.3874 15.033ZM18.2403 16.046C18.3009 16.0329 18.487 16.0373 18.6515 16.046C18.8203 16.0592 19.0801 16.0943 19.2359 16.1294C19.3918 16.1601 19.6645 16.2522 19.842 16.3355C20.0195 16.4188 20.3139 16.5811 20.816 16.9056L20.6948 17.0196C20.6126 17.1029 20.5606 17.1248 20.5216 17.0941C20.487 17.0678 20.3485 16.9714 20.2056 16.8749C20.0671 16.774 19.8203 16.6425 19.6602 16.5767C19.4957 16.5109 19.184 16.4276 18.9675 16.3881C18.6948 16.3399 18.4697 16.3267 18.2619 16.3486C18.0974 16.3618 17.8506 16.4013 17.7208 16.432C17.5909 16.4627 17.3485 16.5504 17.1797 16.6293C17.0152 16.7038 16.7987 16.8223 16.7035 16.8836C16.6082 16.9494 16.4913 17.0371 16.4437 17.081C16.3615 17.1555 16.3528 17.1555 16.2619 17.0503C16.2056 16.9889 16.171 16.9187 16.184 16.8968C16.197 16.8705 16.3571 16.7521 16.5433 16.6293C16.7251 16.5065 17.0238 16.353 17.2013 16.2829C17.3788 16.2171 17.6645 16.1381 17.829 16.1118C17.9978 16.0855 18.1797 16.0548 18.2403 16.046ZM17.9805 17.0503C18.1494 17.0108 18.3788 16.9933 18.5563 17.0064C18.7164 17.0196 18.9589 17.0547 19.0974 17.0854C19.2316 17.1161 19.4697 17.2082 19.6255 17.2827C19.7814 17.3573 19.9502 17.4669 20.1017 17.6204L19.9069 17.8177L19.6905 17.673C19.5736 17.5941 19.3398 17.4801 19.171 17.4187C18.9329 17.3353 18.7814 17.3134 18.4567 17.3134C18.1926 17.3134 17.9632 17.3397 17.8074 17.388C17.6775 17.4274 17.4437 17.5414 17.2879 17.6423C17.0152 17.8177 17.0022 17.8221 16.9242 17.7432C16.881 17.6993 16.8593 17.6379 16.8723 17.6072C16.8853 17.5765 17.0022 17.4844 17.1277 17.4055C17.2489 17.3222 17.4307 17.2213 17.526 17.1818C17.6212 17.1468 17.8247 17.0854 17.9805 17.0503ZM21.1147 17.5108C21.158 17.4625 21.2143 17.423 21.2359 17.423C21.2532 17.423 21.3312 17.5064 21.4048 17.6072C21.4784 17.7125 21.6039 17.923 21.6818 18.0808C21.7597 18.2343 21.868 18.5106 21.9242 18.6948C22.0195 18.9886 22.0281 19.0982 22.0238 19.7692C22.0195 20.4358 22.0108 20.5454 21.9156 20.8217C21.8593 20.9883 21.7294 21.2734 21.6255 21.4576C21.526 21.6374 21.4004 21.8391 21.2489 22.032L21.0108 21.8522L21.158 21.6637C21.2403 21.5628 21.3701 21.3479 21.4481 21.1944C21.5216 21.0366 21.6169 20.7691 21.6602 20.6024C21.7035 20.4314 21.7511 20.1463 21.7684 19.9665C21.7857 19.7692 21.7771 19.4929 21.7468 19.2868C21.7208 19.0939 21.6688 18.8351 21.6299 18.7167C21.5909 18.5939 21.513 18.3966 21.4524 18.2782C21.3918 18.1554 21.2749 17.9537 21.1883 17.8265C21.0368 17.5985 21.0325 17.5941 21.1147 17.5108ZM15.5 17.673C15.5823 17.559 15.6645 17.4669 15.6775 17.4625C15.6948 17.4625 15.7424 17.4976 15.7814 17.5414C15.8463 17.616 15.8377 17.6423 15.6342 17.9931C15.513 18.1949 15.3701 18.4931 15.3182 18.6509C15.2662 18.8044 15.197 19.1202 15.1667 19.3526C15.119 19.6903 15.119 19.8394 15.1667 20.142C15.197 20.3437 15.2576 20.6331 15.3095 20.7778C15.3571 20.9225 15.4394 21.1287 15.4913 21.2383C15.5476 21.3435 15.6602 21.519 15.7468 21.6198C15.8333 21.7251 15.8939 21.8303 15.881 21.861C15.868 21.8917 15.8203 21.9399 15.7727 21.9706C15.6948 22.0189 15.6688 22.0057 15.539 21.8391C15.461 21.7382 15.3355 21.5453 15.2619 21.4137C15.1883 21.2778 15.0801 21.0234 15.0195 20.8436C14.9459 20.6331 14.8939 20.3568 14.8723 20.0762C14.8506 19.7999 14.8593 19.4885 14.8896 19.243C14.9156 19.0237 14.9719 18.7474 15.0152 18.629C15.0541 18.5062 15.1494 18.2913 15.2186 18.1466C15.2879 18.0019 15.4134 17.787 15.5 17.673ZM18.1104 17.9975C18.2186 17.9756 18.3831 17.9537 18.4784 17.9537C18.5736 17.9493 18.7511 17.9756 18.868 18.0063C18.9892 18.037 19.158 18.1072 19.2489 18.1598C19.3355 18.2124 19.4091 18.2782 19.4091 18.3089C19.4134 18.3396 19.3745 18.401 19.3225 18.4404C19.2403 18.515 19.2273 18.515 19.0541 18.4185C18.8983 18.3396 18.7987 18.322 18.4567 18.322C18.1147 18.322 18.0152 18.3396 17.6558 18.5238L17.5606 18.4229C17.4827 18.3396 17.474 18.3089 17.5173 18.265C17.5433 18.2299 17.6472 18.1686 17.7424 18.1203C17.8377 18.0765 18.0022 18.0195 18.1104 17.9975ZM16.2013 18.3089C16.2792 18.1817 16.3571 18.0808 16.3701 18.0765C16.3874 18.0765 16.4394 18.1159 16.487 18.1686C16.5649 18.2519 16.5693 18.2694 16.513 18.3571C16.4784 18.4097 16.3961 18.5501 16.3268 18.6729C16.2619 18.7913 16.1753 19.05 16.1364 19.243C16.0887 19.471 16.0714 19.699 16.0887 19.9008C16.1017 20.0674 16.1537 20.3349 16.2056 20.4928C16.2532 20.6463 16.3571 20.8743 16.5563 21.2164L16.3745 21.3918L16.2792 21.2734C16.2273 21.2076 16.132 21.0497 16.0671 20.9225C16.0022 20.7954 15.9156 20.5586 15.8766 20.4051C15.8247 20.1858 15.8117 19.9972 15.8247 19.6157C15.842 19.2298 15.8723 19.0456 15.9502 18.8264C16.0065 18.6685 16.119 18.4361 16.2013 18.3089ZM20.4394 18.1729C20.4784 18.1247 20.5303 18.0896 20.5519 18.094C20.5693 18.0984 20.6602 18.2212 20.7468 18.3659C20.8333 18.5106 20.9502 18.7737 21.0108 18.9579C21.0931 19.221 21.1147 19.3745 21.1104 19.7473C21.1104 20.1069 21.0887 20.2691 21.0108 20.4928C20.9589 20.6463 20.8723 20.8655 20.816 20.9752C20.7641 21.0804 20.6775 21.2208 20.5433 21.3918L20.4307 21.2821C20.3225 21.1725 20.3182 21.1681 20.3961 21.0848C20.4394 21.0366 20.5043 20.9445 20.5433 20.8875C20.5779 20.8261 20.6558 20.6594 20.7078 20.5147C20.7987 20.2867 20.8117 20.1727 20.8117 19.7034C20.8117 19.2035 20.7987 19.1289 20.6948 18.879C20.6299 18.7299 20.5303 18.5281 20.4697 18.4317C20.3658 18.2606 20.3658 18.2519 20.4394 18.1729ZM16.8723 19.0105C16.9416 18.8614 17.0065 18.7386 17.0238 18.7343C17.0368 18.7343 17.0931 18.7781 17.2489 18.936L17.1494 19.1114C17.0628 19.2605 17.0498 19.3438 17.0498 19.7253C17.0541 20.0893 17.0671 20.1946 17.1494 20.3481C17.2403 20.5279 17.2403 20.541 17.171 20.6243C17.1277 20.6726 17.0671 20.7121 17.0411 20.7121C17.0108 20.7121 16.9329 20.598 16.868 20.4577C16.7597 20.234 16.7511 20.1551 16.7511 19.7473C16.7511 19.3351 16.7641 19.2561 16.8723 19.0105ZM19.7684 18.879C19.8203 18.8264 19.8766 18.7825 19.8939 18.7825C19.9156 18.7825 19.9805 18.8965 20.0455 19.0325C20.132 19.2254 20.1623 19.3745 20.1797 19.6596C20.1926 19.9578 20.1797 20.0762 20.1104 20.2735C20.0584 20.4051 19.9848 20.5586 19.8636 20.7164L19.6688 20.4928L19.7684 20.3261C19.8506 20.1858 19.8636 20.1025 19.8636 19.7253C19.8636 19.3482 19.8506 19.2649 19.6732 18.9798L19.7684 18.879ZM18.2532 18.936C18.3052 18.9272 18.4351 18.9272 18.5433 18.936C18.6515 18.9448 18.7468 18.9623 18.7597 18.9755C18.7727 18.9886 18.7121 19.0675 18.4784 19.3044L18.3182 19.1596C18.2316 19.0851 18.158 19.0062 18.158 18.9886C18.158 18.9711 18.197 18.9448 18.2532 18.936ZM17.6515 19.5587C17.6688 19.4929 17.6948 19.4359 17.7121 19.4359C17.7294 19.4359 17.8117 19.5061 18.0455 19.7473L17.8853 19.9095C17.7987 19.9972 17.7121 20.063 17.6991 20.0499C17.6861 20.0367 17.6645 19.949 17.6515 19.8525C17.6342 19.756 17.6342 19.6245 17.6515 19.5587ZM19.0325 19.5806C19.1104 19.5061 19.197 19.4403 19.2273 19.4403C19.2619 19.4359 19.2792 19.5105 19.2792 19.6683C19.2792 19.7955 19.2619 19.9271 19.2403 19.9622C19.2056 20.0192 19.1797 20.0104 19.0758 19.9183C19.0108 19.8569 18.9416 19.7911 18.9242 19.7648C18.9069 19.7429 18.9545 19.6596 19.0325 19.5806ZM18.2835 20.3349C18.3658 20.2516 18.4437 20.1814 18.4567 20.1814C18.4697 20.1814 18.5563 20.2604 18.8247 20.5279L18.6515 20.5586C18.5563 20.5761 18.4091 20.5761 18.3268 20.5586C18.2446 20.5454 18.1667 20.5235 18.1537 20.5103C18.1407 20.4972 18.2013 20.4182 18.2835 20.3349ZM17.6818 20.9708L17.8636 21.0717C18.0152 21.1506 18.1147 21.1681 18.4567 21.1681C18.803 21.1681 18.8983 21.155 19.2576 20.9664L19.3442 21.0541C19.4091 21.1199 19.4177 21.155 19.3831 21.1988C19.3571 21.2295 19.2316 21.3041 19.1017 21.3655C18.8983 21.4619 18.8117 21.4751 18.4351 21.4707C18.0628 21.4707 17.9675 21.4532 17.7554 21.3523C17.6169 21.2865 17.5043 21.2164 17.5043 21.1901C17.5043 21.1681 17.5433 21.1067 17.5909 21.0585L17.6818 20.9708ZM19.6948 21.7602C19.79 21.69 19.8766 21.633 19.8896 21.633C19.9026 21.633 19.9459 21.6681 19.9892 21.7075C20.0325 21.7514 20.0671 21.804 20.0628 21.8259C20.0628 21.8522 20.0108 21.9136 19.9459 21.9619C19.8766 22.0145 19.7641 22.0847 19.6948 22.1241C19.6212 22.1592 19.4481 22.2338 19.3052 22.2864C19.119 22.3566 18.9069 22.3916 18.5693 22.4092C18.158 22.4311 18.0498 22.418 17.7684 22.3346C17.5909 22.2776 17.3571 22.1899 17.2489 22.1329C17.1407 22.0759 17.0065 21.9882 16.8377 21.8522L16.9372 21.7514C17.0195 21.6681 17.0455 21.6593 17.1104 21.7075C17.1493 21.7382 17.2706 21.8084 17.3788 21.8654C17.487 21.9224 17.6688 22.0057 17.79 22.0452C17.9372 22.0978 18.145 22.1197 18.461 22.1197C18.8463 22.1197 18.9589 22.1022 19.2186 22.0013C19.3831 21.9399 19.5996 21.8303 19.6948 21.7602ZM16.2706 22.4223C16.3139 22.3741 16.3658 22.3302 16.3788 22.3302C16.3918 22.3302 16.4351 22.3609 16.4697 22.4004C16.5043 22.4399 16.6602 22.5495 16.816 22.6416C16.9719 22.7337 17.2532 22.8609 17.4437 22.9267C17.7554 23.0363 17.8506 23.0494 18.4394 23.0494C18.9545 23.0538 19.145 23.0363 19.3701 22.9705C19.526 22.9223 19.7381 22.8433 19.8463 22.7951C19.9545 22.7469 20.119 22.6548 20.2143 22.5978C20.3095 22.5407 20.4307 22.453 20.487 22.4048C20.5866 22.3171 20.5909 22.3171 20.6732 22.4004C20.7208 22.4486 20.7597 22.4969 20.7597 22.5057C20.7597 22.5188 20.6558 22.6109 20.5303 22.7074C20.4048 22.8082 20.1797 22.953 20.0281 23.0275C19.881 23.1021 19.6082 23.2073 19.4221 23.2599C19.158 23.3345 18.9719 23.3564 18.5043 23.3564C18.0801 23.3564 17.829 23.3345 17.5952 23.2775C17.4177 23.2336 17.1061 23.1152 16.9069 23.0144C16.7035 22.9179 16.461 22.7644 16.3658 22.6767C16.1883 22.5188 16.1883 22.5144 16.2706 22.4223ZM4.83333 3.07858C4.97186 2.99526 5.05411 2.99088 9.20563 2.99088C12.6991 2.99088 13.461 3.00403 13.5563 3.05227C13.6255 3.08735 13.7165 3.17067 13.7641 3.24084C13.8506 3.36363 13.8506 3.43818 13.8506 7.67004C13.8506 11.9721 13.8506 11.9764 13.7597 12.0992C13.7078 12.1694 13.6039 12.2703 13.3745 12.4238L4.97186 12.3974L4.84632 12.2966C4.77273 12.2396 4.68182 12.1431 4.63853 12.0773C4.56926 11.9677 4.56494 11.6782 4.56494 7.69635C4.56494 3.99073 4.57359 3.41187 4.62987 3.29785C4.6645 3.22768 4.75974 3.12682 4.83333 3.07858ZM7.72511 27.0357C7.92857 26.948 8.02381 26.9349 8.37446 26.948C8.75108 26.9568 8.82035 26.9743 9.11039 27.119C9.32251 27.2243 9.50433 27.3558 9.63853 27.5006C9.75541 27.6234 9.91125 27.8602 9.98485 28.0224C10.119 28.2987 10.1277 28.3469 10.1277 28.7986C10.1277 29.2372 10.1147 29.3073 10.0065 29.5354C9.94156 29.6713 9.79437 29.8906 9.67749 30.0178C9.56061 30.1449 9.35281 30.3116 9.21429 30.3861C9.06277 30.4694 8.83333 30.5484 8.65584 30.5791C8.42208 30.6185 8.28355 30.6185 8.04978 30.5791C7.87662 30.5484 7.63853 30.4651 7.49134 30.3861C7.34848 30.3116 7.14502 30.1493 7.0368 30.0265C6.92857 29.9037 6.79004 29.7064 6.73377 29.588C6.67749 29.4696 6.61255 29.2635 6.59091 29.1275C6.56493 28.996 6.55628 28.7504 6.57359 28.5794C6.59091 28.382 6.63853 28.1803 6.72078 28.0093C6.78571 27.8645 6.92857 27.6497 7.03247 27.5356C7.14069 27.4172 7.28355 27.2813 7.35714 27.2287C7.42641 27.176 7.59524 27.0883 7.72511 27.0357ZM22.3139 26.9963C22.3961 26.9656 22.6169 26.9392 22.7987 26.9392C23.0411 26.9349 23.2056 26.9612 23.3831 27.0313C23.5216 27.084 23.7035 27.1673 23.7857 27.2243C23.868 27.2769 24.0195 27.4041 24.1234 27.5093C24.2273 27.619 24.3788 27.8426 24.461 28.0093C24.5649 28.2285 24.6169 28.4083 24.6342 28.6232C24.6558 28.8513 24.6429 29.0004 24.5866 29.1933C24.5476 29.338 24.461 29.5573 24.3918 29.6757C24.3268 29.7985 24.1667 29.9914 24.0368 30.1098C23.9113 30.2283 23.6991 30.3774 23.5693 30.4344C23.4394 30.4958 23.2143 30.5659 23.0714 30.5922C22.8766 30.6273 22.7338 30.6229 22.5087 30.5791C22.3398 30.5484 22.0974 30.4651 21.9675 30.3949C21.8377 30.3291 21.6558 30.1976 21.5693 30.1055C21.4827 30.0134 21.3442 29.8336 21.2662 29.6976C21.171 29.5441 21.1017 29.3424 21.0584 29.1275C21.0108 28.8556 21.0065 28.746 21.0541 28.4697C21.0844 28.2899 21.1623 28.0443 21.2273 27.9259C21.2879 27.8032 21.4264 27.6146 21.5346 27.505C21.6429 27.3953 21.8247 27.2462 21.9459 27.1761C22.0628 27.1059 22.2316 27.0226 22.3139 26.9963ZM8.95887 1.52179C8.89827 1.56125 8.87229 1.63142 8.87229 1.73667C8.87229 1.84192 8.90115 1.91647 8.95887 1.96032C9.00649 1.9954 9.08442 2.0261 9.13203 2.0261C9.17965 2.03049 9.27056 1.99102 9.3355 1.94278C9.40476 1.89015 9.45671 1.81122 9.45671 1.75421C9.45671 1.6972 9.42641 1.60949 9.39177 1.55687C9.34416 1.4867 9.28355 1.45601 9.18398 1.45601C9.10606 1.45601 9.00649 1.4867 8.95887 1.52179ZM9.99784 1.53056C9.95022 1.58318 9.92857 1.66212 9.94156 1.76298C9.95022 1.87261 9.98485 1.93401 10.0714 1.98225C10.158 2.03487 10.2143 2.03926 10.3095 2.00417C10.3788 1.97786 10.4481 1.9077 10.474 1.83753C10.5043 1.74544 10.5 1.68843 10.4524 1.59634C10.4004 1.50863 10.3442 1.47793 10.2273 1.46478C10.1234 1.45601 10.0498 1.47793 9.99784 1.53056ZM11.0368 1.53933C10.9892 1.58318 10.9589 1.67527 10.9632 1.74544C10.9675 1.8156 11.0022 1.9077 11.0455 1.95155C11.0887 1.99102 11.1753 2.0261 11.2403 2.0261C11.3095 2.0261 11.4004 1.98663 11.4481 1.93839C11.4957 1.89015 11.5346 1.79806 11.5346 1.73228C11.5346 1.6665 11.5043 1.57879 11.461 1.53494C11.4177 1.49547 11.3225 1.46039 11.2489 1.46039C11.1753 1.45601 11.0801 1.49547 11.0368 1.53933ZM12.0325 1.53933C11.9892 1.58318 11.9545 1.67089 11.9589 1.73667C11.9632 1.79806 12.0065 1.89015 12.0541 1.93839C12.1017 1.98663 12.1926 2.03049 12.2576 2.03049C12.3268 2.03049 12.4134 1.9954 12.4524 1.95155C12.4957 1.9077 12.5303 1.8156 12.5303 1.74105C12.5303 1.67089 12.5 1.57879 12.4567 1.53494C12.4134 1.49547 12.3182 1.46039 12.2446 1.46039C12.171 1.45601 12.0758 1.49547 12.0325 1.53933ZM18.1147 1.57879C18.0584 1.65773 18.0368 1.73228 18.0541 1.78491C18.0671 1.83314 18.1147 1.9077 18.1537 1.95155C18.1926 1.9954 18.2706 2.03049 18.3312 2.03049C18.3918 2.03049 18.4827 1.99979 18.5346 1.96032C18.6039 1.91647 18.6342 1.85069 18.6342 1.75421C18.6342 1.67089 18.6039 1.57879 18.5606 1.53494C18.5173 1.49547 18.4221 1.46039 18.3442 1.46039C18.2446 1.45601 18.184 1.49109 18.1147 1.57879ZM19.171 1.55687C19.132 1.60949 19.1017 1.6972 19.1061 1.75421C19.1061 1.80683 19.1494 1.89015 19.197 1.93839C19.2446 1.98663 19.3355 2.0261 19.4004 2.03049C19.4697 2.03049 19.5606 1.98663 19.6169 1.92962C19.6688 1.877 19.7165 1.78929 19.7165 1.74105C19.7165 1.69281 19.6861 1.60949 19.6515 1.55687C19.6039 1.48232 19.5433 1.45601 19.4134 1.45601C19.2879 1.45601 19.2273 1.48232 19.171 1.55687ZM20.2576 1.53933C20.21 1.58318 20.1797 1.67527 20.184 1.74544C20.1883 1.8156 20.2229 1.9077 20.2662 1.95155C20.3095 1.99102 20.3918 2.0261 20.4524 2.0261C20.513 2.0261 20.6039 1.99979 20.6558 1.96032C20.7251 1.91647 20.7554 1.85069 20.7554 1.75421C20.7554 1.67089 20.7251 1.57879 20.6818 1.53494C20.6385 1.49547 20.5433 1.46039 20.4697 1.46039C20.3961 1.45601 20.3009 1.49547 20.2576 1.53933ZM21.2922 1.55687C21.2532 1.60949 21.2229 1.69281 21.2273 1.74105C21.2273 1.78929 21.2749 1.87261 21.3268 1.92962C21.3831 1.98225 21.4784 2.0261 21.5433 2.0261C21.6126 2.0261 21.7035 1.98663 21.7511 1.93839C21.7987 1.89015 21.8377 1.80683 21.8377 1.75421C21.8377 1.6972 21.8074 1.60949 21.7727 1.55687C21.7251 1.48232 21.6645 1.45601 21.5346 1.45601C21.4091 1.45601 21.3485 1.48232 21.2922 1.55687ZM22.3745 3.32855C22.3225 3.3417 22.2489 3.41187 22.2056 3.49081C22.158 3.57851 22.1407 3.67499 22.1537 3.75831C22.1667 3.83286 22.2273 3.92495 22.2879 3.96881C22.3485 4.00828 22.4524 4.04336 22.513 4.04336C22.5779 4.04336 22.6732 3.99073 22.7511 3.9118C22.8506 3.80655 22.8723 3.75393 22.855 3.63991C22.842 3.56097 22.7987 3.46449 22.7554 3.42502C22.7164 3.38117 22.6342 3.3417 22.5736 3.32855C22.513 3.31978 22.4221 3.31978 22.3745 3.32855ZM4.95455 3.46011C4.9026 3.5215 4.85931 3.60921 4.86364 3.65745C4.86364 3.7013 4.88961 3.78024 4.91991 3.83725C4.94589 3.88987 4.99784 3.96004 5.0368 3.99073C5.07576 4.01705 5.16234 4.04336 5.23593 4.04336C5.3052 4.04336 5.3961 4.01705 5.43506 3.99073C5.47403 3.96004 5.52597 3.88987 5.55195 3.83725C5.58225 3.78024 5.6039 3.69253 5.6039 3.63991C5.6039 3.5829 5.56494 3.49519 5.51732 3.44257C5.45238 3.36802 5.38312 3.3417 5.24026 3.3417C5.08442 3.3417 5.02814 3.36363 4.95455 3.46011ZM8.26623 3.45134C8.04978 3.50396 7.7381 3.61359 7.57359 3.69253C7.40476 3.76708 7.15368 3.9118 7.01082 4.00828C6.86797 4.10914 6.69048 4.24508 6.62121 4.31525L6.49134 4.43804C6.15368 4.07844 6.0974 4.04336 5.95887 4.04336C5.84632 4.04336 5.7684 4.07406 5.70346 4.14422C5.64719 4.19685 5.6039 4.29771 5.6039 4.36349C5.6039 4.44681 5.6645 4.55206 5.7987 4.70116C5.91558 4.83272 5.98052 4.94235 5.9632 4.97744C5.94589 5.00813 5.85498 5.13092 5.76407 5.24933C5.66883 5.37212 5.51732 5.62647 5.42641 5.81942C5.3355 6.01238 5.20996 6.38075 5.14935 6.63071C5.06277 7.00347 5.04113 7.20081 5.04113 7.66127C5.04113 8.08226 5.06277 8.33222 5.12771 8.60412C5.17532 8.81023 5.25758 9.0865 5.30519 9.21806C5.35281 9.35401 5.4697 9.59959 5.56493 9.76623C5.65584 9.93726 5.7987 10.1565 5.87662 10.2618L6.01515 10.446C5.72944 10.7529 5.6342 10.8845 5.62121 10.9415C5.6039 10.9941 5.6039 11.095 5.62121 11.1608C5.6342 11.2266 5.69048 11.3099 5.74242 11.3493C5.80303 11.3932 5.88528 11.4107 5.95887 11.3932C6.02814 11.38 6.17532 11.2792 6.29654 11.1695L6.51299 10.9722C6.9329 11.2879 7.22727 11.4634 7.44372 11.5686C7.65584 11.6695 7.99784 11.7966 8.2013 11.8537C8.51732 11.9414 8.66883 11.9545 9.30519 11.9545C9.95455 11.9545 10.0801 11.9414 10.3658 11.8537C10.5433 11.7966 10.816 11.6958 10.9719 11.6212C11.1277 11.5511 11.3788 11.4107 11.5346 11.3011C11.6905 11.1959 11.855 11.0731 11.9026 11.0204L11.9892 10.9327C12.3442 11.3055 12.4827 11.4107 12.5303 11.4107C12.5779 11.4107 12.6732 11.3844 12.7468 11.345C12.816 11.3099 12.8896 11.2353 12.9026 11.1827C12.9156 11.1257 12.9156 11.0424 12.9026 10.9941C12.8896 10.9459 12.7814 10.8099 12.6558 10.6872L12.4351 10.4679C12.6385 10.2311 12.79 10.003 12.9069 9.81009C13.0238 9.61713 13.1797 9.27507 13.2532 9.04265C13.3312 8.80146 13.4091 8.43747 13.4394 8.16558C13.4827 7.8016 13.4827 7.60864 13.4394 7.24466C13.4091 6.99469 13.3355 6.62633 13.2749 6.43337C13.2186 6.24042 13.0844 5.9159 12.9805 5.70979C12.8766 5.50806 12.7251 5.25371 12.6385 5.15285C12.5563 5.0476 12.487 4.95551 12.487 4.94235C12.487 4.93358 12.5736 4.82395 12.6818 4.70116C12.79 4.58276 12.8766 4.44242 12.8766 4.39419C12.8766 4.34595 12.855 4.25824 12.8333 4.19685C12.8074 4.13545 12.7338 4.06967 12.6602 4.04336C12.5736 4.01412 12.4942 4.01412 12.4221 4.04336C12.3615 4.06967 12.2446 4.15738 12.1623 4.2407L12.0108 4.39419C11.6255 4.10037 11.3874 3.9425 11.2316 3.85479C11.0758 3.77147 10.842 3.65745 10.7121 3.60482C10.5823 3.5522 10.3182 3.47326 10.1277 3.42502C9.88528 3.36802 9.61688 3.34609 9.21861 3.34609C8.77273 3.34609 8.57359 3.36802 8.26623 3.45134ZM8.52597 4.08721C8.71645 4.04336 9.03247 4.00828 9.22727 4.00389C9.43939 4.00389 9.75108 4.03897 9.98485 4.0916C10.2056 4.13984 10.5346 4.24947 10.7121 4.33718C10.8896 4.4205 11.1494 4.57399 11.2879 4.67485C11.4264 4.77571 11.539 4.8678 11.539 4.87657C11.5346 4.88973 11.487 4.95112 11.3225 5.11777L11.1537 4.96428C11.0584 4.88096 10.8377 4.74063 10.6645 4.64854C10.487 4.56083 10.1797 4.44681 9.97619 4.39857C9.75108 4.34156 9.46104 4.30648 9.22727 4.30648C9.01948 4.30648 8.72078 4.34156 8.55628 4.38103C8.3961 4.4205 8.11039 4.52575 7.91991 4.61345C7.72944 4.70116 7.48268 4.85026 7.3658 4.93797C7.25325 5.02568 7.14935 5.09584 7.12771 5.09584C7.11039 5.09584 7.06277 5.05199 7.02381 4.99936C6.95022 4.90289 6.95455 4.8985 7.11039 4.76694C7.19697 4.69239 7.38745 4.56083 7.5303 4.47312C7.67316 4.38542 7.87662 4.28017 7.98485 4.2407C8.09307 4.19685 8.3355 4.13107 8.52597 4.08721ZM8.81602 5.0169C8.94156 4.99498 9.13636 4.97305 9.24892 4.97305C9.3658 4.96867 9.59957 4.99498 9.7684 5.02568C9.94156 5.06076 10.21 5.14847 10.3658 5.22302C10.5216 5.29318 10.6905 5.40282 10.7468 5.45544C10.8377 5.54753 10.842 5.56946 10.79 5.65716C10.7597 5.70979 10.7208 5.75364 10.6991 5.75364C10.6818 5.75364 10.539 5.67471 10.3745 5.57823C10.2056 5.47737 9.9632 5.3765 9.79004 5.33703C9.62987 5.30195 9.3961 5.27125 9.27056 5.27125C9.14935 5.27125 8.92857 5.29318 8.78571 5.31949C8.64286 5.34581 8.42641 5.42036 8.30952 5.48175C8.18831 5.53876 8.02814 5.63524 7.95022 5.69225C7.81169 5.7975 7.81169 5.7975 7.73377 5.70979C7.69048 5.65716 7.67316 5.59577 7.69048 5.5563C7.71212 5.52122 7.81602 5.43351 7.92857 5.35896C8.04545 5.28441 8.24026 5.18793 8.36147 5.13969C8.48701 5.09146 8.69481 5.03445 8.81602 5.0169ZM6.48701 5.35458L6.6645 5.53876L6.56494 5.70102C6.50866 5.79311 6.39177 6.02115 6.30087 6.2141C6.20996 6.40706 6.0974 6.71403 6.05411 6.89383C5.99784 7.12187 5.97186 7.37183 5.97619 7.70512C5.97619 8.0691 6.00216 8.27522 6.07576 8.53834C6.13203 8.73129 6.23593 9.01634 6.30952 9.16983C6.38745 9.3277 6.50866 9.52504 6.72511 9.76623L6.62987 9.8671C6.57792 9.91972 6.52597 9.96357 6.51299 9.96796C6.5 9.96796 6.40476 9.84517 6.29654 9.69168C6.19264 9.54258 6.04545 9.27946 5.96753 9.10843C5.89394 8.94179 5.79437 8.65674 5.75108 8.47256C5.69913 8.25329 5.67316 7.99017 5.67316 7.66127C5.67749 7.3236 5.70779 7.06047 5.77273 6.7842C5.82468 6.56932 5.93723 6.25357 6.01948 6.08254C6.10606 5.9159 6.24459 5.68348 6.33117 5.56507L6.48701 5.35458ZM11.8896 5.50368C11.9416 5.45105 11.9935 5.4072 12.0065 5.4072C12.0195 5.4072 12.1017 5.52122 12.1926 5.65716C12.2792 5.7975 12.4048 6.01676 12.4654 6.15271C12.5303 6.28427 12.6169 6.49915 12.6602 6.6351C12.7035 6.76666 12.7554 7.06047 12.7814 7.2929C12.816 7.59549 12.816 7.82352 12.7814 8.12611C12.7554 8.35415 12.6905 8.6699 12.6385 8.82777C12.5909 8.98126 12.4654 9.25753 12.3658 9.44172C12.2619 9.62152 12.132 9.82763 11.9762 10.0337L11.881 9.94603C11.829 9.89779 11.79 9.84078 11.79 9.82324C11.79 9.8057 11.868 9.6873 11.9632 9.56012C12.0584 9.43295 12.1926 9.18298 12.2662 9.00318C12.3398 8.819 12.4307 8.50325 12.4697 8.30153C12.5173 8.04718 12.5303 7.79721 12.5173 7.53409C12.5043 7.31483 12.461 7.02978 12.4264 6.89822C12.3918 6.76227 12.3225 6.54739 12.2749 6.41583C12.2273 6.27988 12.0974 6.04308 11.7987 5.60454L11.8896 5.50368ZM8.78139 5.98607C8.88961 5.95098 9.0974 5.93783 9.34416 5.9466C9.66017 5.95975 9.77706 5.98168 9.9632 6.07816C10.0844 6.13955 10.197 6.20972 10.21 6.22726C10.2186 6.2448 10.1797 6.30181 10.0152 6.4553L9.81169 6.35882C9.65152 6.28427 9.52164 6.26234 9.25758 6.26234C8.98052 6.26234 8.86797 6.28427 8.45671 6.47722L8.37013 6.38952C8.32251 6.34128 8.28355 6.27988 8.28355 6.24919C8.28355 6.21849 8.35714 6.16148 8.44805 6.11763C8.53463 6.07816 8.68615 6.02115 8.78139 5.98607ZM7.17965 6.00799L7.37879 6.2141L7.22294 6.47722C7.14069 6.62194 7.0368 6.84998 6.99351 6.98154C6.94156 7.15257 6.91991 7.36745 6.92424 7.72705C6.92424 8.1612 6.94156 8.27083 7.03247 8.51641C7.09307 8.67428 7.19697 8.88039 7.37446 9.15228L7.27489 9.25315C7.19264 9.33647 7.171 9.34085 7.11472 9.28823C7.08009 9.25315 6.97619 9.07335 6.88961 8.88478C6.80303 8.69621 6.69913 8.38485 6.6645 8.20066C6.62554 8.0121 6.59524 7.77967 6.59524 7.68319C6.59524 7.58672 6.62554 7.35429 6.6645 7.17011C6.70346 6.98154 6.77273 6.73157 6.82468 6.60878C6.87229 6.49038 6.97186 6.3062 7.04545 6.20095L7.17965 6.00799ZM11.1926 6.13517C11.2489 6.0957 11.3095 6.06062 11.3268 6.06062C11.3442 6.06062 11.4134 6.15271 11.4784 6.26673C11.5433 6.38075 11.6515 6.62194 11.7251 6.80612C11.842 7.10871 11.8506 7.17449 11.8506 7.70512C11.8506 8.20505 11.8377 8.30591 11.7424 8.56026C11.6818 8.71375 11.5606 8.96371 11.3052 9.37155L11.0974 9.13036L11.2273 8.94179C11.2965 8.84093 11.3918 8.65674 11.4394 8.53834C11.487 8.41555 11.5433 8.17874 11.5649 8.01209C11.5909 7.82791 11.5909 7.58233 11.5693 7.39815C11.5476 7.22712 11.5 6.99031 11.461 6.8719C11.4177 6.74912 11.3182 6.55177 11.0931 6.2141L11.1926 6.13517ZM7.72944 6.92453C7.77706 6.80613 7.829 6.71403 7.84632 6.71403C7.85931 6.70965 7.91126 6.7535 8.04545 6.89383L7.93723 7.1438C7.85498 7.33675 7.83333 7.46393 7.83333 7.70074C7.83333 7.91562 7.86364 8.07349 7.9329 8.22698C7.98485 8.34977 8.01515 8.48133 8.00649 8.52518C7.99351 8.56465 7.94156 8.62166 7.89394 8.64358C7.82468 8.67867 7.7987 8.66551 7.74675 8.56903C7.71645 8.49887 7.65584 8.33661 7.61688 8.20505C7.57792 8.07349 7.54762 7.85422 7.54762 7.72266C7.54762 7.5911 7.56926 7.40253 7.59524 7.30605C7.62121 7.20958 7.68182 7.03855 7.72944 6.92453ZM10.5433 6.8149C10.5952 6.75789 10.6472 6.71403 10.6645 6.71403C10.6775 6.70965 10.7468 6.83682 10.816 6.98592C10.9286 7.22712 10.9416 7.31044 10.9416 7.65688C10.9416 7.95509 10.9199 8.11296 10.8506 8.29276C10.7987 8.42432 10.7338 8.56026 10.6991 8.58657C10.6558 8.63043 10.6255 8.62166 10.4524 8.44624L10.5476 8.2489C10.6255 8.09103 10.6429 7.97701 10.6429 7.67881C10.6429 7.38061 10.6255 7.26659 10.4524 6.91137L10.5433 6.8149ZM9.01082 6.92892C9.04978 6.91137 9.18831 6.89822 9.30952 6.89383C9.43506 6.89383 9.53896 6.91137 9.53896 6.93768C9.53896 6.95961 9.48268 7.04293 9.29221 7.26659L9.11472 7.1131C8.96753 6.98154 8.95022 6.95084 9.01082 6.92892ZM9.82035 7.53409C9.91558 7.44639 10.0065 7.37622 10.0238 7.37622C10.0455 7.37622 10.0584 7.48585 10.0584 7.62618C10.0584 7.76652 10.0411 7.90685 10.0195 7.94631C9.98918 7.99894 9.95022 7.9814 9.64719 7.69196L9.82035 7.53409ZM8.43939 7.51655C8.45238 7.46393 8.48268 7.42007 8.50433 7.42007C8.52597 7.42007 8.6039 7.4727 8.67316 7.53848C8.75541 7.61303 8.79437 7.68758 8.77706 7.72705C8.76407 7.76213 8.69481 7.83668 8.5 7.99017L8.45671 7.88053C8.43074 7.81914 8.41342 7.73582 8.41342 7.69196C8.41342 7.6525 8.42641 7.57356 8.43939 7.51655ZM9.07576 8.28399C9.14935 8.19628 9.22294 8.12173 9.23593 8.12173C9.24892 8.12173 9.33117 8.19189 9.42208 8.28399C9.50866 8.37608 9.56926 8.46379 9.55195 8.48133C9.53896 8.49887 9.40476 8.51641 9.26191 8.51641C9.11472 8.51641 8.98485 8.50325 8.96753 8.48571C8.95022 8.46379 8.99784 8.37608 9.07576 8.28399ZM9.7987 9.02511C9.90693 8.96371 10.0022 8.91548 10.0152 8.91109C10.0281 8.91109 10.0758 8.95056 10.21 9.09527L10.1017 9.1786C10.0411 9.22684 9.88961 9.30577 9.76407 9.34962C9.62121 9.40663 9.43074 9.43733 9.23593 9.43733C9.03247 9.43733 8.85065 9.40663 8.68182 9.34085C8.54762 9.28823 8.40043 9.22684 8.36147 9.20052C8.28788 9.15667 8.29221 9.14351 8.5 8.93302L8.6948 9.02949C8.85065 9.10843 8.9632 9.13036 9.24459 9.13036C9.54329 9.13036 9.6342 9.11282 9.7987 9.02511ZM7.73809 9.70045C7.78139 9.65221 7.82035 9.61275 7.82468 9.60836C7.82468 9.60836 7.94589 9.67852 8.08874 9.76623C8.2316 9.84955 8.45671 9.9548 8.58658 9.99427C8.74675 10.0425 8.97186 10.0644 9.27922 10.0644C9.61255 10.0601 9.7987 10.0381 9.97186 9.97673C10.1017 9.92849 10.3009 9.82763 10.4134 9.74869C10.5303 9.67414 10.6472 9.61274 10.6732 9.61274C10.7035 9.61274 10.7554 9.65221 10.7814 9.70045C10.8117 9.74869 10.829 9.8057 10.816 9.83201C10.803 9.85394 10.6732 9.94165 10.5216 10.025C10.3745 10.1127 10.1147 10.2179 9.95022 10.2662C9.74242 10.3276 9.52165 10.3583 9.23593 10.3583C8.9632 10.3583 8.72944 10.3276 8.54329 10.2749C8.38745 10.2311 8.16234 10.1434 8.04545 10.082C7.92424 10.0206 7.79004 9.92849 7.74242 9.88025C7.65584 9.78816 7.65584 9.78377 7.73809 9.70045ZM7.09307 10.3495C7.171 10.2705 7.17532 10.2705 7.30519 10.3802C7.37879 10.4416 7.57359 10.56 7.74242 10.6477C7.90693 10.7354 8.16234 10.845 8.30519 10.8933C8.48268 10.9547 8.73377 10.9854 9.10606 11.0029C9.56926 11.0204 9.70346 11.0117 10.0368 10.9283C10.2489 10.8713 10.5433 10.7705 10.6861 10.6959C10.829 10.6258 11.0368 10.4986 11.3571 10.2705L11.4221 10.3802C11.4827 10.4854 11.4784 10.4942 11.3442 10.617C11.2706 10.6872 11.0584 10.8231 10.881 10.9196C10.7035 11.0161 10.3615 11.1476 10.1234 11.2134C9.72944 11.323 9.64286 11.3318 9.14935 11.3099C8.78139 11.2923 8.50866 11.2572 8.30519 11.1959C8.13636 11.1432 7.87662 11.0424 7.72078 10.9678C7.56493 10.8933 7.34848 10.7661 7.2316 10.6828C7.11905 10.5994 7.02381 10.5074 7.01948 10.481C7.01515 10.4547 7.04978 10.3933 7.09307 10.3495ZM12.8723 3.48203C12.8247 3.56097 12.7857 3.66183 12.7857 3.7013C12.7857 3.74515 12.8333 3.83725 12.8939 3.9118C12.9762 4.01266 13.0368 4.04336 13.1537 4.04336C13.2619 4.04336 13.3398 4.00828 13.4134 3.93372C13.474 3.87233 13.5216 3.77147 13.5216 3.7013C13.5216 3.63552 13.4827 3.52589 13.4351 3.46011C13.3615 3.35924 13.3139 3.3417 13.1537 3.3417C12.9805 3.3417 12.9459 3.35486 12.8723 3.48203ZM5.07576 11.3713C5.0368 11.3932 4.97186 11.4721 4.9329 11.5423C4.89394 11.6125 4.86364 11.7002 4.86364 11.7396C4.86364 11.7747 4.91991 11.8624 4.99351 11.937C5.0671 12.0115 5.16667 12.0685 5.2316 12.0685C5.29221 12.0685 5.38745 12.0335 5.44805 11.9896C5.50866 11.9501 5.56926 11.8537 5.58225 11.7835C5.59524 11.7089 5.58658 11.5993 5.56061 11.5423C5.53463 11.4809 5.46537 11.4064 5.40476 11.3757C5.34416 11.345 5.2619 11.323 5.21861 11.323C5.17965 11.323 5.11472 11.345 5.07576 11.3713ZM12.9372 11.4283C12.8723 11.4984 12.8333 11.5905 12.829 11.6826C12.8247 11.7835 12.8593 11.8624 12.9459 11.9501C13.0152 12.0159 13.1147 12.0685 13.1753 12.0685C13.2359 12.0685 13.3355 12.0291 13.4004 11.9808C13.4957 11.9107 13.5216 11.858 13.5216 11.7177C13.5216 11.5862 13.4913 11.5116 13.4134 11.4327C13.3442 11.3625 13.2576 11.323 13.171 11.323C13.0887 11.323 13.0022 11.3625 12.9372 11.4283ZM22.2662 11.4502C22.1883 11.5335 22.1407 11.6256 22.1407 11.7133C22.1364 11.801 22.171 11.8844 22.2446 11.9589C22.3095 12.0247 22.4004 12.0685 22.4827 12.0685C22.5563 12.0685 22.6602 12.0247 22.7294 11.9633C22.8203 11.88 22.8506 11.8142 22.8506 11.6958C22.8506 11.573 22.8203 11.5072 22.7294 11.4283C22.6645 11.3713 22.5606 11.323 22.5 11.323C22.4351 11.323 22.3398 11.3757 22.2662 11.4502ZM8.98052 13.5376C8.89827 13.5946 8.88095 13.6429 8.88528 13.7788C8.88961 13.9235 8.91126 13.963 9.01948 14.02C9.11472 14.0683 9.17532 14.0726 9.25758 14.0419C9.31818 14.0156 9.38312 13.9586 9.40909 13.9104C9.43074 13.8621 9.45238 13.7876 9.45238 13.7437C9.45238 13.7043 9.41342 13.6253 9.3658 13.5683C9.31818 13.5157 9.23593 13.4718 9.17965 13.4718C9.12771 13.4718 9.0368 13.5025 8.98052 13.5376ZM10.0152 13.5596C9.96753 13.6078 9.92857 13.6911 9.92857 13.7437C9.92857 13.8007 9.95887 13.8885 9.99351 13.9411C10.0368 14.0083 10.1017 14.0419 10.1883 14.0419C10.2619 14.0419 10.3571 14.0025 10.4048 13.9542C10.4524 13.906 10.4913 13.8095 10.4913 13.7437C10.4913 13.678 10.461 13.5903 10.4177 13.5464C10.3745 13.5069 10.2879 13.4718 10.2186 13.4718C10.1537 13.4718 10.0628 13.5113 10.0152 13.5596ZM11.0541 13.5596C11.0065 13.6078 10.9675 13.6955 10.9675 13.7569C10.9675 13.8139 11.0152 13.9148 11.0758 13.9762C11.1364 14.0332 11.21 14.0858 11.2359 14.0858C11.2662 14.0858 11.3442 14.0463 11.4091 13.9981C11.4957 13.9367 11.5303 13.8709 11.5303 13.7788C11.5303 13.7043 11.4913 13.6078 11.4437 13.5596C11.3961 13.5113 11.3095 13.4718 11.2489 13.4718C11.1883 13.4718 11.1017 13.5113 11.0541 13.5596ZM12.0498 13.5596C12.0022 13.6078 11.9632 13.6999 11.9632 13.7657C11.9589 13.8314 11.9935 13.9192 12.0368 13.963C12.0801 14.0025 12.171 14.0376 12.2446 14.0419C12.3139 14.0419 12.4091 14.0069 12.4481 13.9674C12.4913 13.9235 12.526 13.8358 12.526 13.7788C12.526 13.7174 12.487 13.6253 12.4394 13.5683C12.3918 13.5157 12.3052 13.4718 12.2446 13.4718C12.184 13.4718 12.0974 13.5113 12.0498 13.5596ZM18.1537 13.5596C18.1061 13.6078 18.0671 13.6999 18.0671 13.7657C18.0628 13.8314 18.0974 13.9192 18.1407 13.963C18.184 14.0025 18.2662 14.0376 18.3268 14.0419C18.3874 14.0419 18.4784 14.0112 18.5303 13.9762C18.5996 13.9279 18.6299 13.8665 18.6299 13.7657C18.6299 13.6867 18.5996 13.5903 18.5563 13.5464C18.513 13.5069 18.4264 13.4718 18.3571 13.4718C18.2922 13.4718 18.2013 13.5113 18.1537 13.5596ZM19.2143 13.5771C19.158 13.6385 19.1061 13.713 19.1061 13.7437C19.1061 13.7744 19.1407 13.8534 19.1926 13.9192C19.2532 14.0069 19.3182 14.0419 19.4091 14.0419C19.4827 14.0419 19.5779 14.0025 19.6255 13.9542C19.6732 13.906 19.7121 13.8139 19.7121 13.7569C19.7121 13.6955 19.6732 13.6078 19.6255 13.5596C19.5779 13.5113 19.487 13.4718 19.4264 13.4718C19.3658 13.4718 19.2706 13.5201 19.2143 13.5771ZM20.2965 13.5596C20.2316 13.6122 20.1797 13.6911 20.184 13.7481C20.184 13.8007 20.2186 13.8885 20.2619 13.9455C20.3139 14.0156 20.3831 14.0493 20.4697 14.0463C20.5476 14.0463 20.6385 14.0025 20.6991 13.9455C20.7511 13.8885 20.7944 13.8095 20.7944 13.7657C20.7944 13.7262 20.7468 13.6385 20.6861 13.5815C20.6255 13.5201 20.5433 13.4718 20.4957 13.4718C20.4524 13.4718 20.3658 13.5113 20.2965 13.5596ZM21.3961 13.5157C21.3571 13.542 21.3009 13.6078 21.2706 13.6604C21.2316 13.7306 21.2316 13.7832 21.2662 13.8665C21.2922 13.9235 21.3615 13.9981 21.4221 14.0288C21.4827 14.0595 21.5649 14.0726 21.6039 14.0551C21.6472 14.0419 21.7164 13.9981 21.7597 13.9586C21.803 13.9192 21.8333 13.8358 21.8333 13.7788C21.8333 13.7174 21.8074 13.6341 21.7771 13.5946C21.7468 13.5552 21.6645 13.5069 21.5952 13.4938C21.5216 13.4806 21.4351 13.4894 21.3961 13.5157ZM5.00216 15.4453C4.95022 15.4935 4.89394 15.5768 4.88095 15.6294C4.86797 15.6864 4.88095 15.7829 4.9026 15.8487C4.92857 15.9145 5.00649 15.9978 5.08009 16.0373C5.16234 16.0767 5.24892 16.0899 5.32684 16.068C5.38745 16.0504 5.47835 15.9847 5.52164 15.9276C5.56493 15.8662 5.6039 15.7654 5.6039 15.7084C5.6039 15.647 5.56061 15.5417 5.51299 15.476C5.44372 15.3839 5.39177 15.3575 5.2619 15.3575C5.15801 15.3575 5.06277 15.3882 5.00216 15.4453ZM8.78139 15.3839C8.73377 15.397 8.54762 15.4365 8.37013 15.476C8.19264 15.5154 7.90693 15.6031 7.74242 15.6733C7.57359 15.7435 7.32251 15.875 7.17965 15.9627C7.0368 16.0504 6.829 16.1995 6.71212 16.2872L6.50866 16.4539C6.15801 16.0943 6.08874 16.0592 5.9632 16.0592C5.85931 16.0592 5.77706 16.0899 5.70346 16.1688C5.63853 16.2346 5.59957 16.3267 5.59957 16.41C5.59957 16.5021 5.65151 16.5986 5.79004 16.7477L5.98485 16.9582C5.68182 17.3967 5.54762 17.616 5.49134 17.7256C5.43506 17.8309 5.35281 18.0282 5.30519 18.1642C5.25758 18.2957 5.17532 18.5895 5.12338 18.822C5.04113 19.1772 5.03247 19.3263 5.04978 19.8525C5.06277 20.2691 5.0974 20.5717 5.15801 20.7954C5.20563 20.9752 5.27056 21.2032 5.30519 21.2997C5.33983 21.3962 5.43506 21.5935 5.51299 21.7382C5.59091 21.8829 5.72944 22.0978 5.82035 22.2206C5.91126 22.339 5.98918 22.4574 5.98918 22.4837C5.98918 22.5057 5.92857 22.5846 5.85498 22.6591C5.78138 22.7293 5.6948 22.8433 5.66017 22.9091C5.62554 22.9749 5.59957 23.0714 5.59957 23.1196C5.59957 23.1678 5.64719 23.2556 5.70779 23.3169C5.77273 23.3827 5.86364 23.4266 5.94589 23.4266C6.0368 23.4266 6.13636 23.3696 6.29221 23.2292C6.40909 23.1196 6.51732 23.0319 6.5303 23.0319C6.54329 23.0319 6.6645 23.124 6.7987 23.238C6.93723 23.3476 7.22294 23.5231 7.43939 23.6283C7.65152 23.7292 8.00216 23.8563 8.21861 23.909C8.53896 23.9923 8.72944 24.0098 9.27922 24.0098C9.84632 24.0098 10.0065 23.9967 10.3182 23.909C10.5216 23.852 10.8593 23.7204 11.0758 23.6195C11.2879 23.5143 11.5823 23.3301 11.7251 23.2117L11.9848 22.9924C12.3745 23.3827 12.4481 23.4266 12.5606 23.4266C12.6558 23.4266 12.7381 23.3871 12.8074 23.3169C12.868 23.2556 12.9156 23.1547 12.9156 23.0977C12.9156 23.0231 12.8333 22.9003 12.6861 22.7337L12.4524 22.4837C12.8117 22.0057 12.9719 21.747 13.0455 21.5935C13.1147 21.4444 13.2229 21.1681 13.2835 20.9796C13.3398 20.7954 13.4134 20.4445 13.4394 20.2034C13.4827 19.8525 13.4827 19.6683 13.4351 19.2824C13.4048 19.0149 13.3355 18.6509 13.2835 18.4711C13.2316 18.287 13.1147 17.9931 13.0238 17.8133C12.9372 17.6292 12.79 17.3836 12.7035 17.2652C12.6126 17.1424 12.5303 17.0196 12.513 16.9889C12.4957 16.9582 12.5606 16.8442 12.6775 16.717C12.8074 16.5708 12.8723 16.4568 12.8723 16.3749C12.8723 16.3092 12.8506 16.2215 12.8203 16.182C12.79 16.1469 12.7251 16.0943 12.6775 16.068C12.6212 16.0417 12.5433 16.0373 12.461 16.0636C12.3874 16.0855 12.2576 16.1776 12.171 16.2653L12.0108 16.432C11.5563 16.0767 11.2662 15.8969 11.0758 15.8005C10.8853 15.7084 10.5909 15.59 10.4264 15.5373C10.2576 15.4891 9.99784 15.4277 9.84199 15.4014C9.68615 15.3795 9.40476 15.3575 9.21429 15.3619C9.02381 15.3663 8.829 15.3751 8.78139 15.3839ZM8.91126 16.0592C9.05411 16.0373 9.30519 16.0329 9.47403 16.046C9.63853 16.0592 9.92424 16.1074 10.1017 16.1513C10.2792 16.1995 10.5736 16.3048 10.7511 16.3925C10.9286 16.4758 11.1883 16.6293 11.5736 16.9143L11.4784 17.0108C11.4221 17.0678 11.3658 17.1117 11.3442 17.1117C11.3268 17.1117 11.21 17.0327 11.0844 16.9363C10.9632 16.8398 10.7035 16.6907 10.513 16.6074C10.3182 16.524 9.98485 16.4276 9.75541 16.3837C9.48268 16.3355 9.24892 16.3223 9.06277 16.3399C8.90693 16.3574 8.66017 16.3969 8.50866 16.432C8.36147 16.467 8.0974 16.5635 7.92424 16.6468C7.75541 16.7258 7.50866 16.8749 7.15801 17.1555L6.9632 16.9275L7.13636 16.7784C7.2316 16.6951 7.48268 16.5416 7.69913 16.432C7.91126 16.3223 8.21429 16.2039 8.37013 16.1644C8.52597 16.125 8.7684 16.0767 8.91126 16.0592ZM8.78139 17.0503C8.9632 17.0108 9.18831 16.9933 9.34416 17.0064C9.48701 17.0196 9.72944 17.0591 9.88528 17.0941C10.0411 17.1292 10.2879 17.2213 10.4394 17.3003C10.5909 17.3748 10.7511 17.4801 10.7987 17.5283C10.881 17.616 10.881 17.616 10.6688 17.8353L10.526 17.7212C10.4481 17.6555 10.3139 17.5721 10.2316 17.5283C10.1494 17.4844 9.95455 17.4099 9.7987 17.366C9.64286 17.3222 9.40043 17.2871 9.25758 17.2871C9.11472 17.2871 8.85498 17.3266 8.68182 17.3748C8.51299 17.423 8.29654 17.502 8.20563 17.5546C8.11905 17.6072 7.99351 17.6862 7.92424 17.73C7.80736 17.8133 7.80736 17.8133 7.63853 17.616L7.75541 17.5151C7.82035 17.4581 8.00649 17.3485 8.17532 17.2652C8.33983 17.1818 8.61255 17.0854 8.78139 17.0503ZM6.48268 17.4099L6.57359 17.502C6.65151 17.5853 6.65152 17.6028 6.59957 17.6905C6.56494 17.7476 6.47403 17.8967 6.40043 18.0326C6.32684 18.1642 6.22294 18.3922 6.17532 18.5369C6.12338 18.6816 6.04978 18.9667 6.00649 19.1728C5.95455 19.4403 5.94156 19.6508 5.95887 19.9183C5.97186 20.12 6.02381 20.427 6.07143 20.598C6.12338 20.7647 6.21861 21.0234 6.28788 21.1681C6.35714 21.3128 6.48268 21.519 6.72078 21.8259L6.61255 21.9356C6.54762 22.0013 6.49134 22.0277 6.47403 22.0013C6.45671 21.975 6.35281 21.8172 6.24026 21.6505C6.13203 21.4795 5.99784 21.2427 5.94589 21.1243C5.89394 21.0015 5.81602 20.7471 5.76407 20.5542C5.70779 20.3218 5.67749 20.0542 5.67316 19.7648C5.67316 19.4929 5.69913 19.1816 5.75108 18.9535C5.79437 18.7474 5.91126 18.401 6.01515 18.1861C6.11472 17.9668 6.2619 17.7037 6.33983 17.5985L6.48268 17.4099ZM11.8853 17.5195C11.9329 17.4669 11.9892 17.4318 12.0108 17.4406C12.0325 17.4537 12.132 17.5941 12.2359 17.7607C12.3355 17.923 12.4567 18.1335 12.5 18.2299C12.5433 18.3264 12.6126 18.515 12.6558 18.6466C12.6948 18.7781 12.7554 19.0851 12.7857 19.3263C12.8247 19.664 12.8247 19.8569 12.79 20.1595C12.7597 20.3788 12.6948 20.6814 12.6472 20.8392C12.5952 20.9971 12.4957 21.2339 12.4264 21.3655C12.3528 21.497 12.2403 21.69 12.1753 21.7952C12.1061 21.8961 12.0238 21.9926 11.9935 22.0057C11.9675 22.0233 11.9026 21.9926 11.7684 21.8479L11.9113 21.6637C11.9892 21.5584 12.119 21.3392 12.2013 21.1681C12.2835 21.0015 12.3788 20.7427 12.4177 20.598C12.4567 20.4533 12.5 20.1288 12.513 19.8745C12.5303 19.5456 12.5173 19.3219 12.4697 19.0851C12.4307 18.9053 12.3571 18.6378 12.3052 18.4931C12.2489 18.3484 12.1147 18.094 11.7944 17.616L11.8853 17.5195ZM8.87229 18.0063C8.98918 17.9756 9.15368 17.9537 9.24026 17.9493C9.32251 17.9493 9.47836 17.9668 9.58658 17.9888C9.69048 18.0151 9.88095 18.0896 10.0065 18.1554C10.132 18.2212 10.2359 18.2826 10.2359 18.2957C10.2359 18.3089 10.1883 18.3659 10.0152 18.5369L9.83333 18.4317C9.69481 18.3484 9.56926 18.3177 9.30519 18.3045C8.99784 18.287 8.92424 18.2957 8.69913 18.401C8.44805 18.5106 8.43506 18.515 8.36147 18.4404C8.31818 18.3966 8.28355 18.3396 8.28355 18.3089C8.28355 18.2782 8.37013 18.208 8.4697 18.1554C8.56926 18.1028 8.75108 18.037 8.87229 18.0063ZM7.10606 18.1554C7.14069 18.1115 7.18398 18.0765 7.2013 18.0808C7.21429 18.0808 7.25758 18.1247 7.30087 18.1773C7.33983 18.2299 7.36147 18.2957 7.34848 18.3177C7.33117 18.344 7.27489 18.4317 7.22294 18.515C7.171 18.5983 7.08442 18.7869 7.02814 18.9316C6.94589 19.1509 6.92857 19.2824 6.92424 19.699C6.92424 20.063 6.94156 20.2735 6.99784 20.4445C7.0368 20.5761 7.14069 20.8041 7.22294 20.9489C7.37013 21.2032 7.37446 21.2164 7.30087 21.2909C7.25758 21.3348 7.20563 21.3699 7.18398 21.3699C7.15801 21.3655 7.11039 21.3216 7.07576 21.269C7.04113 21.212 6.95455 21.041 6.87662 20.8831C6.7987 20.7252 6.70346 20.4314 6.66017 20.2253C6.61255 19.9885 6.59524 19.7604 6.60823 19.5894C6.62554 19.4447 6.66883 19.1991 6.70779 19.0412C6.74675 18.8834 6.83766 18.6378 6.90693 18.4931C6.98052 18.3484 7.0671 18.1949 7.10606 18.1554ZM11.1753 18.1686C11.2186 18.1203 11.2706 18.0808 11.2965 18.0808C11.3182 18.0765 11.4004 18.1817 11.4784 18.3089C11.5563 18.4361 11.6645 18.6773 11.7251 18.8439C11.7814 19.0149 11.842 19.3087 11.8593 19.5017C11.8766 19.7078 11.868 19.9885 11.8377 20.1814C11.8074 20.3875 11.7251 20.6419 11.6212 20.8612C11.5303 21.0541 11.4264 21.2514 11.3874 21.2997C11.3225 21.3874 11.3225 21.3874 11.2229 21.2821C11.1234 21.1769 11.1234 21.1769 11.2056 21.041C11.2489 20.9664 11.3398 20.7954 11.4048 20.6638C11.4654 20.5323 11.5433 20.2735 11.5736 20.0937C11.6126 19.8394 11.6126 19.6859 11.5736 19.414C11.5476 19.221 11.4827 18.9667 11.4351 18.8439C11.3831 18.7255 11.2879 18.5413 11.2229 18.4404C11.1061 18.2606 11.1017 18.2475 11.1753 18.1686ZM7.73377 18.9667C7.78139 18.8614 7.83333 18.7781 7.84632 18.7781C7.86364 18.7781 7.91558 18.8176 8.04978 18.9579L7.95022 19.1553C7.89827 19.2605 7.84199 19.4535 7.82468 19.5806C7.81169 19.7122 7.82468 19.892 7.85065 20.006C7.88095 20.1156 7.93723 20.2779 7.97619 20.3656C8.04545 20.5235 8.04545 20.5323 7.94589 20.6287C7.84632 20.7296 7.84632 20.7296 7.78138 20.6419C7.74675 20.5936 7.68182 20.427 7.6342 20.2691C7.58658 20.1113 7.54762 19.8745 7.54762 19.7429C7.55195 19.6113 7.57359 19.4228 7.59524 19.3263C7.62121 19.2298 7.68615 19.0675 7.73377 18.9667ZM10.5346 18.879C10.5693 18.8264 10.6212 18.7869 10.6472 18.7913C10.6688 18.8 10.7468 18.9228 10.816 19.0675C10.9242 19.2912 10.9416 19.3789 10.9459 19.699C10.9459 19.9972 10.9286 20.1288 10.842 20.3525C10.7814 20.5059 10.7035 20.6463 10.6732 20.6594C10.6385 20.677 10.5823 20.6419 10.5433 20.5849C10.4784 20.4884 10.4784 20.4709 10.5563 20.2998C10.6082 20.1902 10.6515 19.9929 10.6602 19.8087C10.6732 19.5587 10.6558 19.4535 10.5693 19.2386C10.474 18.9974 10.4697 18.9711 10.5346 18.879ZM9.00216 18.936C9.04978 18.9272 9.17532 18.9184 9.28788 18.9228C9.40043 18.9272 9.50433 18.9491 9.52597 18.9667C9.54762 18.9842 9.50433 19.0588 9.43507 19.1333C9.36147 19.2035 9.28355 19.2649 9.26191 19.2649C9.23593 19.2649 9.14935 19.1947 9.0671 19.1114C8.92857 18.9711 8.91991 18.9579 9.00216 18.936ZM8.50433 19.414L8.829 19.7429L8.67749 19.8964C8.59091 19.9797 8.50866 20.0367 8.49134 20.0279C8.47403 20.0148 8.44805 19.9315 8.43507 19.8438C8.42208 19.7517 8.43074 19.6201 8.45671 19.5456L8.50433 19.414ZM9.84199 19.5894C9.92424 19.5061 10.0065 19.4359 10.0238 19.4359C10.0455 19.4359 10.0584 19.5412 10.0584 19.6683C10.0584 19.7955 10.0411 19.9271 10.0195 19.9622C9.98485 20.0192 9.95455 20.006 9.69481 19.7473L9.84199 19.5894ZM9.07576 20.3568C9.15368 20.2604 9.22294 20.1814 9.23593 20.177C9.24892 20.177 9.33117 20.2516 9.42208 20.3437C9.55628 20.4752 9.57359 20.5147 9.52164 20.541C9.48268 20.5586 9.37879 20.5717 9.29221 20.5717C9.2013 20.5717 9.08442 20.5629 9.03247 20.5498C8.9329 20.5279 8.93723 20.5279 9.07576 20.3568ZM9.84199 21.0673C9.92424 21.0146 9.99783 20.9752 10.0065 20.9708C10.0108 20.9708 10.0628 21.0015 10.1234 21.0453C10.2229 21.1155 10.2273 21.1243 10.1537 21.1944C10.1147 21.2383 9.99351 21.3085 9.88528 21.3567C9.77706 21.4093 9.54329 21.4619 9.3658 21.4795C9.09307 21.5058 8.99351 21.4926 8.7381 21.4093C8.57359 21.3567 8.3961 21.2865 8.2619 21.1901L8.34848 21.098C8.40043 21.041 8.4697 21.0146 8.52164 21.0278C8.56926 21.0366 8.69481 21.0804 8.80303 21.1243C8.94589 21.1769 9.08874 21.1901 9.34416 21.1769C9.59524 21.1637 9.73377 21.133 9.84199 21.0673ZM10.6818 21.633L10.8896 21.8215L10.7641 21.9224C10.6991 21.975 10.5476 22.0671 10.4264 22.1285C10.3095 22.1855 10.0758 22.2732 9.90693 22.3259C9.6948 22.3916 9.49134 22.418 9.21429 22.4136C9.00216 22.4136 8.7381 22.3916 8.62987 22.3653C8.52164 22.3434 8.30087 22.2557 8.13203 22.1768C7.96753 22.0978 7.78571 21.9882 7.73377 21.9399C7.63853 21.8479 7.63853 21.8435 7.71212 21.7558C7.75108 21.7075 7.80303 21.6681 7.82035 21.6681C7.83766 21.6681 7.92424 21.7163 8.01515 21.7777C8.10173 21.8347 8.31385 21.9356 8.47835 22.0013C8.72944 22.0978 8.85498 22.1197 9.21429 22.1197C9.54762 22.1197 9.71212 22.0978 9.92857 22.0277C10.0844 21.975 10.3182 21.8654 10.4481 21.7821L10.6818 21.633ZM7.171 22.3302L7.32684 22.4486C7.40909 22.5144 7.58658 22.6284 7.72078 22.703C7.85065 22.7776 8.10173 22.8872 8.28355 22.9442C8.56926 23.0407 8.68182 23.0494 9.23593 23.0494C9.75974 23.0451 9.91558 23.0275 10.1883 22.9442C10.3658 22.8872 10.5909 22.8039 10.6861 22.7556C10.7814 22.7074 10.9719 22.589 11.1061 22.4969C11.3528 22.3302 11.3571 22.3302 11.4307 22.4136C11.5 22.4925 11.5 22.51 11.4437 22.5758C11.4048 22.6153 11.2706 22.7205 11.1407 22.8082C11.0065 22.9003 10.7857 23.0231 10.6429 23.0889C10.5 23.1503 10.2662 23.238 10.1234 23.2775C9.9329 23.3345 9.69913 23.352 9.25758 23.352C8.75974 23.352 8.58658 23.3345 8.31385 23.2599C8.13203 23.2029 7.85931 23.0977 7.70779 23.0231C7.56061 22.9486 7.3355 22.8082 6.98485 22.5495L7.07576 22.4399L7.171 22.3302ZM12.8939 15.4891C12.829 15.5637 12.7771 15.6645 12.7814 15.7084C12.7857 15.7566 12.8333 15.8531 12.8939 15.9276C12.9805 16.0285 13.0368 16.0592 13.1667 16.0592C13.2792 16.0592 13.3571 16.0285 13.4221 15.9583C13.4784 15.9013 13.5216 15.8005 13.5216 15.7303C13.526 15.6557 13.487 15.5417 13.4351 15.476C13.3658 15.3795 13.3139 15.3575 13.1797 15.3575C13.0455 15.3575 12.9848 15.3839 12.8939 15.4891ZM22.2229 15.4672C22.171 15.533 22.1277 15.6382 22.132 15.6996C22.1364 15.7654 22.1667 15.8619 22.2013 15.9145C22.2359 15.9671 22.3139 16.0329 22.3745 16.0592C22.4524 16.0899 22.5216 16.0855 22.6212 16.046C22.7121 16.011 22.7814 15.9408 22.816 15.8487C22.8636 15.7259 22.8636 15.6821 22.7987 15.5417C22.7294 15.3882 22.7035 15.3751 22.5216 15.3663C22.3485 15.3532 22.3052 15.3663 22.2229 15.4672ZM13.0628 23.3827C13.0108 23.4003 12.9372 23.466 12.8983 23.5187C12.8593 23.5757 12.829 23.6765 12.829 23.7423C12.829 23.8081 12.842 23.8958 12.8636 23.9353C12.881 23.9747 12.9459 24.0318 13.0152 24.0668C13.0801 24.0975 13.1667 24.1282 13.21 24.1282C13.2489 24.1282 13.3355 24.0888 13.4048 24.0405C13.5 23.966 13.5216 23.9177 13.5216 23.7643C13.526 23.6239 13.5 23.5538 13.4264 23.4836C13.3701 23.431 13.2879 23.3783 13.2403 23.3652C13.1926 23.352 13.1104 23.3608 13.0628 23.3827ZM22.3225 23.4266C22.2143 23.4924 22.1753 23.5538 22.1537 23.6765C22.1364 23.7906 22.1537 23.8739 22.197 23.9397C22.2359 23.9923 22.3095 24.0625 22.3658 24.0888C22.4394 24.1282 22.4957 24.1239 22.6082 24.0756C22.6905 24.0449 22.7814 23.9616 22.8117 23.8958C22.855 23.8081 22.8636 23.7379 22.8333 23.6327C22.803 23.5318 22.7424 23.466 22.6385 23.4134C22.5519 23.3696 22.4784 23.3389 22.474 23.3389C22.4654 23.3389 22.3961 23.3783 22.3225 23.4266ZM5.00649 23.4792C4.95887 23.5318 4.90693 23.6239 4.88961 23.6765C4.87662 23.7292 4.88961 23.83 4.92424 23.8958C4.95887 23.9616 5.0368 24.0405 5.0974 24.0712C5.15801 24.1019 5.24026 24.1282 5.27922 24.1282C5.31818 24.1282 5.40476 24.0668 5.47403 23.9967C5.55628 23.909 5.59957 23.8169 5.59957 23.7336C5.59957 23.6502 5.56061 23.5581 5.49134 23.4924C5.41919 23.4193 5.3355 23.3827 5.24026 23.3827C5.14502 23.3827 5.06277 23.4134 5.00649 23.4792ZM7.95455 28.0005C7.82035 28.0575 7.69481 28.154 7.63853 28.2373C7.59091 28.3162 7.5303 28.4697 7.50433 28.5794C7.48268 28.6846 7.47403 28.8381 7.48701 28.917C7.50433 28.996 7.55628 29.1275 7.60822 29.2108C7.66017 29.2898 7.78139 29.417 7.88528 29.4827C8.02814 29.5836 8.11472 29.6099 8.30519 29.6099C8.43506 29.6099 8.59091 29.588 8.65152 29.5661C8.71212 29.5398 8.82468 29.4652 8.9026 29.395C8.99351 29.3117 9.0671 29.1845 9.12338 29.0091C9.18831 28.803 9.19697 28.7241 9.15801 28.6013C9.13203 28.5136 9.0671 28.3776 9.01082 28.2943C8.95022 28.1978 8.81602 28.0926 8.67316 28.018C8.54329 27.9523 8.37879 27.8952 8.30519 27.8952C8.23593 27.8996 8.07576 27.9435 7.95455 28.0005ZM22.461 28.0049C22.3182 28.0794 22.2056 28.1759 22.1234 28.3031C22.0281 28.4522 22.0065 28.5399 22.0065 28.7548C22.0065 28.9653 22.0281 29.053 22.1277 29.2152C22.2056 29.3424 22.3139 29.4433 22.4394 29.5091C22.5606 29.5704 22.7165 29.6055 22.8506 29.6099C23.0195 29.6099 23.1147 29.5792 23.2749 29.4784C23.4221 29.3819 23.5043 29.2898 23.5693 29.1363C23.6385 28.9872 23.6602 28.8644 23.6472 28.7065C23.6342 28.5574 23.5909 28.4215 23.513 28.2987C23.4307 28.1759 23.3225 28.0838 23.1667 28.0093C23.0411 27.9479 22.881 27.8996 22.8074 27.8952C22.7381 27.8952 22.5823 27.9435 22.461 28.0049Z" fill="currentColor"/>
</svg>
