<svg id="svg-immersive" viewBox="0 0 20 20" fill="currentColor" xmlns="http://www.w3.org/2000/svg">
<path d="M18.8266 13.3099V15.0495C17.9688 14.7733 16.9893 14.9746 16.3091 15.6551L16.2981 15.666C15.7888 16.1754 14.9601 16.1754 14.4514 15.6667L14.4392 15.6544C13.4724 14.6873 11.8992 14.6873 10.9317 15.6551L10.9207 15.666C10.4115 16.1754 9.58268 16.1754 9.07405 15.6667L9.06176 15.6544C8.09496 14.6873 6.52182 14.6873 5.55427 15.6551L5.54335 15.6661C5.03406 16.1755 4.20528 16.1755 3.69665 15.6668L3.68437 15.6545C3.00771 14.9777 2.03425 14.7752 1.17911 15.046V13.3099H0.00571056L0 20H20V13.3099H18.8266ZM18.8266 18.8263H1.1734V16.3437C1.68329 15.9802 2.39762 16.0271 2.85473 16.4843L2.86631 16.4959C3.83316 17.463 5.40626 17.463 6.37311 16.4959L6.38468 16.4843C6.89402 15.9749 7.72276 15.9749 8.23205 16.4843L8.24363 16.4959C9.21047 17.463 10.7836 17.463 11.7504 16.4959L11.762 16.4843C12.2713 15.9749 13.1001 15.9749 13.6094 16.4843L13.6209 16.4959C14.5878 17.463 16.1609 17.463 17.1277 16.4959L17.1393 16.4843C17.5982 16.0253 18.3164 15.9799 18.8264 16.3478L18.8266 18.8263Z" />
<path d="M5.49067 11.4656H6.66408V10.2622L7.83748 10.9398V13.7789H9.01088V11.6174L10.0012 12.1894L13.2799 10.296V11.5881H14.4533V9.61842L15.2782 9.14207V3.04733L10.0012 0L4.72424 3.04733V9.14203L5.49067 9.58462V11.4656ZM5.89765 4.40256L9.41453 6.4335V10.4953L5.89765 8.46444V4.40256ZM10.5879 6.4335L14.1049 4.40256V8.46444L10.5879 10.4953V6.4335ZM13.5182 3.38613L10.0012 5.41707L6.48435 3.38613L10.0012 1.35523L13.5182 3.38613Z" />
</svg>
