<svg id="svg-money" viewBox="0 0 32 32" fill="none" xmlns="http://www.w3.org/2000/svg">
<path d="M6.22218 7.42495C6.22158 7.9658 6.01025 8.48433 5.63454 8.86678C5.25884 9.24922 4.74944 9.46434 4.21811 9.46495C4.12431 9.46495 4.03436 9.50288 3.96804 9.57039C3.90171 9.6379 3.86445 9.72947 3.86445 9.82495V17.0249C3.86445 17.1204 3.90171 17.212 3.96804 17.2795C4.03436 17.347 4.12431 17.3849 4.21811 17.3849C4.74944 17.3856 5.25884 17.6007 5.63454 17.9831C6.01025 18.3656 6.22158 18.8841 6.22218 19.4249C6.22218 19.5204 6.25944 19.612 6.32576 19.6795C6.39208 19.747 6.48204 19.7849 6.57583 19.7849H25.4376C25.5314 19.7849 25.6214 19.747 25.6877 19.6795C25.754 19.612 25.7913 19.5204 25.7913 19.4249C25.7919 18.8841 26.0032 18.3656 26.3789 17.9831C26.7546 17.6007 27.264 17.3856 27.7953 17.3849C27.8891 17.3849 27.9791 17.347 28.0454 17.2795C28.1117 17.212 28.149 17.1204 28.149 17.0249V9.82495C28.149 9.72947 28.1117 9.6379 28.0454 9.57039C27.9791 9.50288 27.8891 9.46495 27.7953 9.46495C27.264 9.46434 26.7546 9.24922 26.3789 8.86678C26.0032 8.48433 25.7919 7.9658 25.7913 7.42495C25.7913 7.32947 25.754 7.2379 25.6877 7.17039C25.6214 7.10288 25.5314 7.06495 25.4376 7.06495H6.57583C6.48204 7.06495 6.39208 7.10288 6.32576 7.17039C6.25944 7.2379 6.22218 7.32947 6.22218 7.42495ZM25.107 7.78495C25.1857 8.38711 25.457 8.94614 25.879 9.37568C26.301 9.80523 26.8501 10.0814 27.4417 10.1615V16.6883C26.8501 16.7685 26.301 17.0447 25.879 17.4742C25.457 17.9038 25.1857 18.4628 25.107 19.0649H6.9065C6.82777 18.4628 6.55647 17.9038 6.13448 17.4742C5.7125 17.0447 5.16332 16.7685 4.57177 16.6883V10.1615C5.16332 10.0814 5.7125 9.80523 6.13448 9.37568C6.55647 8.94614 6.82777 8.38711 6.9065 7.78495H25.107Z" fill="currentColor"/>
<path d="M5.46994 13.4211C5.46994 13.7771 5.57365 14.1251 5.76795 14.4211C5.96226 14.7172 6.23843 14.9479 6.56154 15.0841C6.88465 15.2203 7.2402 15.256 7.58321 15.1865C7.92623 15.1171 8.24131 14.9456 8.48861 14.6939C8.73591 14.4422 8.90432 14.1214 8.97255 13.7723C9.04078 13.4231 9.00576 13.0612 8.87192 12.7323C8.73809 12.4034 8.51144 12.1223 8.22065 11.9245C7.92985 11.7267 7.58797 11.6211 7.23824 11.6211C6.76941 11.6216 6.31994 11.8115 5.98843 12.1489C5.65692 12.4864 5.47046 12.9439 5.46994 13.4211ZM7.23824 12.3411C7.44808 12.3411 7.65321 12.4045 7.82768 12.5231C8.00216 12.6418 8.13815 12.8105 8.21845 13.0078C8.29875 13.2052 8.31976 13.4223 8.27883 13.6318C8.23789 13.8413 8.13684 14.0338 7.98846 14.1848C7.84008 14.3358 7.65103 14.4387 7.44522 14.4804C7.23941 14.522 7.02609 14.5007 6.83222 14.4189C6.63835 14.3372 6.47265 14.1987 6.35607 14.0211C6.23948 13.8435 6.17726 13.6347 6.17726 13.4211C6.17759 13.1348 6.28947 12.8603 6.48837 12.6578C6.68727 12.4553 6.95695 12.3415 7.23824 12.3411Z" fill="currentColor"/>
<path d="M24.7624 15.2211C25.1122 15.2211 25.454 15.1156 25.7448 14.9178C26.0356 14.72 26.2623 14.4389 26.3961 14.11C26.5299 13.781 26.565 13.4191 26.4967 13.07C26.4285 12.7208 26.2601 12.4001 26.0128 12.1483C25.7655 11.8966 25.4504 11.7252 25.1074 11.6557C24.7644 11.5863 24.4088 11.6219 24.0857 11.7581C23.7626 11.8944 23.4864 12.1251 23.2921 12.4211C23.0978 12.7171 22.9941 13.0651 22.9941 13.4211C22.9946 13.8983 23.1811 14.3559 23.5126 14.6933C23.8441 15.0308 24.2936 15.2206 24.7624 15.2211ZM24.7624 12.3411C24.9723 12.3411 25.1774 12.4045 25.3519 12.5231C25.5263 12.6418 25.6623 12.8105 25.7426 13.0078C25.8229 13.2052 25.8439 13.4223 25.803 13.6318C25.7621 13.8413 25.661 14.0338 25.5126 14.1848C25.3643 14.3358 25.1752 14.4387 24.9694 14.4804C24.7636 14.522 24.5503 14.5007 24.3564 14.4189C24.1625 14.3372 23.9968 14.1987 23.8803 14.0211C23.7637 13.8435 23.7014 13.6347 23.7014 13.4211C23.7018 13.1348 23.8136 12.8603 24.0125 12.6578C24.2114 12.4553 24.4811 12.3414 24.7624 12.3411Z" fill="currentColor"/>
<path d="M8.94701 9.24094H11.8541C11.9479 9.24094 12.0379 9.20301 12.1042 9.1355C12.1705 9.06799 12.2078 8.97642 12.2078 8.88094C12.2078 8.78546 12.1705 8.6939 12.1042 8.62638C12.0379 8.55887 11.9479 8.52094 11.8541 8.52094H8.94701C8.85322 8.52094 8.76326 8.55887 8.69694 8.62638C8.63062 8.6939 8.59335 8.78546 8.59335 8.88094C8.59335 8.97642 8.63062 9.06799 8.69694 9.1355C8.76326 9.20301 8.85322 9.24094 8.94701 9.24094Z" fill="currentColor"/>
<path d="M7.32206 9.24094H7.69152C7.78531 9.24094 7.87527 9.20301 7.94159 9.1355C8.00791 9.06799 8.04517 8.97642 8.04517 8.88094C8.04517 8.78546 8.00791 8.6939 7.94159 8.62638C7.87527 8.55887 7.78531 8.52094 7.69152 8.52094H7.32206C7.22826 8.52094 7.13831 8.55887 7.07199 8.62638C7.00566 8.6939 6.9684 8.78546 6.9684 8.88094C6.9684 8.97642 7.00566 9.06799 7.07199 9.1355C7.13831 9.20301 7.22826 9.24094 7.32206 9.24094Z" fill="currentColor"/>
<path d="M30.1463 20.62H29.9106V6.1C29.9106 5.94087 29.8485 5.78826 29.7379 5.67574C29.6274 5.56321 29.4775 5.5 29.3211 5.5H9.51172C9.41793 5.5 9.32797 5.53793 9.26165 5.60544C9.19532 5.67295 9.15806 5.76452 9.15806 5.86C9.15806 5.95548 9.19532 6.04705 9.26165 6.11456C9.32797 6.18207 9.41793 6.22 9.51172 6.22H29.2033V20.62H18.3261C18.293 20.5823 18.2525 20.552 18.2071 20.5314C18.1618 20.5107 18.1127 20.5 18.063 20.5H13.937C13.8873 20.5 13.8382 20.5107 13.7929 20.5314C13.7475 20.552 13.707 20.5823 13.6739 20.62H2.79675V6.22H6.56457C6.65836 6.22 6.74832 6.18207 6.81464 6.11456C6.88097 6.04705 6.91823 5.95548 6.91823 5.86C6.91823 5.76452 6.88097 5.67295 6.81464 5.60544C6.74832 5.53793 6.65836 5.5 6.56457 5.5H2.67886C2.52254 5.5 2.37261 5.56321 2.26207 5.67574C2.15153 5.78826 2.08943 5.94087 2.08943 6.1V20.62H1.85366C1.75986 20.62 1.66991 20.6579 1.60358 20.7254C1.53726 20.793 1.5 20.8845 1.5 20.98V26.02C1.5 26.1155 1.53726 26.207 1.60358 26.2746C1.66991 26.3421 1.75986 26.38 1.85366 26.38H13.6739C13.707 26.4178 13.7475 26.448 13.7929 26.4686C13.8382 26.4893 13.8873 26.5 13.937 26.5H18.063C18.1127 26.5 18.1618 26.4893 18.2071 26.4686C18.2525 26.448 18.293 26.4178 18.3261 26.38H30.1463C30.2401 26.38 30.3301 26.3421 30.3964 26.2746C30.4627 26.207 30.5 26.1155 30.5 26.02V20.98C30.5 20.8845 30.4627 20.793 30.3964 20.7254C30.3301 20.6579 30.2401 20.62 30.1463 20.62ZM13.5833 25.66H2.20732V24.7H13.5833V25.66ZM13.5833 23.98H2.20732V23.02H13.5833V23.98ZM13.5833 22.3H2.20732V21.34H13.5833V22.3ZM17.7094 25.78H14.2907V21.22H17.7094V25.78ZM29.7927 25.66H18.4167V24.7H29.7927V25.66ZM29.7927 22.3H26.9956C26.9018 22.3 26.8118 22.3379 26.7455 22.4054C26.6792 22.473 26.6419 22.5645 26.6419 22.66C26.6419 22.7555 26.6792 22.847 26.7455 22.9146C26.8118 22.9821 26.9018 23.02 26.9956 23.02H29.7927V23.98H18.4167V23.02H24.0484C24.1422 23.02 24.2322 22.9821 24.2985 22.9146C24.3648 22.847 24.4021 22.7555 24.4021 22.66C24.4021 22.5645 24.3648 22.473 24.2985 22.4054C24.2322 22.3379 24.1422 22.3 24.0484 22.3H18.4167V21.34H29.7927V22.3Z" fill="currentColor"/>
<path d="M10.6382 13.2905C10.6225 13.9595 10.7283 14.6258 10.9501 15.2558C10.966 15.3003 10.9904 15.3411 11.0218 15.376C11.0532 15.4109 11.091 15.4392 11.1332 15.4592C11.1753 15.4791 11.2209 15.4905 11.2674 15.4926C11.3138 15.4946 11.3602 15.4873 11.4039 15.4711C11.4476 15.455 11.4877 15.4302 11.522 15.3982C11.5562 15.3662 11.584 15.3277 11.6036 15.2848C11.6233 15.2419 11.6344 15.1955 11.6364 15.1482C11.6384 15.1009 11.6313 15.0537 11.6154 15.0092C11.2396 13.9402 11.2526 12.7695 11.6523 11.7094C12.0519 10.6494 12.8116 9.77031 13.7935 9.23166C14.7754 8.69302 15.9144 8.53051 17.004 8.77363C18.0935 9.01675 19.0613 9.64939 19.7318 10.5568C20.4023 11.4641 20.7311 12.5861 20.6585 13.7191C20.5858 14.8521 20.1166 15.9211 19.3359 16.732C18.5552 17.543 17.5148 18.0422 16.4035 18.1391C15.2921 18.236 14.1835 17.9241 13.2787 17.2601C13.2026 17.2084 13.1098 17.1887 13.0198 17.2051C12.9297 17.2215 12.8495 17.2728 12.7958 17.3482C12.7421 17.4237 12.7192 17.5173 12.732 17.6095C12.7447 17.7017 12.792 17.7854 12.864 17.8428C13.5487 18.3455 14.3403 18.6767 15.1743 18.8092C16.0084 18.9418 16.8615 18.872 17.6641 18.6056C18.4667 18.3393 19.1962 17.8838 19.7932 17.2762C20.3903 16.6686 20.838 15.9262 21.0999 15.1093C21.3618 14.2923 21.4306 13.424 21.3006 12.5749C21.1706 11.7258 20.8456 10.92 20.3519 10.2229C19.8582 9.52585 19.2098 8.95727 18.4594 8.56344C17.7091 8.1696 16.8781 7.96164 16.0339 7.95647C13.1206 7.93847 10.7042 10.3256 10.6382 13.2905Z" fill="currentColor"/>
<path d="M13.9289 14.6829C13.8351 14.6829 13.7452 14.7208 13.6788 14.7883C13.6125 14.8558 13.5752 14.9474 13.5752 15.0429C13.5752 15.1384 13.6125 15.2299 13.6788 15.2974C13.7452 15.365 13.8351 15.4029 13.9289 15.4029H14.6584V16.5164C14.6584 16.6118 14.6957 16.7034 14.762 16.7709C14.8283 16.8384 14.9183 16.8764 15.0121 16.8764C15.1059 16.8764 15.1958 16.8384 15.2622 16.7709C15.3285 16.7034 15.3658 16.6118 15.3658 16.5164V15.4029H17.5336C17.6274 15.4029 17.7174 15.365 17.7837 15.2974C17.85 15.2299 17.8873 15.1384 17.8873 15.0429C17.8873 14.9474 17.85 14.8558 17.7837 14.7883C17.7174 14.7208 17.6274 14.6829 17.5336 14.6829H15.3658V13.976H16.4956C17.0089 13.976 17.5011 13.7684 17.864 13.399C18.2269 13.0296 18.4307 12.5286 18.4307 12.0062C18.4307 11.4837 18.2269 10.9827 17.864 10.6133C17.5011 10.2439 17.0089 10.0364 16.4956 10.0364H15.0121C14.9183 10.0364 14.8283 10.0743 14.762 10.1418C14.6957 10.2093 14.6584 10.3009 14.6584 10.3964V13.256H13.9289C13.8351 13.256 13.7452 13.2939 13.6788 13.3614C13.6125 13.4289 13.5752 13.5205 13.5752 13.616C13.5752 13.7114 13.6125 13.803 13.6788 13.8705C13.7452 13.938 13.8351 13.976 13.9289 13.976H14.6584V14.6829H13.9289ZM15.3658 10.7564H16.4956C16.8213 10.7564 17.1336 10.888 17.3638 11.1224C17.5941 11.3568 17.7234 11.6747 17.7234 12.0062C17.7234 12.3376 17.5941 12.6555 17.3638 12.8899C17.1336 13.1243 16.8213 13.256 16.4956 13.256H15.3658V10.7564Z" fill="currentColor"/>
<path d="M6.22218 7.42495C6.22158 7.9658 6.01025 8.48433 5.63454 8.86678C5.25884 9.24922 4.74944 9.46434 4.21811 9.46495C4.12431 9.46495 4.03436 9.50288 3.96804 9.57039C3.90171 9.6379 3.86445 9.72947 3.86445 9.82495V17.0249C3.86445 17.1204 3.90171 17.212 3.96804 17.2795C4.03436 17.347 4.12431 17.3849 4.21811 17.3849C4.74944 17.3856 5.25884 17.6007 5.63454 17.9831C6.01025 18.3656 6.22158 18.8841 6.22218 19.4249C6.22218 19.5204 6.25944 19.612 6.32576 19.6795C6.39208 19.747 6.48204 19.7849 6.57583 19.7849H25.4376C25.5314 19.7849 25.6214 19.747 25.6877 19.6795C25.754 19.612 25.7913 19.5204 25.7913 19.4249C25.7919 18.8841 26.0032 18.3656 26.3789 17.9831C26.7546 17.6007 27.264 17.3856 27.7953 17.3849C27.8891 17.3849 27.9791 17.347 28.0454 17.2795C28.1117 17.212 28.149 17.1204 28.149 17.0249V9.82495C28.149 9.72947 28.1117 9.6379 28.0454 9.57039C27.9791 9.50288 27.8891 9.46495 27.7953 9.46495C27.264 9.46434 26.7546 9.24922 26.3789 8.86678C26.0032 8.48433 25.7919 7.9658 25.7913 7.42495C25.7913 7.32947 25.754 7.2379 25.6877 7.17039C25.6214 7.10288 25.5314 7.06495 25.4376 7.06495H6.57583C6.48204 7.06495 6.39208 7.10288 6.32576 7.17039C6.25944 7.2379 6.22218 7.32947 6.22218 7.42495ZM25.107 7.78495C25.1857 8.38711 25.457 8.94614 25.879 9.37568C26.301 9.80523 26.8501 10.0814 27.4417 10.1615V16.6883C26.8501 16.7685 26.301 17.0447 25.879 17.4742C25.457 17.9038 25.1857 18.4628 25.107 19.0649H6.9065C6.82777 18.4628 6.55647 17.9038 6.13448 17.4742C5.7125 17.0447 5.16332 16.7685 4.57177 16.6883V10.1615C5.16332 10.0814 5.7125 9.80523 6.13448 9.37568C6.55647 8.94614 6.82777 8.38711 6.9065 7.78495H25.107Z" stroke="currentColor" stroke-width="0.436957"/>
<path d="M5.46994 13.4211C5.46994 13.7771 5.57365 14.1251 5.76795 14.4211C5.96226 14.7172 6.23843 14.9479 6.56154 15.0841C6.88465 15.2203 7.2402 15.256 7.58321 15.1865C7.92623 15.1171 8.24131 14.9456 8.48861 14.6939C8.73591 14.4422 8.90432 14.1214 8.97255 13.7723C9.04078 13.4231 9.00576 13.0612 8.87192 12.7323C8.73809 12.4034 8.51144 12.1223 8.22065 11.9245C7.92985 11.7267 7.58797 11.6211 7.23824 11.6211C6.76941 11.6216 6.31994 11.8115 5.98843 12.1489C5.65692 12.4864 5.47046 12.9439 5.46994 13.4211ZM7.23824 12.3411C7.44808 12.3411 7.65321 12.4045 7.82768 12.5231C8.00216 12.6418 8.13815 12.8105 8.21845 13.0078C8.29875 13.2052 8.31976 13.4223 8.27883 13.6318C8.23789 13.8413 8.13684 14.0338 7.98846 14.1848C7.84008 14.3358 7.65103 14.4387 7.44522 14.4804C7.23941 14.522 7.02609 14.5007 6.83222 14.4189C6.63835 14.3372 6.47265 14.1987 6.35607 14.0211C6.23948 13.8435 6.17726 13.6347 6.17726 13.4211C6.17759 13.1348 6.28947 12.8603 6.48837 12.6578C6.68727 12.4553 6.95695 12.3415 7.23824 12.3411Z" stroke="currentColor" stroke-width="0.436957"/>
<path d="M24.7624 15.2211C25.1122 15.2211 25.454 15.1156 25.7448 14.9178C26.0356 14.72 26.2623 14.4389 26.3961 14.11C26.5299 13.781 26.565 13.4191 26.4967 13.07C26.4285 12.7208 26.2601 12.4001 26.0128 12.1483C25.7655 11.8966 25.4504 11.7252 25.1074 11.6557C24.7644 11.5863 24.4088 11.6219 24.0857 11.7581C23.7626 11.8944 23.4864 12.1251 23.2921 12.4211C23.0978 12.7171 22.9941 13.0651 22.9941 13.4211C22.9946 13.8983 23.1811 14.3559 23.5126 14.6933C23.8441 15.0308 24.2936 15.2206 24.7624 15.2211ZM24.7624 12.3411C24.9723 12.3411 25.1774 12.4045 25.3519 12.5231C25.5263 12.6418 25.6623 12.8105 25.7426 13.0078C25.8229 13.2052 25.8439 13.4223 25.803 13.6318C25.7621 13.8413 25.661 14.0338 25.5126 14.1848C25.3643 14.3358 25.1752 14.4387 24.9694 14.4804C24.7636 14.522 24.5503 14.5007 24.3564 14.4189C24.1625 14.3372 23.9968 14.1987 23.8803 14.0211C23.7637 13.8435 23.7014 13.6347 23.7014 13.4211C23.7018 13.1348 23.8136 12.8603 24.0125 12.6578C24.2114 12.4553 24.4811 12.3414 24.7624 12.3411Z" stroke="currentColor" stroke-width="0.436957"/>
<path d="M8.94701 9.24094H11.8541C11.9479 9.24094 12.0379 9.20301 12.1042 9.1355C12.1705 9.06799 12.2078 8.97642 12.2078 8.88094C12.2078 8.78546 12.1705 8.6939 12.1042 8.62638C12.0379 8.55887 11.9479 8.52094 11.8541 8.52094H8.94701C8.85322 8.52094 8.76326 8.55887 8.69694 8.62638C8.63062 8.6939 8.59335 8.78546 8.59335 8.88094C8.59335 8.97642 8.63062 9.06799 8.69694 9.1355C8.76326 9.20301 8.85322 9.24094 8.94701 9.24094Z" stroke="currentColor" stroke-width="0.436957"/>
<path d="M7.32206 9.24094H7.69152C7.78531 9.24094 7.87527 9.20301 7.94159 9.1355C8.00791 9.06799 8.04517 8.97642 8.04517 8.88094C8.04517 8.78546 8.00791 8.6939 7.94159 8.62638C7.87527 8.55887 7.78531 8.52094 7.69152 8.52094H7.32206C7.22826 8.52094 7.13831 8.55887 7.07199 8.62638C7.00566 8.6939 6.9684 8.78546 6.9684 8.88094C6.9684 8.97642 7.00566 9.06799 7.07199 9.1355C7.13831 9.20301 7.22826 9.24094 7.32206 9.24094Z" stroke="currentColor" stroke-width="0.436957"/>
<path d="M30.1463 20.62H29.9106V6.1C29.9106 5.94087 29.8485 5.78826 29.7379 5.67574C29.6274 5.56321 29.4775 5.5 29.3211 5.5H9.51172C9.41793 5.5 9.32797 5.53793 9.26165 5.60544C9.19532 5.67295 9.15806 5.76452 9.15806 5.86C9.15806 5.95548 9.19532 6.04705 9.26165 6.11456C9.32797 6.18207 9.41793 6.22 9.51172 6.22H29.2033V20.62H18.3261C18.293 20.5823 18.2525 20.552 18.2071 20.5314C18.1618 20.5107 18.1127 20.5 18.063 20.5H13.937C13.8873 20.5 13.8382 20.5107 13.7929 20.5314C13.7475 20.552 13.707 20.5823 13.6739 20.62H2.79675V6.22H6.56457C6.65836 6.22 6.74832 6.18207 6.81464 6.11456C6.88097 6.04705 6.91823 5.95548 6.91823 5.86C6.91823 5.76452 6.88097 5.67295 6.81464 5.60544C6.74832 5.53793 6.65836 5.5 6.56457 5.5H2.67886C2.52254 5.5 2.37261 5.56321 2.26207 5.67574C2.15153 5.78826 2.08943 5.94087 2.08943 6.1V20.62H1.85366C1.75986 20.62 1.66991 20.6579 1.60358 20.7254C1.53726 20.793 1.5 20.8845 1.5 20.98V26.02C1.5 26.1155 1.53726 26.207 1.60358 26.2746C1.66991 26.3421 1.75986 26.38 1.85366 26.38H13.6739C13.707 26.4178 13.7475 26.448 13.7929 26.4686C13.8382 26.4893 13.8873 26.5 13.937 26.5H18.063C18.1127 26.5 18.1618 26.4893 18.2071 26.4686C18.2525 26.448 18.293 26.4178 18.3261 26.38H30.1463C30.2401 26.38 30.3301 26.3421 30.3964 26.2746C30.4627 26.207 30.5 26.1155 30.5 26.02V20.98C30.5 20.8845 30.4627 20.793 30.3964 20.7254C30.3301 20.6579 30.2401 20.62 30.1463 20.62ZM13.5833 25.66H2.20732V24.7H13.5833V25.66ZM13.5833 23.98H2.20732V23.02H13.5833V23.98ZM13.5833 22.3H2.20732V21.34H13.5833V22.3ZM17.7094 25.78H14.2907V21.22H17.7094V25.78ZM29.7927 25.66H18.4167V24.7H29.7927V25.66ZM29.7927 22.3H26.9956C26.9018 22.3 26.8118 22.3379 26.7455 22.4054C26.6792 22.473 26.6419 22.5645 26.6419 22.66C26.6419 22.7555 26.6792 22.847 26.7455 22.9146C26.8118 22.9821 26.9018 23.02 26.9956 23.02H29.7927V23.98H18.4167V23.02H24.0484C24.1422 23.02 24.2322 22.9821 24.2985 22.9146C24.3648 22.847 24.4021 22.7555 24.4021 22.66C24.4021 22.5645 24.3648 22.473 24.2985 22.4054C24.2322 22.3379 24.1422 22.3 24.0484 22.3H18.4167V21.34H29.7927V22.3Z" stroke="currentColor" stroke-width="0.436957"/>
<path d="M10.6382 13.2905C10.6225 13.9595 10.7283 14.6258 10.9501 15.2558C10.966 15.3003 10.9904 15.3411 11.0218 15.376C11.0532 15.4109 11.091 15.4392 11.1332 15.4592C11.1753 15.4791 11.2209 15.4905 11.2674 15.4926C11.3138 15.4946 11.3602 15.4873 11.4039 15.4711C11.4476 15.455 11.4877 15.4302 11.522 15.3982C11.5562 15.3662 11.584 15.3277 11.6036 15.2848C11.6233 15.2419 11.6344 15.1955 11.6364 15.1482C11.6384 15.1009 11.6313 15.0537 11.6154 15.0092C11.2396 13.9402 11.2526 12.7695 11.6523 11.7094C12.0519 10.6494 12.8116 9.77031 13.7935 9.23166C14.7754 8.69302 15.9144 8.53051 17.004 8.77363C18.0935 9.01675 19.0613 9.64939 19.7318 10.5568C20.4023 11.4641 20.7311 12.5861 20.6585 13.7191C20.5858 14.8521 20.1166 15.9211 19.3359 16.732C18.5552 17.543 17.5148 18.0422 16.4035 18.1391C15.2921 18.236 14.1835 17.9241 13.2787 17.2601C13.2026 17.2084 13.1098 17.1887 13.0198 17.2051C12.9297 17.2215 12.8495 17.2728 12.7958 17.3482C12.7421 17.4237 12.7192 17.5173 12.732 17.6095C12.7447 17.7017 12.792 17.7854 12.864 17.8428C13.5487 18.3455 14.3403 18.6767 15.1743 18.8092C16.0084 18.9418 16.8615 18.872 17.6641 18.6056C18.4667 18.3393 19.1962 17.8838 19.7932 17.2762C20.3903 16.6686 20.838 15.9262 21.0999 15.1093C21.3618 14.2923 21.4306 13.424 21.3006 12.5749C21.1706 11.7258 20.8456 10.92 20.3519 10.2229C19.8582 9.52585 19.2098 8.95727 18.4594 8.56344C17.7091 8.1696 16.8781 7.96164 16.0339 7.95647C13.1206 7.93847 10.7042 10.3256 10.6382 13.2905Z" stroke="currentColor" stroke-width="0.436957"/>
<path d="M13.9289 14.6829C13.8351 14.6829 13.7452 14.7208 13.6788 14.7883C13.6125 14.8558 13.5752 14.9474 13.5752 15.0429C13.5752 15.1384 13.6125 15.2299 13.6788 15.2974C13.7452 15.365 13.8351 15.4029 13.9289 15.4029H14.6584V16.5164C14.6584 16.6118 14.6957 16.7034 14.762 16.7709C14.8283 16.8384 14.9183 16.8764 15.0121 16.8764C15.1059 16.8764 15.1958 16.8384 15.2622 16.7709C15.3285 16.7034 15.3658 16.6118 15.3658 16.5164V15.4029H17.5336C17.6274 15.4029 17.7174 15.365 17.7837 15.2974C17.85 15.2299 17.8873 15.1384 17.8873 15.0429C17.8873 14.9474 17.85 14.8558 17.7837 14.7883C17.7174 14.7208 17.6274 14.6829 17.5336 14.6829H15.3658V13.976H16.4956C17.0089 13.976 17.5011 13.7684 17.864 13.399C18.2269 13.0296 18.4307 12.5286 18.4307 12.0062C18.4307 11.4837 18.2269 10.9827 17.864 10.6133C17.5011 10.2439 17.0089 10.0364 16.4956 10.0364H15.0121C14.9183 10.0364 14.8283 10.0743 14.762 10.1418C14.6957 10.2093 14.6584 10.3009 14.6584 10.3964V13.256H13.9289C13.8351 13.256 13.7452 13.2939 13.6788 13.3614C13.6125 13.4289 13.5752 13.5205 13.5752 13.616C13.5752 13.7114 13.6125 13.803 13.6788 13.8705C13.7452 13.938 13.8351 13.976 13.9289 13.976H14.6584V14.6829H13.9289ZM15.3658 10.7564H16.4956C16.8213 10.7564 17.1336 10.888 17.3638 11.1224C17.5941 11.3568 17.7234 11.6747 17.7234 12.0062C17.7234 12.3376 17.5941 12.6555 17.3638 12.8899C17.1336 13.1243 16.8213 13.256 16.4956 13.256H15.3658V10.7564Z" stroke="currentColor" stroke-width="0.436957"/>
</svg>
