<svg id="svg-phone-bordered" viewBox="0 0 17 17" fill="none" xmlns="http://www.w3.org/2000/svg">
<rect x="1.26905" y="1.31959" width="15.2593" height="15.2593" rx="7.62963" stroke="currentColor" stroke-width="0.740741"/>
<path d="M11.149 7.67321L12.6535 6.16866C12.832 5.99023 12.832 5.70093 12.6535 5.5225C12.4751 5.34406 12.1858 5.34406 12.0074 5.5225L10.5028 7.02705V6.30249C10.5028 6.05015 10.2982 5.84558 10.0459 5.84558C9.79355 5.84558 9.58898 6.05015 9.58898 6.30249V8.12981C9.58898 8.13026 9.58898 8.13104 9.58898 8.13149C9.58917 8.19295 9.60148 8.25154 9.62365 8.30502C9.64544 8.35769 9.67751 8.4071 9.71984 8.45021C9.72181 8.45222 9.7238 8.45421 9.7258 8.45618C9.76891 8.49851 9.81833 8.53057 9.87099 8.55236C9.92487 8.5747 9.98394 8.58703 10.0459 8.58703H11.8735C12.1259 8.58703 12.3304 8.38247 12.3304 8.13012C12.3304 7.87778 12.1259 7.67321 11.8735 7.67321H11.149Z" fill="currentColor"/>
<path d="M5.47681 5.84558C5.47681 5.59324 5.68137 5.38867 5.93372 5.38867H6.91738C7.14074 5.38867 7.33135 5.55015 7.36807 5.77047L7.70587 7.79725C7.73885 7.99511 7.63892 8.19134 7.45951 8.28104L6.75216 8.63472C7.2622 9.90216 8.27385 10.9138 9.5413 11.4239L9.89497 10.7165C9.98468 10.5371 10.1809 10.4372 10.3788 10.4701L12.4056 10.8079C12.6259 10.8447 12.7873 11.0353 12.7873 11.2586V12.2423C12.7873 12.4946 12.5828 12.6992 12.3304 12.6992H11.4166C8.13615 12.6992 5.47681 10.0399 5.47681 6.7594V5.84558Z" fill="currentColor"/>
</svg>
