<svg id="svg-profit" viewBox="0 0 40 40" fill="none" xmlns="http://www.w3.org/2000/svg">
<path d="M15.9033 6.32251H32.5" stroke="currentColor" stroke-width="1.10918" stroke-miterlimit="10" stroke-linecap="round" stroke-linejoin="round"/>
<path d="M6.55574 29.015H3.7909C2.55754 29.015 1.55762 28.0151 1.55762 26.7817V8.55494C1.55762 7.32158 2.55754 6.32166 3.7909 6.32166H4.39246" stroke="currentColor" stroke-width="1.10918" stroke-miterlimit="10" stroke-linecap="round" stroke-linejoin="round"/>
<path d="M37.6966 14.1212V26.7817C37.6966 28.015 36.6966 29.0149 35.4633 29.0149L13.75 29.015" stroke="currentColor" stroke-width="1.10918" stroke-miterlimit="10" stroke-linecap="round" stroke-linejoin="round"/>
<path d="M14.5518 9.17065H33.1" stroke="currentColor" stroke-width="1.10918" stroke-miterlimit="10" stroke-linecap="round" stroke-linejoin="round"/>
<path d="M1.55762 9.17065H5.75105" stroke="currentColor" stroke-width="1.10918" stroke-miterlimit="10" stroke-linecap="round" stroke-linejoin="round"/>
<path d="M12.0309 6.31658C12.0309 7.36119 11.1841 8.20807 10.1395 8.20807C9.09484 8.20807 8.24805 7.36119 8.24805 6.31658C8.24805 5.27198 9.09484 4.42518 10.1395 4.42518C11.1841 4.42518 12.0309 5.27198 12.0309 6.31658Z" stroke="currentColor" stroke-width="1.10918" stroke-miterlimit="10" stroke-linecap="round" stroke-linejoin="round"/>
<path d="M15.9125 7.27389V5.35897L14.1687 4.99194C14.1032 4.79327 14.0233 4.60124 13.9302 4.41686L14.9039 2.92397L13.5499 1.56991L12.057 2.54358C11.8727 2.45061 11.6806 2.37069 11.482 2.30515L11.1149 0.561318H9.2L8.83297 2.30515C8.6343 2.37069 8.44227 2.45061 8.25789 2.54358L6.765 1.56991L5.41094 2.92397L6.38461 4.41686C6.29164 4.60124 6.21172 4.79327 6.14617 4.99194L4.40234 5.35897V7.27389L6.14617 7.64093C6.21172 7.8396 6.29164 8.03163 6.38461 8.21608L5.41094 9.70889L6.765 11.0629L8.25789 10.0892C8.44227 10.1823 8.6343 10.2621 8.83297 10.3277L9.2 12.0715H11.1149L11.482 10.3277C11.6806 10.2621 11.8727 10.1823 12.057 10.0892L13.5499 11.0629L14.9039 9.70889L13.9302 8.21608C14.0233 8.03163 14.1032 7.8396 14.1687 7.64093L15.9125 7.27389Z" stroke="currentColor" stroke-width="1.10918" stroke-miterlimit="10" stroke-linecap="round" stroke-linejoin="round"/>
<path d="M12.0406 17.4117H6.07227V15.1468H12.0406V17.4117Z" stroke="currentColor" stroke-width="1.10918" stroke-miterlimit="10" stroke-linecap="round" stroke-linejoin="round"/>
<path d="M20.4064 14.6476L22.2278 12.8263C22.4412 12.6129 22.7855 12.6129 22.998 12.8263L25.8338 15.6612C26.0471 15.8745 26.3913 15.8745 26.6039 15.6612L34.578 7.68702H33.6087C33.2962 7.68702 33.013 7.56014 32.8084 7.35553C32.6038 7.15092 32.4768 6.86686 32.4768 6.55436C32.4768 5.92936 32.9837 5.42249 33.6087 5.42249H37.328C37.9452 5.42249 38.4449 5.92217 38.4449 6.5385V10.2579C38.4449 10.5712 38.318 10.8536 38.1133 11.059C37.9087 11.2637 37.6248 11.3906 37.3122 11.3906C36.6872 11.3906 36.1795 10.8837 36.1795 10.2579V9.28936L26.6039 18.8641C26.3913 19.0775 26.0471 19.0775 25.8345 18.8641L22.998 16.0284C22.7855 15.8158 22.4412 15.8158 22.2278 16.0284L17.4195 20.8376C16.9776 21.2802 16.2605 21.2802 15.818 20.8376C15.5966 20.6163 15.4863 20.3268 15.4863 20.0373C15.4863 19.7469 15.5966 19.4574 15.818 19.2361L18.4537 16.6005" stroke="currentColor" stroke-width="1.10918" stroke-miterlimit="10" stroke-linecap="round" stroke-linejoin="round"/>
<path d="M23.0186 25.0989H34.1235" stroke="currentColor" stroke-width="1.10918" stroke-miterlimit="10" stroke-linecap="round" stroke-linejoin="round"/>
<path d="M27.5322 22.5277H34.1159" stroke="currentColor" stroke-width="1.10918" stroke-miterlimit="10" stroke-linecap="round" stroke-linejoin="round"/>
<path d="M6.07129 19.64H10.1482" stroke="currentColor" stroke-width="1.10918" stroke-miterlimit="10" stroke-linecap="round" stroke-linejoin="round"/>
<path d="M19.6302 39.3922C19.0826 39.3922 18.6387 38.9482 18.6387 38.4007V29.0122H20.6216V38.4007C20.6216 38.9482 20.1778 39.3922 19.6302 39.3922Z" stroke="currentColor" stroke-width="1.10918" stroke-miterlimit="10" stroke-linecap="round" stroke-linejoin="round"/>
<path d="M15.684 29.0125L13.2217 38.6462C13.1095 39.0851 12.7141 39.3922 12.2611 39.3922H12.0584C11.4112 39.3922 10.9375 38.7822 11.0978 38.1551L12.821 31.4128" stroke="currentColor" stroke-width="1.10918" stroke-miterlimit="10" stroke-linecap="round" stroke-linejoin="round"/>
<path d="M26.9756 39.3922H27.1784C27.8255 39.3922 28.2992 38.7822 28.139 38.1551L25.8022 29.0122H23.5527L26.015 38.6461C26.1272 39.085 26.5226 39.3922 26.9756 39.3922Z" stroke="currentColor" stroke-width="1.10918" stroke-miterlimit="10" stroke-linecap="round" stroke-linejoin="round"/>
<path d="M13.7492 29.0098C13.7492 30.9937 12.1408 32.6016 10.1571 32.6016C9.87887 32.6016 9.60777 32.5698 9.34762 32.5101C7.75395 32.1428 6.56543 30.7154 6.56543 29.0098C6.56543 27.3043 7.75395 25.8769 9.34762 25.5096C9.60777 25.45 9.87887 25.4182 10.1571 25.4182C12.1408 25.4182 13.7492 27.0261 13.7492 29.0098Z" stroke="currentColor" stroke-width="1.10918" stroke-miterlimit="10" stroke-linecap="round" stroke-linejoin="round"/>
<path d="M10.1445 28.2258V29.8062" stroke="currentColor" stroke-width="1.10918" stroke-miterlimit="10" stroke-linecap="round" stroke-linejoin="round"/>
</svg>
