<svg id="svg-rubles" viewBox="0 0 40 40" fill="none" xmlns="http://www.w3.org/2000/svg">
<path d="M7.03223 8.82587C7.03144 9.53011 6.75133 10.2053 6.25336 10.7033C5.75539 11.2012 5.08022 11.4813 4.37598 11.4821C4.25166 11.4821 4.13243 11.5315 4.04452 11.6194C3.95661 11.7073 3.90723 11.8265 3.90723 11.9509V21.3259C3.90723 21.4502 3.95661 21.5694 4.04452 21.6573C4.13243 21.7452 4.25166 21.7946 4.37598 21.7946C5.08022 21.7954 5.75539 22.0755 6.25336 22.5735C6.75133 23.0715 7.03144 23.7466 7.03223 24.4509C7.03223 24.5752 7.08161 24.6944 7.16952 24.7823C7.25743 24.8702 7.37666 24.9196 7.50098 24.9196H32.501C32.6253 24.9196 32.7445 24.8702 32.8324 24.7823C32.9203 24.6944 32.9697 24.5752 32.9697 24.4509C32.9705 23.7466 33.2506 23.0715 33.7486 22.5735C34.2466 22.0755 34.9217 21.7954 35.626 21.7946C35.7503 21.7946 35.8695 21.7452 35.9574 21.6573C36.0453 21.5694 36.0947 21.4502 36.0947 21.3259V11.9509C36.0947 11.8265 36.0453 11.7073 35.9574 11.6194C35.8695 11.5315 35.7503 11.4821 35.626 11.4821C34.9217 11.4813 34.2466 11.2012 33.7486 10.7033C33.2506 10.2053 32.9705 9.53011 32.9697 8.82587C32.9697 8.70155 32.9203 8.58232 32.8324 8.49441C32.7445 8.4065 32.6253 8.35712 32.501 8.35712H7.50098C7.37666 8.35712 7.25743 8.4065 7.16952 8.49441C7.08161 8.58232 7.03223 8.70155 7.03223 8.82587ZM32.0627 9.29462C32.167 10.0787 32.5266 10.8066 33.086 11.3659C33.6453 11.9252 34.3732 12.2848 35.1572 12.3891V20.8876C34.3732 20.9919 33.6453 21.3515 33.086 21.9108C32.5266 22.4702 32.167 23.1981 32.0627 23.9821H7.93926C7.83491 23.1981 7.47531 22.4702 6.916 21.9108C6.35669 21.3515 5.62879 20.9919 4.84473 20.8876V12.3891C5.62879 12.2848 6.35669 11.9252 6.916 11.3659C7.47531 10.8066 7.83491 10.0787 7.93926 9.29462H32.0627Z" fill="currentColor"/>
<path d="M6.03516 16.6334C6.03516 17.0969 6.17261 17.5501 6.43015 17.9355C6.68768 18.3209 7.05373 18.6213 7.48199 18.7987C7.91026 18.9761 8.38151 19.0225 8.83615 18.9321C9.29079 18.8416 9.70841 18.6184 10.0362 18.2906C10.364 17.9629 10.5872 17.5452 10.6776 17.0906C10.7681 16.636 10.7216 16.1647 10.5442 15.7364C10.3669 15.3082 10.0665 14.9421 9.68102 14.6846C9.2956 14.4271 8.84246 14.2896 8.37891 14.2896C7.75751 14.2903 7.16177 14.5374 6.72238 14.9768C6.28299 15.4162 6.03584 16.012 6.03516 16.6334ZM8.37891 15.2271C8.65704 15.2271 8.92892 15.3096 9.16018 15.4641C9.39143 15.6186 9.57168 15.8383 9.67811 16.0952C9.78455 16.3522 9.8124 16.6349 9.75814 16.9077C9.70388 17.1805 9.56994 17.4311 9.37328 17.6277C9.17661 17.8244 8.92604 17.9583 8.65325 18.0126C8.38047 18.0669 8.09772 18.039 7.84076 17.9326C7.5838 17.8261 7.36417 17.6459 7.20965 17.4146C7.05513 17.1834 6.97266 16.9115 6.97266 16.6334C6.97309 16.2605 7.12139 15.9031 7.38502 15.6395C7.64865 15.3758 8.00608 15.2275 8.37891 15.2271Z" fill="currentColor"/>
<path d="M31.6055 18.9771C32.069 18.9771 32.5222 18.8397 32.9076 18.5821C33.293 18.3246 33.5934 17.9585 33.7708 17.5303C33.9482 17.102 33.9946 16.6308 33.9042 16.1761C33.8137 15.7215 33.5905 15.3039 33.2627 14.9761C32.935 14.6483 32.5174 14.4251 32.0627 14.3346C31.6081 14.2442 31.1368 14.2906 30.7086 14.468C30.2803 14.6454 29.9142 14.9458 29.6567 15.3312C29.3992 15.7167 29.2617 16.1698 29.2617 16.6334C29.2624 17.2548 29.5096 17.8505 29.9489 18.2899C30.3883 18.7293 30.9841 18.9764 31.6055 18.9771ZM31.6055 15.2271C31.8836 15.2271 32.1555 15.3096 32.3867 15.4641C32.618 15.6186 32.7982 15.8383 32.9047 16.0952C33.0111 16.3522 33.039 16.6349 32.9847 16.9077C32.9304 17.1805 32.7965 17.4311 32.5998 17.6277C32.4032 17.8244 32.1526 17.9583 31.8798 18.0126C31.607 18.0669 31.3243 18.039 31.0673 17.9326C30.8104 17.8261 30.5907 17.6459 30.4362 17.4146C30.2817 17.1834 30.1992 16.9115 30.1992 16.6334C30.1996 16.2605 30.3479 15.9031 30.6116 15.6395C30.8752 15.3758 31.2326 15.2275 31.6055 15.2271Z" fill="currentColor"/>
<path d="M10.6436 11.1904H14.4968C14.6211 11.1904 14.7403 11.141 14.8282 11.0531C14.9161 10.9652 14.9655 10.846 14.9655 10.7217C14.9655 10.5974 14.9161 10.4781 14.8282 10.3902C14.7403 10.3023 14.6211 10.2529 14.4968 10.2529H10.6436C10.5192 10.2529 10.4 10.3023 10.3121 10.3902C10.2242 10.4781 10.1748 10.5974 10.1748 10.7217C10.1748 10.846 10.2242 10.9652 10.3121 11.0531C10.4 11.141 10.5192 11.1904 10.6436 11.1904Z" fill="currentColor"/>
<path d="M8.48926 11.1904H8.97895C9.10327 11.1904 9.22249 11.141 9.3104 11.0531C9.39831 10.9652 9.44769 10.846 9.44769 10.7217C9.44769 10.5974 9.39831 10.4781 9.3104 10.3902C9.22249 10.3023 9.10327 10.2529 8.97895 10.2529H8.48926C8.36494 10.2529 8.24571 10.3023 8.1578 10.3902C8.06989 10.4781 8.02051 10.5974 8.02051 10.7217C8.02051 10.846 8.06989 10.9652 8.1578 11.0531C8.24571 11.141 8.36494 11.1904 8.48926 11.1904Z" fill="currentColor"/>
<path d="M38.7422 26.0069H38.4297V7.10065C38.4297 6.89345 38.3474 6.69473 38.2009 6.54822C38.0544 6.40171 37.8556 6.3194 37.6484 6.3194H11.3924C11.2681 6.3194 11.1489 6.36878 11.061 6.45669C10.9731 6.5446 10.9237 6.66383 10.9237 6.78815C10.9237 6.91247 10.9731 7.0317 11.061 7.1196C11.1489 7.20751 11.2681 7.2569 11.3924 7.2569H37.4922V26.0069H23.0752C23.0314 25.9577 22.9777 25.9184 22.9176 25.8915C22.8575 25.8646 22.7924 25.8506 22.7266 25.8506H17.2578C17.192 25.8506 17.1269 25.8646 17.0668 25.8915C17.0067 25.9184 16.953 25.9577 16.9091 26.0069H2.49219V7.2569H7.48617C7.61049 7.2569 7.72972 7.20751 7.81763 7.1196C7.90554 7.0317 7.95492 6.91247 7.95492 6.78815C7.95492 6.66383 7.90554 6.5446 7.81763 6.45669C7.72972 6.36878 7.61049 6.3194 7.48617 6.3194H2.33594C2.12874 6.3194 1.93002 6.40171 1.78351 6.54822C1.637 6.69473 1.55469 6.89345 1.55469 7.10065V26.0069H1.24219C1.11787 26.0069 0.998639 26.0563 0.910731 26.1442C0.822824 26.2321 0.773438 26.3513 0.773438 26.4756V33.0381C0.773438 33.1625 0.822824 33.2817 0.910731 33.3696C0.998639 33.4575 1.11787 33.5069 1.24219 33.5069H16.9091C16.953 33.556 17.0067 33.5954 17.0668 33.6223C17.1269 33.6492 17.192 33.6632 17.2578 33.6631H22.7266C22.7924 33.6632 22.8575 33.6492 22.9176 33.6223C22.9777 33.5954 23.0314 33.556 23.0752 33.5069H38.7422C38.8665 33.5069 38.9857 33.4575 39.0736 33.3696C39.1616 33.2817 39.2109 33.1625 39.2109 33.0381V26.4756C39.2109 26.3513 39.1616 26.2321 39.0736 26.1442C38.9857 26.0563 38.8665 26.0069 38.7422 26.0069ZM16.7891 32.5694H1.71094V31.3194H16.7891V32.5694ZM16.7891 30.3819H1.71094V29.1319H16.7891V30.3819ZM16.7891 28.1944H1.71094V26.9444H16.7891V28.1944ZM22.2578 32.7256H17.7266V26.7881H22.2578V32.7256ZM38.2734 32.5694H23.1953V31.3194H38.2734V32.5694ZM38.2734 28.1944H34.5661C34.4418 28.1944 34.3225 28.2438 34.2346 28.3317C34.1467 28.4196 34.0973 28.5388 34.0973 28.6631C34.0973 28.7875 34.1467 28.9067 34.2346 28.9946C34.3225 29.0825 34.4418 29.1319 34.5661 29.1319H38.2734V30.3819H23.1953V29.1319H30.6598C30.7842 29.1319 30.9034 29.0825 30.9913 28.9946C31.0792 28.9067 31.1286 28.7875 31.1286 28.6631C31.1286 28.5388 31.0792 28.4196 30.9913 28.3317C30.9034 28.2438 30.7842 28.1944 30.6598 28.1944H23.1953V26.9444H38.2734V28.1944Z" fill="currentColor"/>
<path d="M12.8848 16.4633C12.864 17.3345 13.0041 18.202 13.2982 19.0223C13.3193 19.0802 13.3516 19.1334 13.3932 19.1788C13.4348 19.2243 13.485 19.261 13.5409 19.2871C13.5967 19.3131 13.6571 19.3279 13.7187 19.3306C13.7803 19.3332 13.8417 19.3238 13.8996 19.3027C13.9575 19.2816 14.0107 19.2493 14.0561 19.2077C14.1016 19.166 14.1383 19.1159 14.1644 19.06C14.1904 19.0042 14.2052 18.9437 14.2079 18.8822C14.2105 18.8206 14.2011 18.7591 14.18 18.7012C13.6819 17.3093 13.6992 15.7849 14.2289 14.4046C14.7585 13.0244 15.7655 11.8797 17.0669 11.1784C18.3683 10.477 19.8781 10.2654 21.3222 10.582C22.7663 10.8985 24.0491 11.7223 24.9378 12.9037C25.8265 14.0852 26.2622 15.5461 26.1659 17.0214C26.0697 18.4966 25.4477 19.8885 24.413 20.9444C23.3783 22.0004 21.9993 22.6504 20.5263 22.7765C19.0533 22.9027 17.5838 22.4967 16.3846 21.6321C16.2838 21.5647 16.1608 21.539 16.0414 21.5604C15.9221 21.5818 15.8157 21.6486 15.7445 21.7468C15.6734 21.845 15.6431 21.967 15.6599 22.087C15.6768 22.2071 15.7395 22.316 15.835 22.3908C16.7424 23.0454 17.7916 23.4765 18.8971 23.6492C20.0027 23.8218 21.1333 23.7309 22.1972 23.3841C23.261 23.0372 24.2279 22.4441 25.0192 21.653C25.8105 20.8619 26.4039 19.8952 26.751 18.8315C27.0982 17.7678 27.1894 16.6371 27.0171 15.5316C26.8448 14.426 26.4139 13.3767 25.7596 12.469C25.1052 11.5614 24.2458 10.8211 23.2513 10.3083C22.2568 9.79547 21.1553 9.52468 20.0364 9.51795C16.1751 9.49452 12.9723 12.6028 12.8848 16.4633Z" fill="currentColor"/>
<path d="M17.2471 18.2763C17.1228 18.2763 17.0035 18.3257 16.9156 18.4136C16.8277 18.5015 16.7783 18.6207 16.7783 18.745C16.7783 18.8694 16.8277 18.9886 16.9156 19.0765C17.0035 19.1644 17.1228 19.2138 17.2471 19.2138H18.214V20.6636C18.214 20.788 18.2634 20.9072 18.3513 20.9951C18.4392 21.083 18.5585 21.1324 18.6828 21.1324C18.8071 21.1324 18.9263 21.083 19.0142 20.9951C19.1021 20.9072 19.1515 20.788 19.1515 20.6636V19.2138H22.0249C22.1492 19.2138 22.2684 19.1644 22.3563 19.0765C22.4442 18.9886 22.4936 18.8694 22.4936 18.745C22.4936 18.6207 22.4442 18.5015 22.3563 18.4136C22.2684 18.3257 22.1492 18.2763 22.0249 18.2763H19.1515V17.3558H20.6491C21.3293 17.3558 21.9817 17.0856 22.4627 16.6046C22.9437 16.1236 23.2139 15.4712 23.2139 14.791C23.2139 14.1107 22.9437 13.4584 22.4627 12.9774C21.9817 12.4964 21.3293 12.2261 20.6491 12.2261H18.6828C18.5585 12.2261 18.4392 12.2755 18.3513 12.3634C18.2634 12.4513 18.214 12.5706 18.214 12.6949V16.4183H17.2471C17.1228 16.4183 17.0035 16.4677 16.9156 16.5556C16.8277 16.6435 16.7783 16.7628 16.7783 16.8871C16.7783 17.0114 16.8277 17.1306 16.9156 17.2185C17.0035 17.3064 17.1228 17.3558 17.2471 17.3558H18.214V18.2763H17.2471ZM19.1515 13.1636H20.6491C21.0807 13.1636 21.4946 13.3351 21.7998 13.6403C22.105 13.9455 22.2764 14.3594 22.2764 14.791C22.2764 15.2226 22.105 15.6365 21.7998 15.9417C21.4946 16.2469 21.0807 16.4183 20.6491 16.4183H19.1515V13.1636Z" fill="currentColor"/>
</svg>
