<svg id="svg-telegram" viewBox="0 0 41 40" fill="currentColor" xmlns="http://www.w3.org/2000/svg">
<path d="M12.7308 19.0755C17.0257 17.2042 19.8897 15.9706 21.3227 15.3746C25.4142 13.6728 26.2644 13.3771 26.8185 13.3673C26.9404 13.3652 27.2129 13.3954 27.3894 13.5387C27.5385 13.6596 27.5795 13.823 27.5991 13.9377C27.6187 14.0523 27.6432 14.3135 27.6237 14.5177C27.402 16.8473 26.4426 22.5007 25.9546 25.1099C25.748 26.214 25.3414 26.5842 24.9477 26.6204C24.0921 26.6991 23.4425 26.055 22.6138 25.5118C21.3171 24.6618 20.5846 24.1326 19.3259 23.3032C17.8713 22.3446 18.8142 21.8178 19.6432 20.9568C19.8602 20.7314 23.6298 17.3026 23.7028 16.9916C23.7119 16.9527 23.7204 16.8077 23.6342 16.7311C23.5481 16.6546 23.4209 16.6807 23.3292 16.7016C23.1991 16.7311 21.1277 18.1003 17.1147 20.8091C16.5268 21.2128 15.9942 21.4096 15.517 21.3993C14.991 21.3879 13.9791 21.1018 13.2268 20.8573C12.3042 20.5574 11.5709 20.3988 11.6347 19.8895C11.668 19.6242 12.0333 19.3528 12.7308 19.0755Z" />
</svg>
