<svg id="svg-trade" viewBox="0 0 48 48" fill="none" xmlns="http://www.w3.org/2000/svg">
<path d="M26.7879 13.8939C26.7879 6.78479 21.003 0.999939 13.8939 0.999939C6.85454 0.999939 1 6.78479 1 13.8939C1 21.003 6.78485 26.7878 13.8939 26.7878C20.9333 26.7878 26.7879 21.003 26.7879 13.8939ZM4.27576 20.2363L5.11212 19.7484C5.4606 19.5393 5.5303 19.1211 5.39091 18.7727C5.18182 18.4242 4.76364 18.3545 4.41515 18.4939L3.57879 18.9818C2.88182 17.6575 2.46364 16.1242 2.39394 14.5211H3.3697C3.78788 14.5211 4.06667 14.2424 4.06667 13.8242C4.06667 13.406 3.78788 13.1272 3.3697 13.1272H2.39394C2.46364 11.5242 2.88182 10.0605 3.57879 8.6666L4.41515 9.15448C4.76364 9.36357 5.18182 9.22418 5.39091 8.8757C5.6 8.52721 5.4606 8.10903 5.11212 7.89994L4.27576 7.41206C5.18182 6.29691 6.29697 5.18176 7.55151 4.2757L8.03939 5.11206C8.24848 5.46054 8.66667 5.53024 9.01515 5.39085C9.36364 5.18176 9.43333 4.76357 9.29394 4.41509L8.80606 3.57873C10.1303 2.88176 11.6636 2.46358 13.2667 2.39388V3.36964C13.2667 3.78782 13.5455 4.06661 13.9636 4.06661C14.3818 4.06661 14.6606 3.78782 14.6606 3.36964V2.39388C16.2636 2.46358 17.7273 2.88176 19.1212 3.57873L18.6333 4.41509C18.4242 4.76357 18.5636 5.18176 18.9121 5.39085C19.2606 5.59994 19.6788 5.46054 19.8879 5.11206L20.3758 4.2757C21.6303 5.11206 22.7455 6.22721 23.6515 7.55145L22.8151 8.03933C22.4667 8.24842 22.397 8.6666 22.5364 9.01509C22.7455 9.36357 23.1636 9.43327 23.5121 9.29388L24.3485 8.806C25.0455 10.1302 25.4636 11.6636 25.5333 13.2666H24.5576C24.1394 13.2666 23.8606 13.5454 23.8606 13.9636C23.8606 14.3818 24.1394 14.6605 24.5576 14.6605H25.3939C25.3242 16.2636 24.9061 17.7272 24.2091 19.1211L23.3727 18.6333C23.0242 18.4242 22.6061 18.5636 22.397 18.9121C22.1879 19.2605 22.3273 19.6787 22.6758 19.8878L23.5121 20.3757C22.6758 21.6302 21.5606 22.7454 20.2364 23.6515L19.7485 22.8151C19.5394 22.4666 19.1212 22.3969 18.7727 22.5363C18.4242 22.7454 18.3545 23.1636 18.4939 23.5121L18.9818 24.3484C17.6576 25.0454 16.1242 25.4636 14.5212 25.5333V24.5575C14.5212 24.1393 14.2424 23.8605 13.8242 23.8605C13.4061 23.8605 13.1273 24.1393 13.1273 24.5575V25.3939C11.5242 25.3242 10.0606 24.906 8.66667 24.209L9.15454 23.3727C9.36363 23.0242 9.22424 22.606 8.87576 22.3969C8.52727 22.1878 8.10909 22.3272 7.9 22.6757L7.41212 23.5121C6.29697 22.606 5.18182 21.5605 4.27576 20.2363Z" fill="currentColor"/>
<path d="M34.1061 21.2122C26.997 21.2122 21.2121 26.997 21.2121 34.1061C21.2121 41.2152 26.997 47 34.1061 47C41.2152 47 47 41.2152 47 34.1061C47 26.997 41.2152 21.2122 34.1061 21.2122ZM34.1061 45.6061C27.7636 45.6061 22.6061 40.4485 22.6061 34.1061C22.6061 27.7637 27.7636 22.6061 34.1061 22.6061C40.4485 22.6061 45.6061 27.7637 45.6061 34.1061C45.6061 40.4485 40.4485 45.6061 34.1061 45.6061Z" fill="currentColor"/>
<path d="M13.894 16.0544C14.8698 16.0544 15.6365 15.4271 15.9153 14.5908H20.5153C20.9334 14.5908 21.2122 14.312 21.2122 13.8938C21.2122 13.4756 20.9334 13.1968 20.5153 13.1968H15.9153C15.7062 12.5695 15.2183 12.0817 14.591 11.8726V5.80893C14.591 5.39075 14.3122 5.11197 13.894 5.11197C13.4759 5.11197 13.1971 5.39075 13.1971 5.80893V11.8726C12.3607 12.1514 11.7334 12.9877 11.7334 13.8938C11.7334 15.0786 12.7092 16.0544 13.894 16.0544ZM13.894 13.1271C14.3122 13.1271 14.6607 13.4756 14.6607 13.8938C14.6607 14.312 14.3122 14.6604 13.894 14.6604C13.4759 14.6604 13.1274 14.312 13.1274 13.8938C13.1274 13.4756 13.4759 13.1271 13.894 13.1271Z" fill="currentColor"/>
<path d="M34.1061 24.697C28.8788 24.697 24.697 28.8789 24.697 34.1061C24.697 39.3334 28.8788 43.5152 34.1061 43.5152C39.3334 43.5152 43.5152 39.2637 43.5152 34.1061C43.5152 28.9486 39.3334 24.697 34.1061 24.697ZM34.1061 42.1213C29.7152 42.1213 26.0909 38.497 26.0909 34.1061C26.0909 29.7152 29.7152 26.091 34.1061 26.091C38.497 26.091 42.1212 29.6455 42.1212 34.1061C42.1212 38.5667 38.497 42.1213 34.1061 42.1213Z" fill="currentColor"/>
<path d="M29.1575 6.15724C34.8727 7.89966 39.3333 12.2906 41.1454 18.0057L39.5424 17.3784C39.1939 17.2391 38.7757 17.4481 38.6363 17.7966C38.4969 18.1451 38.706 18.5633 39.0545 18.7027L42.3302 19.9572C42.6787 20.0966 43.0969 19.8875 43.2363 19.5391L44.4908 16.2633C44.6302 15.9148 44.4211 15.4966 44.0727 15.3572C43.7242 15.2178 43.306 15.4269 43.1666 15.7754L42.4696 17.5875C40.5181 11.4542 35.709 6.64512 29.5757 4.833C29.2272 4.6936 28.809 4.90269 28.7393 5.32087C28.5999 5.66936 28.809 6.01784 29.1575 6.15724Z" fill="currentColor"/>
<path d="M18.8425 41.8422C13.1273 40.0997 8.66674 35.7088 6.85462 29.9937L8.45765 30.6209C8.80614 30.7603 9.22432 30.5513 9.36371 30.2028C9.50311 29.8543 9.29402 29.4361 8.94553 29.2967L5.66978 28.0422C5.32129 27.9028 4.90311 28.0422 4.76371 28.4603L3.50917 31.7361C3.36978 32.0846 3.57887 32.5028 3.92735 32.6422C4.27584 32.7816 4.69402 32.5725 4.83341 32.224L5.53038 30.4119C7.4819 36.5452 12.291 41.3543 18.4243 43.1664H18.6334C18.9122 43.1664 19.191 42.9573 19.3304 42.6785C19.4001 42.33 19.191 41.9816 18.8425 41.8422Z" fill="currentColor"/>
<path d="M34.1062 31.3182C34.6637 31.3182 35.1516 31.8061 35.1516 32.3637C35.1516 32.7818 35.4304 33.0606 35.8486 33.0606C36.2668 33.0606 36.5456 32.7818 36.5456 32.3637C36.5456 31.2485 35.7789 30.3424 34.8031 30.0637V29.4364C34.8031 29.0182 34.5243 28.7394 34.1062 28.7394C33.688 28.7394 33.4092 29.0182 33.4092 29.4364V30.0637C32.4334 30.3424 31.6668 31.2485 31.6668 32.3637C31.6668 33.6879 32.7819 34.803 34.1062 34.803C34.6637 34.803 35.1516 35.2909 35.1516 35.8485C35.1516 36.4061 34.6637 36.894 34.1062 36.894C33.5486 36.894 33.0607 36.4061 33.0607 35.8485C33.0607 35.4303 32.7819 35.1515 32.3637 35.1515C31.9456 35.1515 31.6668 35.4303 31.6668 35.8485C31.6668 36.9637 32.4334 37.8697 33.4092 38.1485V38.7758C33.4092 39.194 33.688 39.4727 34.1062 39.4727C34.5243 39.4727 34.8031 39.194 34.8031 38.7758V38.1485C35.7789 37.8697 36.5456 36.894 36.5456 35.8485C36.5456 34.5243 35.4304 33.4091 34.1062 33.4091C33.5486 33.4091 33.0607 32.9212 33.0607 32.3637C33.0607 31.8061 33.5486 31.3182 34.1062 31.3182Z" fill="currentColor"/>
<path d="M26.7879 13.8939C26.7879 6.78479 21.003 0.999939 13.8939 0.999939C6.85454 0.999939 1 6.78479 1 13.8939C1 21.003 6.78485 26.7878 13.8939 26.7878C20.9333 26.7878 26.7879 21.003 26.7879 13.8939ZM4.27576 20.2363L5.11212 19.7484C5.4606 19.5393 5.5303 19.1211 5.39091 18.7727C5.18182 18.4242 4.76364 18.3545 4.41515 18.4939L3.57879 18.9818C2.88182 17.6575 2.46364 16.1242 2.39394 14.5211H3.3697C3.78788 14.5211 4.06667 14.2424 4.06667 13.8242C4.06667 13.406 3.78788 13.1272 3.3697 13.1272H2.39394C2.46364 11.5242 2.88182 10.0605 3.57879 8.6666L4.41515 9.15448C4.76364 9.36357 5.18182 9.22418 5.39091 8.8757C5.6 8.52721 5.4606 8.10903 5.11212 7.89994L4.27576 7.41206C5.18182 6.29691 6.29697 5.18176 7.55151 4.2757L8.03939 5.11206C8.24848 5.46054 8.66667 5.53024 9.01515 5.39085C9.36364 5.18176 9.43333 4.76357 9.29394 4.41509L8.80606 3.57873C10.1303 2.88176 11.6636 2.46358 13.2667 2.39388V3.36964C13.2667 3.78782 13.5455 4.06661 13.9636 4.06661C14.3818 4.06661 14.6606 3.78782 14.6606 3.36964V2.39388C16.2636 2.46358 17.7273 2.88176 19.1212 3.57873L18.6333 4.41509C18.4242 4.76357 18.5636 5.18176 18.9121 5.39085C19.2606 5.59994 19.6788 5.46054 19.8879 5.11206L20.3758 4.2757C21.6303 5.11206 22.7455 6.22721 23.6515 7.55145L22.8151 8.03933C22.4667 8.24842 22.397 8.6666 22.5364 9.01509C22.7455 9.36357 23.1636 9.43327 23.5121 9.29388L24.3485 8.806C25.0455 10.1302 25.4636 11.6636 25.5333 13.2666H24.5576C24.1394 13.2666 23.8606 13.5454 23.8606 13.9636C23.8606 14.3818 24.1394 14.6605 24.5576 14.6605H25.3939C25.3242 16.2636 24.9061 17.7272 24.2091 19.1211L23.3727 18.6333C23.0242 18.4242 22.6061 18.5636 22.397 18.9121C22.1879 19.2605 22.3273 19.6787 22.6758 19.8878L23.5121 20.3757C22.6758 21.6302 21.5606 22.7454 20.2364 23.6515L19.7485 22.8151C19.5394 22.4666 19.1212 22.3969 18.7727 22.5363C18.4242 22.7454 18.3545 23.1636 18.4939 23.5121L18.9818 24.3484C17.6576 25.0454 16.1242 25.4636 14.5212 25.5333V24.5575C14.5212 24.1393 14.2424 23.8605 13.8242 23.8605C13.4061 23.8605 13.1273 24.1393 13.1273 24.5575V25.3939C11.5242 25.3242 10.0606 24.906 8.66667 24.209L9.15454 23.3727C9.36363 23.0242 9.22424 22.606 8.87576 22.3969C8.52727 22.1878 8.10909 22.3272 7.9 22.6757L7.41212 23.5121C6.29697 22.606 5.18182 21.5605 4.27576 20.2363Z" stroke="currentColor"/>
<path d="M34.1061 21.2122C26.997 21.2122 21.2121 26.997 21.2121 34.1061C21.2121 41.2152 26.997 47 34.1061 47C41.2152 47 47 41.2152 47 34.1061C47 26.997 41.2152 21.2122 34.1061 21.2122ZM34.1061 45.6061C27.7636 45.6061 22.6061 40.4485 22.6061 34.1061C22.6061 27.7637 27.7636 22.6061 34.1061 22.6061C40.4485 22.6061 45.6061 27.7637 45.6061 34.1061C45.6061 40.4485 40.4485 45.6061 34.1061 45.6061Z" stroke="currentColor"/>
<path d="M13.894 16.0544C14.8698 16.0544 15.6365 15.4271 15.9153 14.5908H20.5153C20.9334 14.5908 21.2122 14.312 21.2122 13.8938C21.2122 13.4756 20.9334 13.1968 20.5153 13.1968H15.9153C15.7062 12.5695 15.2183 12.0817 14.591 11.8726V5.80893C14.591 5.39075 14.3122 5.11197 13.894 5.11197C13.4759 5.11197 13.1971 5.39075 13.1971 5.80893V11.8726C12.3607 12.1514 11.7334 12.9877 11.7334 13.8938C11.7334 15.0786 12.7092 16.0544 13.894 16.0544ZM13.894 13.1271C14.3122 13.1271 14.6607 13.4756 14.6607 13.8938C14.6607 14.312 14.3122 14.6604 13.894 14.6604C13.4759 14.6604 13.1274 14.312 13.1274 13.8938C13.1274 13.4756 13.4759 13.1271 13.894 13.1271Z" stroke="currentColor"/>
<path d="M34.1061 24.697C28.8788 24.697 24.697 28.8789 24.697 34.1061C24.697 39.3334 28.8788 43.5152 34.1061 43.5152C39.3334 43.5152 43.5152 39.2637 43.5152 34.1061C43.5152 28.9486 39.3334 24.697 34.1061 24.697ZM34.1061 42.1213C29.7152 42.1213 26.0909 38.497 26.0909 34.1061C26.0909 29.7152 29.7152 26.091 34.1061 26.091C38.497 26.091 42.1212 29.6455 42.1212 34.1061C42.1212 38.5667 38.497 42.1213 34.1061 42.1213Z" stroke="currentColor"/>
<path d="M29.1575 6.15724C34.8727 7.89966 39.3333 12.2906 41.1454 18.0057L39.5424 17.3784C39.1939 17.2391 38.7757 17.4481 38.6363 17.7966C38.4969 18.1451 38.706 18.5633 39.0545 18.7027L42.3302 19.9572C42.6787 20.0966 43.0969 19.8875 43.2363 19.5391L44.4908 16.2633C44.6302 15.9148 44.4211 15.4966 44.0727 15.3572C43.7242 15.2178 43.306 15.4269 43.1666 15.7754L42.4696 17.5875C40.5181 11.4542 35.709 6.64512 29.5757 4.833C29.2272 4.6936 28.809 4.90269 28.7393 5.32087C28.5999 5.66936 28.809 6.01784 29.1575 6.15724Z" stroke="currentColor"/>
<path d="M18.8425 41.8422C13.1273 40.0997 8.66674 35.7088 6.85462 29.9937L8.45765 30.6209C8.80614 30.7603 9.22432 30.5513 9.36371 30.2028C9.50311 29.8543 9.29402 29.4361 8.94553 29.2967L5.66978 28.0422C5.32129 27.9028 4.90311 28.0422 4.76371 28.4603L3.50917 31.7361C3.36978 32.0846 3.57887 32.5028 3.92735 32.6422C4.27584 32.7816 4.69402 32.5725 4.83341 32.224L5.53038 30.4119C7.4819 36.5452 12.291 41.3543 18.4243 43.1664H18.6334C18.9122 43.1664 19.191 42.9573 19.3304 42.6785C19.4001 42.33 19.191 41.9816 18.8425 41.8422Z" stroke="currentColor"/>
<path d="M34.1062 31.3182C34.6637 31.3182 35.1516 31.8061 35.1516 32.3637C35.1516 32.7818 35.4304 33.0606 35.8486 33.0606C36.2668 33.0606 36.5456 32.7818 36.5456 32.3637C36.5456 31.2485 35.7789 30.3424 34.8031 30.0637V29.4364C34.8031 29.0182 34.5243 28.7394 34.1062 28.7394C33.688 28.7394 33.4092 29.0182 33.4092 29.4364V30.0637C32.4334 30.3424 31.6668 31.2485 31.6668 32.3637C31.6668 33.6879 32.7819 34.803 34.1062 34.803C34.6637 34.803 35.1516 35.2909 35.1516 35.8485C35.1516 36.4061 34.6637 36.894 34.1062 36.894C33.5486 36.894 33.0607 36.4061 33.0607 35.8485C33.0607 35.4303 32.7819 35.1515 32.3637 35.1515C31.9456 35.1515 31.6668 35.4303 31.6668 35.8485C31.6668 36.9637 32.4334 37.8697 33.4092 38.1485V38.7758C33.4092 39.194 33.688 39.4727 34.1062 39.4727C34.5243 39.4727 34.8031 39.194 34.8031 38.7758V38.1485C35.7789 37.8697 36.5456 36.894 36.5456 35.8485C36.5456 34.5243 35.4304 33.4091 34.1062 33.4091C33.5486 33.4091 33.0607 32.9212 33.0607 32.3637C33.0607 31.8061 33.5486 31.3182 34.1062 31.3182Z" stroke="currentColor"/>
</svg>
