<svg id="svg-vc" viewBox="0 0 460 460" fill="none" xmlns="http://www.w3.org/2000/svg">
<path d="M1.02441 408.093V439.749H33.289V408.093H1.02441Z" fill="currentColor"/>
<path d="M53.043 21.6211V52.618H85.6368L142.264 211.559H172.882L232.144 52.618H262.434V21.6211H208.111L159.055 160.447L110.658 21.6211H53.043Z" fill="currentColor"/>
<path d="M409.489 55.6275V87.6137H440.107V40.1293C410.148 19.6845 386.908 8.56358 340.68 19.025C301.283 27.9408 281.528 62.8822 275.164 80.0294C266.165 108.828 263.509 173.415 324.878 201.378C386.246 229.341 431.438 194.564 446.363 173.679C445.596 173.02 439.582 168.271 421.672 154.554C396.913 185.155 361.971 182.473 347.594 177.306C326.633 168.953 289.847 138.659 310.391 84.3161C336.203 30.2365 387.211 42.6572 409.489 55.6275Z" fill="currentColor"/>
<path d="M312.805 253.768H251.897V285.094H280.212V372.808C279.992 376.876 280.54 394.243 287.784 409.082C296.71 427.368 314.671 439.089 323.999 442.056C328.389 443.926 342.304 446.805 362.849 443.376C383.392 439.947 399.502 420.184 404.989 410.731L409.599 440.078H459.642V410.071H433.962V253.768H368.774V284.764H401.039V320.378C401.039 366.544 402.955 368.192 396.759 383.361C391.82 395.452 374.963 418.908 347.045 416.006C319.126 413.104 312.586 384.021 312.805 369.841V253.768Z" fill="currentColor"/>
<path d="M100.452 411.587H69.1749V440.934H212.72V411.587H133.045V336.733C133.045 301.119 165.969 279.685 186.381 282.982V311.012H216.67V254.954C164.257 247.567 135.57 276.497 127.778 291.886V254.954H68.8457V283.313H100.452V411.587Z" fill="currentColor"/>
<path d="M1.02441 408.093V439.749H33.289V408.093H1.02441Z" stroke="currentColor" stroke-width="0.642714"/>
<path d="M53.043 21.6211V52.618H85.6368L142.264 211.559H172.882L232.144 52.618H262.434V21.6211H208.111L159.055 160.447L110.658 21.6211H53.043Z" stroke="currentColor" stroke-width="0.642714"/>
<path d="M409.489 55.6275V87.6137H440.107V40.1293C410.148 19.6845 386.908 8.56358 340.68 19.025C301.283 27.9408 281.528 62.8822 275.164 80.0294C266.165 108.828 263.509 173.415 324.878 201.378C386.246 229.341 431.438 194.564 446.363 173.679C445.596 173.02 439.582 168.271 421.672 154.554C396.913 185.155 361.971 182.473 347.594 177.306C326.633 168.953 289.847 138.659 310.391 84.3161C336.203 30.2365 387.211 42.6572 409.489 55.6275Z" stroke="currentColor" stroke-width="0.642714"/>
<path d="M312.805 253.768H251.897V285.094H280.212V372.808C279.992 376.876 280.54 394.243 287.784 409.082C296.71 427.368 314.671 439.089 323.999 442.056C328.389 443.926 342.304 446.805 362.849 443.376C383.392 439.947 399.502 420.184 404.989 410.731L409.599 440.078H459.642V410.071H433.962V253.768H368.774V284.764H401.039V320.378C401.039 366.544 402.955 368.192 396.759 383.361C391.82 395.452 374.963 418.908 347.045 416.006C319.126 413.104 312.586 384.021 312.805 369.841V253.768Z" stroke="currentColor" stroke-width="0.642714"/>
<path d="M100.452 411.587H69.1749V440.934H212.72V411.587H133.045V336.733C133.045 301.119 165.969 279.685 186.381 282.982V311.012H216.67V254.954C164.257 247.567 135.57 276.497 127.778 291.886V254.954H68.8457V283.313H100.452V411.587Z" stroke="currentColor" stroke-width="0.642714"/>
</svg>
