<svg id="svg-vedomosti" viewBox="0 0 460 460" fill="none" xmlns="http://www.w3.org/2000/svg">
<path fill-rule="evenodd" clip-rule="evenodd" d="M124 363.619H143.522L143.51 97.0207H124V86H268.367C283.973 86 331.443 92.4868 331.443 153.46C331.443 207.296 295.022 219.619 269.02 221.56V226.105C322.341 231.302 336 267.619 336 305.888C336 361.666 300.243 374 265.768 374H124V363.619ZM223.508 218.317V97.0207H233.916C234.17 97.0207 234.429 97.0193 234.693 97.0179C242.547 96.9765 254.731 96.9122 254.731 132.047V182.639C254.731 218.346 242.166 218.328 234.322 218.317C234.185 218.317 234.05 218.317 233.916 218.317H223.508ZM223.508 228.698V363.619L233.916 363.607C234.047 363.607 234.18 363.607 234.315 363.608C242.159 363.618 254.731 363.635 254.731 327.941V264.364C254.731 228.669 242.155 228.687 234.321 228.698C234.185 228.698 234.049 228.698 233.916 228.698H223.508Z" fill="currentColor"/>
<path fill-rule="evenodd" clip-rule="evenodd" d="M124 363.619H143.522L143.51 97.0207H124V86H268.367C283.973 86 331.443 92.4868 331.443 153.46C331.443 207.296 295.022 219.619 269.02 221.56V226.105C322.341 231.302 336 267.619 336 305.888C336 361.666 300.243 374 265.768 374H124V363.619ZM223.508 218.317V97.0207H233.916C234.17 97.0207 234.429 97.0193 234.693 97.0179C242.547 96.9765 254.731 96.9122 254.731 132.047V182.639C254.731 218.346 242.166 218.328 234.322 218.317C234.185 218.317 234.05 218.317 233.916 218.317H223.508ZM223.508 228.698V363.619L233.916 363.607C234.047 363.607 234.18 363.607 234.315 363.608C242.159 363.618 254.731 363.635 254.731 327.941V264.364C254.731 228.669 242.155 228.687 234.321 228.698C234.185 228.698 234.049 228.698 233.916 228.698H223.508Z" stroke="currentColor" stroke-width="10"/>
<path fill-rule="evenodd" clip-rule="evenodd" d="M124 363.619H143.522L143.51 97.0207H124V86H268.367C283.973 86 331.443 92.4868 331.443 153.46C331.443 207.296 295.022 219.619 269.02 221.56V226.105C322.341 231.302 336 267.619 336 305.888C336 361.666 300.243 374 265.768 374H124V363.619ZM223.508 218.317V97.0207H233.916C234.17 97.0207 234.429 97.0193 234.693 97.0179C242.547 96.9765 254.731 96.9122 254.731 132.047V182.639C254.731 218.346 242.166 218.328 234.322 218.317C234.185 218.317 234.05 218.317 233.916 218.317H223.508ZM223.508 228.698V363.619L233.916 363.607C234.047 363.607 234.18 363.607 234.315 363.608C242.159 363.618 254.731 363.635 254.731 327.941V264.364C254.731 228.669 242.155 228.687 234.321 228.698C234.185 228.698 234.049 228.698 233.916 228.698H223.508Z" stroke="currentColor" stroke-width="10"/>
<path d="M455 230C455 354.264 354.264 455 230 455C105.736 455 5 354.264 5 230C5 105.736 105.736 5 230 5C354.264 5 455 105.736 455 230Z" stroke="currentColor" stroke-width="10"/>
</svg>
