<svg id="svg-whatsapp" viewBox="0 0 41 40" fill="currentColor" xmlns="http://www.w3.org/2000/svg">
<path d="M27.2489 13.1101C25.564 11.4211 23.3201 10.4922 20.9354 10.4922C16.0133 10.4922 12.008 14.4974 12.008 19.4196C12.008 20.9919 12.4182 22.5281 13.1984 23.8833L11.9316 28.5078L16.6648 27.2652C17.9677 27.977 19.4355 28.351 20.9314 28.351H20.9354C25.8535 28.351 29.9473 24.3457 29.9473 19.4236C29.9473 17.0389 28.9339 14.799 27.2489 13.1101ZM20.9354 26.847C19.6003 26.847 18.2934 26.4891 17.1554 25.8135L16.8859 25.6527L14.079 26.3886L14.827 23.65L14.6501 23.3685C13.9061 22.1863 13.5161 20.823 13.5161 19.4196C13.5161 15.3299 16.8457 12.0002 20.9395 12.0002C22.922 12.0002 24.7839 12.7723 26.1833 14.1757C27.5827 15.5792 28.4433 17.4411 28.4393 19.4236C28.4393 23.5173 25.0251 26.847 20.9354 26.847ZM25.005 21.2895C24.7839 21.1769 23.686 20.638 23.4809 20.5657C23.2759 20.4893 23.1271 20.4531 22.9783 20.6783C22.8295 20.9034 22.4032 21.4021 22.2705 21.5549C22.1418 21.7037 22.0091 21.7238 21.788 21.6112C20.477 20.9557 19.6164 20.441 18.7518 18.9571C18.5226 18.563 18.9811 18.5912 19.4073 17.7387C19.4797 17.5899 19.4435 17.4612 19.3872 17.3486C19.3309 17.236 18.8845 16.1382 18.6996 15.6918C18.5186 15.2575 18.3336 15.3178 18.1969 15.3098C18.0682 15.3017 17.9194 15.3017 17.7706 15.3017C17.6218 15.3017 17.3806 15.358 17.1755 15.5792C16.9704 15.8044 16.3953 16.3432 16.3953 17.4411C16.3953 18.5389 17.1956 19.6005 17.3042 19.7493C17.4168 19.8981 18.8765 22.1501 21.1164 23.1192C22.5319 23.7305 23.0869 23.7827 23.7946 23.6782C24.2249 23.6138 25.1136 23.1393 25.2986 22.6165C25.4836 22.0938 25.4836 21.6474 25.4273 21.5549C25.375 21.4544 25.2262 21.3981 25.005 21.2895Z" />
</svg>
