<svg width="2880" height="380" viewBox="0 0 2880 380" fill="none" xmlns="http://www.w3.org/2000/svg">
<mask id="mask0_7166_6357" style="mask-type:alpha" maskUnits="userSpaceOnUse" x="1440" y="116" width="1439" height="207">
<path opacity="0.6" d="M1610.82 262.557L1560.43 213.343L1440 231.045V322.205H2878.9V153.957L2758.47 163.665L2651.76 196.798C2643.72 199.294 2634.97 197.702 2628.33 192.536L2587.89 161.092C2582.06 156.556 2574.56 154.746 2567.3 156.123L2518.5 165.378L2472.88 173.722C2464.33 175.285 2455.58 172.43 2449.59 166.132L2410.36 124.834C2403.42 117.53 2392.85 114.946 2383.33 118.223L2279.43 153.957L2171.03 147.744C2163.93 147.336 2156.97 149.889 2151.82 154.795L2104.22 200.094C2101.24 202.934 2097.62 205.016 2093.66 206.166L2039.47 221.909L1926.38 212.725C1922.15 212.381 1917.9 213.09 1914.01 214.787L1799.5 264.735L1746.44 248.902C1742.33 247.676 1737.98 247.495 1733.79 248.377L1634.1 269.332C1625.69 271.098 1616.96 268.557 1610.82 262.557Z" fill="url(#paint0_linear_7166_6357)"/>
</mask>
<g mask="url(#mask0_7166_6357)">
<path d="M1560.23 94L1560.23 322.407" stroke="#F1F8F6" stroke-width="0.804251"/>
<path d="M1799.9 94L1799.9 322.407" stroke="#F1F8F6" stroke-width="0.804251"/>
<path d="M2039.57 94L2039.57 322.407" stroke="#F1F8F6" stroke-width="0.804251"/>
<path d="M2279.23 94L2279.23 322.407" stroke="#F1F8F6" stroke-width="0.804251"/>
<path d="M2518.9 94L2518.9 322.407" stroke="#F1F8F6" stroke-width="0.804251"/>
<path d="M2758.57 94L2758.57 322.407" stroke="#F1F8F6" stroke-width="0.804251"/>
</g>
<mask id="mask1_7166_6357" style="mask-type:alpha" maskUnits="userSpaceOnUse" x="1440" y="94" width="1438" height="229">
<path d="M2878 94H1440V322.407H2878V94Z" fill="url(#paint1_radial_7166_6357)"/>
</mask>
<g mask="url(#mask1_7166_6357)">
<g opacity="0.99" filter="url(#filter0_d_7166_6357)">
<path d="M1619.45 270.991L1560.43 213.343L1440 231.045V322.205H2878.9V153.958L2758.47 163.665L2640.49 200.297C2639.51 200.6 2638.45 200.407 2637.64 199.779L2579.83 154.825C2579.12 154.274 2578.21 154.054 2577.33 154.221L2518.5 165.378L2460.85 175.923C2459.81 176.113 2458.74 175.766 2458.02 175L2400.35 114.302C2399.51 113.414 2398.22 113.1 2397.07 113.498L2279.43 153.958L2161.25 147.183C2160.39 147.134 2159.54 147.444 2158.92 148.04L2100.23 203.891C2099.87 204.236 2099.43 204.49 2098.95 204.629L2039.47 221.909L1920.72 212.265C1920.2 212.223 1919.68 212.309 1919.21 212.516L1799.5 264.735L1740.94 247.261C1740.44 247.111 1739.92 247.09 1739.41 247.197L1622.28 271.815C1621.26 272.029 1620.2 271.72 1619.45 270.991Z" fill="#1FD5BF"/>
</g>
</g>
<mask id="mask2_7166_6357" style="mask-type:alpha" maskUnits="userSpaceOnUse" x="1440" y="94" width="1438" height="229">
<path d="M2878 94H1440V322.407H2878V94Z" fill="url(#paint2_radial_7166_6357)"/>
</mask>
<g mask="url(#mask2_7166_6357)">
<g opacity="0.99" filter="url(#filter1_d_7166_6357)">
<path d="M1619.45 270.991L1560.43 213.343L1440 231.045V322.205H2878.9V153.958L2758.47 163.665L2640.49 200.297C2639.51 200.6 2638.45 200.407 2637.64 199.779L2579.83 154.825C2579.12 154.274 2578.21 154.054 2577.33 154.221L2518.5 165.378L2460.85 175.923C2459.81 176.113 2458.74 175.766 2458.02 175L2400.35 114.302C2399.51 113.414 2398.22 113.1 2397.07 113.498L2279.43 153.958L2161.25 147.183C2160.39 147.134 2159.54 147.444 2158.92 148.04L2100.23 203.891C2099.87 204.236 2099.43 204.49 2098.95 204.629L2039.47 221.909L1920.72 212.265C1920.2 212.223 1919.68 212.309 1919.21 212.516L1799.5 264.735L1740.94 247.261C1740.44 247.111 1739.92 247.09 1739.41 247.197L1622.28 271.815C1621.26 272.029 1620.2 271.72 1619.45 270.991Z" fill="#1FD5BF"/>
</g>
</g>
<path d="M1440 231.045L1560.43 213.343L1619.45 270.991C1620.2 271.72 1621.26 272.029 1622.28 271.815L1739.41 247.197C1739.92 247.09 1740.44 247.111 1740.94 247.261L1799.5 264.735L1919.21 212.516C1919.68 212.309 1920.2 212.223 1920.72 212.265L2039.47 221.909L2098.95 204.629C2099.43 204.49 2099.87 204.236 2100.23 203.891L2158.92 148.04C2159.54 147.444 2160.39 147.134 2161.25 147.183L2279.43 153.958L2397.07 113.498C2398.22 113.1 2399.51 113.414 2400.35 114.302L2458.02 175C2458.74 175.766 2459.81 176.113 2460.85 175.923L2518.5 165.378L2577.33 154.221C2578.21 154.054 2579.12 154.274 2579.83 154.825L2637.64 199.779C2638.45 200.407 2639.51 200.6 2640.49 200.297L2758.47 163.665L2878.9 153.958" stroke="#00C1AD" stroke-linecap="round" stroke-linejoin="round"/>
<mask id="mask3_7166_6357" style="mask-type:alpha" maskUnits="userSpaceOnUse" x="1" y="116" width="1439" height="207">
<path opacity="0.6" d="M1269.18 262.557L1319.57 213.343L1440 231.045V322.205H1.10156V153.957L121.534 163.665L228.241 196.798C236.277 199.294 245.027 197.702 251.67 192.536L292.109 161.092C297.942 156.556 305.443 154.746 312.702 156.123L361.5 165.378L407.12 173.722C415.666 175.285 424.424 172.43 430.408 166.132L469.643 124.834C476.582 117.53 487.145 114.946 496.672 118.223L600.568 153.957L708.965 147.744C716.07 147.336 723.026 149.889 728.181 154.795L775.775 200.094C778.76 202.934 782.383 205.016 786.339 206.166L840.534 221.909L953.622 212.725C957.853 212.381 962.104 213.09 965.995 214.787L1080.5 264.735L1133.56 248.902C1137.67 247.676 1142.02 247.495 1146.21 248.377L1245.9 269.332C1254.31 271.098 1263.04 268.557 1269.18 262.557Z" fill="url(#paint3_linear_7166_6357)"/>
</mask>
<g mask="url(#mask3_7166_6357)">
<path d="M1319.77 94L1319.77 322.407" stroke="#F1F8F6" stroke-width="0.804251"/>
<path d="M1080.1 94L1080.1 322.407" stroke="#F1F8F6" stroke-width="0.804251"/>
<path d="M840.432 94L840.432 322.407" stroke="#F1F8F6" stroke-width="0.804251"/>
<path d="M600.766 94L600.766 322.407" stroke="#F1F8F6" stroke-width="0.804251"/>
<path d="M361.099 94L361.099 322.407" stroke="#F1F8F6" stroke-width="0.804251"/>
<path d="M121.432 94L121.432 322.407" stroke="#F1F8F6" stroke-width="0.804251"/>
</g>
<mask id="mask4_7166_6357" style="mask-type:alpha" maskUnits="userSpaceOnUse" x="2" y="94" width="1438" height="229">
<path d="M2 94H1440V322.407H2V94Z" fill="url(#paint4_radial_7166_6357)"/>
</mask>
<g mask="url(#mask4_7166_6357)">
<g opacity="0.99" filter="url(#filter2_d_7166_6357)">
<path d="M1260.55 270.991L1319.57 213.343L1440 231.045V322.205H1.10156V153.958L121.534 163.665L239.508 200.297C240.485 200.6 241.549 200.407 242.357 199.779L300.168 154.825C300.877 154.274 301.789 154.054 302.672 154.221L361.5 165.378L419.152 175.923C420.191 176.113 421.256 175.766 421.984 175L479.649 114.302C480.493 113.414 481.777 113.1 482.935 113.498L600.568 153.958L718.747 147.183C719.611 147.134 720.457 147.444 721.084 148.04L779.765 203.891C780.128 204.236 780.569 204.49 781.05 204.629L840.534 221.909L959.284 212.265C959.798 212.223 960.315 212.309 960.788 212.516L1080.5 264.735L1139.06 247.261C1139.56 247.111 1140.08 247.09 1140.59 247.197L1257.72 271.815C1258.74 272.029 1259.8 271.72 1260.55 270.991Z" fill="#1FD5BF"/>
</g>
</g>
<path d="M1440 231.045L1319.57 213.343L1260.55 270.991C1259.8 271.72 1258.74 272.029 1257.72 271.815L1140.59 247.197C1140.08 247.09 1139.56 247.111 1139.06 247.261L1080.5 264.735L960.788 212.516C960.315 212.309 959.798 212.223 959.284 212.265L840.534 221.909L781.05 204.629C780.569 204.49 780.128 204.236 779.765 203.891L721.084 148.04C720.457 147.444 719.611 147.134 718.747 147.183L600.567 153.958L482.935 113.498C481.777 113.1 480.493 113.414 479.649 114.302L421.984 175C421.256 175.766 420.191 176.113 419.152 175.923L361.5 165.378L302.672 154.221C301.789 154.054 300.877 154.274 300.168 154.825L242.357 199.779C241.549 200.407 240.485 200.6 239.508 200.297L121.534 163.665L1.10156 153.958" stroke="#00C1AD" stroke-linecap="round" stroke-linejoin="round"/>
<defs>
<filter id="filter0_d_7166_6357" x="1433.57" y="113.328" width="1451.77" height="221.745" filterUnits="userSpaceOnUse" color-interpolation-filters="sRGB">
<feFlood flood-opacity="0" result="BackgroundImageFix"/>
<feColorMatrix in="SourceAlpha" type="matrix" values="0 0 0 0 0 0 0 0 0 0 0 0 0 0 0 0 0 0 127 0" result="hardAlpha"/>
<feOffset dy="6.434"/>
<feGaussianBlur stdDeviation="3.217"/>
<feComposite in2="hardAlpha" operator="out"/>
<feColorMatrix type="matrix" values="0 0 0 0 0.121569 0 0 0 0 0.835294 0 0 0 0 0.74902 0 0 0 1 0"/>
<feBlend mode="normal" in2="BackgroundImageFix" result="effect1_dropShadow_7166_6357"/>
<feBlend mode="normal" in="SourceGraphic" in2="effect1_dropShadow_7166_6357" result="shape"/>
</filter>
<filter id="filter1_d_7166_6357" x="1433.57" y="113.328" width="1451.77" height="221.745" filterUnits="userSpaceOnUse" color-interpolation-filters="sRGB">
<feFlood flood-opacity="0" result="BackgroundImageFix"/>
<feColorMatrix in="SourceAlpha" type="matrix" values="0 0 0 0 0 0 0 0 0 0 0 0 0 0 0 0 0 0 127 0" result="hardAlpha"/>
<feOffset dy="6.434"/>
<feGaussianBlur stdDeviation="3.217"/>
<feComposite in2="hardAlpha" operator="out"/>
<feColorMatrix type="matrix" values="0 0 0 0 0.121569 0 0 0 0 0.835294 0 0 0 0 0.74902 0 0 0 1 0"/>
<feBlend mode="normal" in2="BackgroundImageFix" result="effect1_dropShadow_7166_6357"/>
<feBlend mode="normal" in="SourceGraphic" in2="effect1_dropShadow_7166_6357" result="shape"/>
</filter>
<filter id="filter2_d_7166_6357" x="-5.33244" y="113.328" width="1451.77" height="221.745" filterUnits="userSpaceOnUse" color-interpolation-filters="sRGB">
<feFlood flood-opacity="0" result="BackgroundImageFix"/>
<feColorMatrix in="SourceAlpha" type="matrix" values="0 0 0 0 0 0 0 0 0 0 0 0 0 0 0 0 0 0 127 0" result="hardAlpha"/>
<feOffset dy="6.434"/>
<feGaussianBlur stdDeviation="3.217"/>
<feComposite in2="hardAlpha" operator="out"/>
<feColorMatrix type="matrix" values="0 0 0 0 0.121569 0 0 0 0 0.835294 0 0 0 0 0.74902 0 0 0 1 0"/>
<feBlend mode="normal" in2="BackgroundImageFix" result="effect1_dropShadow_7166_6357"/>
<feBlend mode="normal" in="SourceGraphic" in2="effect1_dropShadow_7166_6357" result="shape"/>
</filter>
<linearGradient id="paint0_linear_7166_6357" x1="2305.95" y1="93.7802" x2="2305.95" y2="322.205" gradientUnits="userSpaceOnUse">
<stop/>
<stop offset="0.95" stop-opacity="0"/>
</linearGradient>
<radialGradient id="paint1_radial_7166_6357" cx="0" cy="0" r="1" gradientUnits="userSpaceOnUse" gradientTransform="translate(2159 135.957) rotate(90) scale(156.313 718.998)">
<stop stop-opacity="0.1"/>
<stop offset="1" stop-opacity="0"/>
</radialGradient>
<radialGradient id="paint2_radial_7166_6357" cx="0" cy="0" r="1" gradientUnits="userSpaceOnUse" gradientTransform="translate(2159 135.957) rotate(90) scale(156.313 718.998)">
<stop stop-opacity="0.1"/>
<stop offset="1" stop-opacity="0"/>
</radialGradient>
<linearGradient id="paint3_linear_7166_6357" x1="574.054" y1="93.7802" x2="574.054" y2="322.205" gradientUnits="userSpaceOnUse">
<stop/>
<stop offset="0.95" stop-opacity="0"/>
</linearGradient>
<radialGradient id="paint4_radial_7166_6357" cx="0" cy="0" r="1" gradientUnits="userSpaceOnUse" gradientTransform="translate(721.002 135.957) rotate(90) scale(156.313 718.998)">
<stop stop-opacity="0.1"/>
<stop offset="1" stop-opacity="0"/>
</radialGradient>
</defs>
</svg>
