<svg width="1440" height="420" viewBox="0 0 1440 420" fill="none" xmlns="http://www.w3.org/2000/svg">
<mask id="mask0_7149_3521" style="mask-type:alpha" maskUnits="userSpaceOnUse" x="1" y="134" width="1438" height="229">
<rect x="1" y="134" width="1438" height="228.407" fill="url(#paint0_radial_7149_3521)"/>
</mask>
<g mask="url(#mask0_7149_3521)">
<g opacity="0.99" filter="url(#filter0_d_7149_3521)">
<path d="M180.454 310.991L121.433 253.343L1 271.045V362.205H1439.9V193.957L1319.47 203.665L1201.49 240.297C1200.51 240.6 1199.45 240.407 1198.64 239.779L1140.83 194.825C1140.12 194.273 1139.21 194.053 1138.33 194.221L1079.5 205.378L1021.85 215.923C1020.81 216.113 1019.74 215.766 1019.02 215L961.351 154.302C960.507 153.414 959.223 153.1 958.065 153.498L840.432 193.957L722.253 187.183C721.389 187.133 720.543 187.444 719.916 188.04L661.235 243.891C660.872 244.236 660.431 244.49 659.95 244.629L600.466 261.909L481.716 252.265C481.202 252.223 480.685 252.309 480.212 252.516L360.5 304.735L301.944 287.26C301.444 287.111 300.915 287.09 300.405 287.197L183.284 311.815C182.262 312.029 181.201 311.72 180.454 310.991Z" fill="#1FD5BF"/>
</g>
</g>
<path d="M1 271.045L121.433 253.343L180.454 310.991C181.201 311.72 182.262 312.029 183.284 311.815L300.405 287.197C300.915 287.09 301.444 287.111 301.944 287.26L360.5 304.735L480.212 252.516C480.685 252.309 481.202 252.223 481.716 252.265L600.466 261.909L659.95 244.629C660.431 244.49 660.872 244.236 661.235 243.891L719.916 188.04C720.543 187.444 721.389 187.133 722.253 187.183L840.433 193.957L958.065 153.498C959.223 153.1 960.507 153.414 961.351 154.302L1019.02 215C1019.74 215.766 1020.81 216.113 1021.85 215.923L1079.5 205.378L1138.33 194.221C1139.21 194.053 1140.12 194.273 1140.83 194.825L1198.64 239.779C1199.45 240.407 1200.51 240.6 1201.49 240.297L1319.47 203.665L1439.9 193.957" stroke="#00C1AD" stroke-opacity="0.5" stroke-width="4.8255" stroke-linecap="round" stroke-linejoin="round"/>
<defs>
<filter id="filter0_d_7149_3521" x="-5.434" y="153.328" width="1451.77" height="221.745" filterUnits="userSpaceOnUse" color-interpolation-filters="sRGB">
<feFlood flood-opacity="0" result="BackgroundImageFix"/>
<feColorMatrix in="SourceAlpha" type="matrix" values="0 0 0 0 0 0 0 0 0 0 0 0 0 0 0 0 0 0 127 0" result="hardAlpha"/>
<feOffset dy="6.434"/>
<feGaussianBlur stdDeviation="3.217"/>
<feComposite in2="hardAlpha" operator="out"/>
<feColorMatrix type="matrix" values="0 0 0 0 0.121569 0 0 0 0 0.835294 0 0 0 0 0.74902 0 0 0 1 0"/>
<feBlend mode="normal" in2="BackgroundImageFix" result="effect1_dropShadow_7149_3521"/>
<feBlend mode="normal" in="SourceGraphic" in2="effect1_dropShadow_7149_3521" result="shape"/>
</filter>
<radialGradient id="paint0_radial_7149_3521" cx="0" cy="0" r="1" gradientUnits="userSpaceOnUse" gradientTransform="translate(719.998 175.957) rotate(90) scale(156.313 718.998)">
<stop stop-opacity="0.1"/>
<stop offset="1" stop-opacity="0"/>
</radialGradient>
</defs>
</svg>
