<svg id="svg-logo" viewBox="0 0 192 36" fill="none" xmlns="http://www.w3.org/2000/svg">
<path d="M22.4137 14.1263H14.9103V21.3459H22.4137V14.1263Z" fill="currentColor"/>
<path d="M18.3552 7.20255H7.48276V35.9985H0V5.2121C0 2.3345 2.42628 0 5.41702 0H29.934V7.15989C29.934 7.15989 19.3423 7.1997 18.3552 7.1997V7.20255Z" fill="currentColor"/>
<path d="M31.9644 36C34.9552 36 37.3815 33.6655 37.3815 30.7879V7.16424H29.8987V28.8003H19.0262C18.6568 28.8003 16.9575 28.806 14.9657 28.8117V36H31.9644Z" fill="currentColor"/>
<path d="M170.681 26.8414V15.803H174.8V25.0813L173.556 23.9041H180.386L179.28 25.0813V15.803H183.4V25.0813L182.215 23.9041H189.127L187.88 25.0813V15.803H192V26.8414H170.681Z" fill="currentColor"/>
<path d="M157.559 21.3318C157.559 21.8721 157.674 22.3555 157.902 22.782C158.144 23.2085 158.472 23.5412 158.886 23.7886C159.303 24.0218 159.776 24.1355 160.313 24.1355C160.875 24.1355 161.404 24.0189 161.9 23.7886C162.397 23.5441 162.831 23.2085 163.207 22.782C163.582 22.3555 163.863 21.8721 164.052 21.3318C163.866 20.7774 163.582 20.2883 163.207 19.8618C162.831 19.4352 162.397 19.1025 161.9 18.8552C161.404 18.6078 160.875 18.4883 160.313 18.4883C159.752 18.4883 159.303 18.6106 158.886 18.8552C158.469 19.0997 158.141 19.4352 157.902 19.8618C157.674 20.2883 157.559 20.7774 157.559 21.3318ZM165.213 21.3318C165.027 22.492 164.652 23.5099 164.087 24.3857C163.538 25.2615 162.834 25.944 161.977 26.4359C161.132 26.9136 160.169 27.1524 159.084 27.1524C157.999 27.1524 156.968 26.9136 156.111 26.4359C155.266 25.9468 154.604 25.2644 154.122 24.3857C153.64 23.4957 153.398 22.4778 153.398 21.3318C153.398 20.1859 153.64 19.1338 154.122 18.258C154.604 17.3822 155.269 16.6998 156.111 16.2079C156.968 15.7188 157.961 15.4743 159.084 15.4743C160.207 15.4743 161.132 15.7188 161.977 16.2079C162.834 16.6856 163.544 17.3623 164.108 18.2381C164.669 19.1025 165.039 20.1319 165.213 21.3318ZM164.25 26.8425L163.727 22.8588L164.27 21.3318L163.727 19.8049L164.25 15.8041H168.508L168.455 21.3148L168.508 26.8454H164.25V26.8425Z" fill="currentColor"/>
<path d="M133.157 26.8414V15.803H139.324L142.88 24.6946H141.736L145.232 15.803H151.4V26.8414H147.561V17.2902H148.226L144.165 26.8414H140.409L136.351 17.33L137.013 17.2902V26.8414H133.157Z" fill="currentColor"/>
<path d="M117.145 26.8414L122.471 20.654L122.45 21.8142L117.447 15.803H122.01L125.246 19.6105H124.04L127.273 15.803H131.774L126.59 21.854L126.389 20.2872L132.096 26.8414H127.435L123.919 22.761H125.204L121.729 26.8414H117.145Z" fill="currentColor"/>
<path d="M110.759 27.1524C109.367 27.1524 108.12 26.9079 107.02 26.4188C105.936 25.9297 105.079 25.2473 104.449 24.3687C103.82 23.4787 103.504 22.4493 103.504 21.275C103.504 20.1006 103.805 19.1224 104.408 18.258C105.011 17.3822 105.835 16.6998 106.878 16.2079C107.936 15.7188 109.127 15.4743 110.454 15.4743C111.781 15.4743 113.005 15.7643 113.971 16.3444C114.949 16.9102 115.7 17.7178 116.22 18.7613C116.755 19.8049 117.024 21.0361 117.024 22.455H106.816V20.0779H114.713L113.365 20.9082C113.312 20.3423 113.164 19.8646 112.922 19.4779C112.68 19.077 112.361 18.7755 111.959 18.568C111.571 18.3604 111.102 18.258 110.552 18.258C109.949 18.258 109.435 18.3746 109.003 18.6049C108.575 18.8381 108.241 19.1594 107.999 19.5717C107.756 19.9726 107.638 20.4418 107.638 20.9821C107.638 21.6787 107.798 22.2702 108.12 22.7621C108.454 23.2398 108.935 23.6066 109.568 23.8654C110.212 24.1241 110.995 24.2521 111.917 24.2521C112.762 24.2521 113.599 24.1497 114.429 23.9421C115.274 23.7232 116.037 23.419 116.72 23.0322V25.5459C115.93 26.0605 115.026 26.4615 114.007 26.7458C113.002 27.016 111.917 27.1524 110.753 27.1524H110.759Z" fill="currentColor"/>
<path d="M89.9543 15.803H102.795V18.7802H89.9543V15.803ZM94.3134 17.1565H98.433V26.8414H94.3134V17.1565Z" fill="currentColor"/>
<path d="M89.3269 22.1814C89.2205 23.1738 88.8452 24.0439 88.2009 24.7917C87.5567 25.5396 86.7203 26.1196 85.6889 26.5319C84.6723 26.9442 83.5257 27.1518 82.252 27.1518C80.8452 27.1518 79.607 26.9073 78.5342 26.4182C77.4615 25.9291 76.6251 25.2467 76.0223 24.368C75.4194 23.4923 75.1179 22.48 75.1179 21.3341C75.1179 20.1881 75.4194 19.1559 76.0223 18.2801C76.6251 17.4044 77.4615 16.7219 78.5342 16.23C79.607 15.7267 80.8452 15.4765 82.252 15.4765C83.5257 15.4765 84.6694 15.6897 85.6889 16.1134C86.7203 16.5257 87.5567 17.1058 88.2009 17.8536C88.8452 18.5872 89.2175 19.4574 89.3269 20.4639H85.2486C85.1008 19.8071 84.761 19.3038 84.2231 18.9569C83.6882 18.5958 83.0322 18.4166 82.2549 18.4166C81.652 18.4166 81.123 18.5332 80.6679 18.7635C80.2246 18.9825 79.8789 19.3123 79.6218 19.7502C79.3794 20.1768 79.2612 20.7028 79.2612 21.3369C79.2612 21.971 79.3824 22.4828 79.6218 22.9236C79.8759 23.3501 80.2246 23.6771 80.6679 23.9102C81.123 24.1292 81.652 24.2401 82.2549 24.2401C83.0322 24.2401 83.6882 24.0524 84.2231 23.6799C84.7728 23.3074 85.1127 22.8098 85.2486 22.1899H89.3269V22.1814Z" fill="currentColor"/>
<path d="M64.4294 25.8184L59.5473 15.8036H64.0689L68.3895 25.8184H64.4294ZM64.2876 30.3424C63.4424 30.3424 62.6947 30.24 62.0386 30.0324C61.3826 29.8391 60.7472 29.5348 60.1295 29.1225V26.3786C60.759 26.7653 61.3471 27.0411 61.8968 27.2089C62.4464 27.3766 63.0493 27.4591 63.7054 27.4591C64.2551 27.4591 64.7427 27.3425 65.1712 27.1122C65.5997 26.879 65.9485 26.4553 66.2174 25.8355L70.6178 15.8008H74.9768L69.4711 27.0525C69.084 27.8657 68.6082 28.5083 68.0437 28.986C67.4941 29.4751 66.8971 29.8249 66.2558 30.0296C65.6115 30.2372 64.9555 30.3395 64.2876 30.3395V30.3424Z" fill="currentColor"/>
<path d="M52.8233 12.342C54.0822 12.342 55.1668 12.5496 56.077 12.9619C57.002 13.3742 57.7054 13.9599 58.1871 14.722C58.6688 15.4698 58.9111 16.3456 58.9111 17.3522C58.9111 18.3588 58.6688 19.2204 58.1871 19.9824C57.7054 20.7303 57.002 21.3103 56.077 21.7226C55.1668 22.1349 54.0822 22.3425 52.8233 22.3425H46.2921V19.1322H52.5602C53.2311 19.1322 53.7512 18.9787 54.1265 18.6687C54.5018 18.3474 54.688 17.9095 54.688 17.355C54.688 16.8006 54.5018 16.3484 54.1265 16.0413C53.7512 15.72 53.2281 15.558 52.5602 15.558H46.6526L48.5204 13.7012V26.8466H44.3623V12.3477H52.8203L52.8233 12.342Z" fill="currentColor"/>
</svg>
